<?xml version="1.0" encoding="UTF-8" standalone="no"?><svg xmlns="http://www.w3.org/2000/svg" xmlns:xlink="http://www.w3.org/1999/xlink" contentStyleType="text/css" height="523px" preserveAspectRatio="none" style="width:3146px;height:523px;background:#FFFFFF;" version="1.1" viewBox="0 0 3146 523" width="3146px" zoomAndPan="magnify"><defs/><g><!--MD5=[1c1cb281ad7b230c434146985ef98943]
class FormFactory--><g id="elem_FormFactory"><rect codeLine="12" fill="#F1F1F1" height="96.8906" id="FormFactory" rx="3.5" ry="3.5" style="stroke:#181818;stroke-width:0.5;" width="332" x="1017.5" y="134"/><ellipse cx="1134.25" cy="150" fill="#B4A7E5" rx="11" ry="11" style="stroke:#181818;stroke-width:1.0;"/><path d="M1135.2031,146.7813 L1136.9219,146.7813 C1137.3125,146.7813 1137.5,146.75 1137.625,146.6719 C1137.8906,146.5156 1138.0313,146.2344 1138.0313,145.9375 C1138.0313,145.6719 1137.9219,145.4063 1137.6875,145.2344 C1137.5156,145.125 1137.375,145.0938 1136.9219,145.0938 L1131.7813,145.0938 C1131.3438,145.0938 1131.2188,145.1094 1131.0625,145.2031 C1130.8125,145.3594 1130.6563,145.6563 1130.6563,145.9375 C1130.6563,146.2188 1130.7969,146.4688 1131.0156,146.6406 C1131.1719,146.75 1131.3594,146.7813 1131.7813,146.7813 L1133.5,146.7813 L1133.5,153.2969 L1131.7813,153.2969 C1131.3438,153.2969 1131.2188,153.3125 1131.0625,153.4219 C1130.8125,153.5781 1130.6563,153.8594 1130.6563,154.1563 C1130.6563,154.4063 1130.7969,154.6719 1131.0156,154.8281 C1131.1719,154.9531 1131.375,155 1131.7813,155 L1136.9219,155 C1137.6719,155 1138.0313,154.7188 1138.0313,154.1563 C1138.0313,153.875 1137.9219,153.625 1137.6875,153.4531 C1137.5156,153.3281 1137.375,153.2969 1136.9219,153.2969 L1135.2031,153.2969 L1135.2031,146.7813 Z " fill="#000000"/><text fill="#000000" font-family="sans-serif" font-size="14" font-style="italic" lengthAdjust="spacing" textLength="90" x="1154.75" y="154.8467">FormFactory</text><line style="stroke:#181818;stroke-width:0.5;" x1="1018.5" x2="1348.5" y1="166" y2="166"/><line style="stroke:#181818;stroke-width:0.5;" x1="1018.5" x2="1348.5" y1="174" y2="174"/><ellipse cx="1028.5" cy="187.6484" fill="#84BE84" rx="3" ry="3" style="stroke:#038048;stroke-width:1.0;"/><text fill="#000000" font-family="sans-serif" font-size="14" lengthAdjust="spacing" textLength="302" x="1037.5" y="190.9951">createIntegrationForm(): IntegrationForm</text><ellipse cx="1028.5" cy="203.9453" fill="#84BE84" rx="3" ry="3" style="stroke:#038048;stroke-width:1.0;"/><text fill="#000000" font-family="sans-serif" font-size="14" lengthAdjust="spacing" textLength="272" x="1037.5" y="207.292">createInterfaceForm(): InterfaceForm</text><ellipse cx="1028.5" cy="220.2422" fill="#84BE84" rx="3" ry="3" style="stroke:#038048;stroke-width:1.0;"/><text fill="#000000" font-family="sans-serif" font-size="14" lengthAdjust="spacing" textLength="306" x="1037.5" y="223.5889">createConnectionForm(): ConnectionForm</text></g><!--MD5=[7991c7323b9e54d622210544b264eec1]
class WMFormFactory--><g id="elem_WMFormFactory"><rect codeLine="17" fill="#F1F1F1" height="96.8906" id="WMFormFactory" rx="3.5" ry="3.5" style="stroke:#181818;stroke-width:0.5;" width="332" x="1179.5" y="292"/><ellipse cx="1282.75" cy="308" fill="#ADD1B2" rx="11" ry="11" style="stroke:#181818;stroke-width:1.0;"/><path d="M1285.0938,303.6719 C1284.1563,303.2344 1283.5625,303.0938 1282.6875,303.0938 C1280.0625,303.0938 1278.0625,305.1719 1278.0625,307.8906 L1278.0625,309.0156 C1278.0625,311.5938 1280.1719,313.4844 1283.0625,313.4844 C1284.2813,313.4844 1285.4375,313.1875 1286.1875,312.6406 C1286.7656,312.2344 1287.0938,311.7813 1287.0938,311.3906 C1287.0938,310.9375 1286.7031,310.5469 1286.2344,310.5469 C1286.0156,310.5469 1285.8125,310.625 1285.625,310.8125 C1285.1719,311.2969 1285.1719,311.2969 1284.9844,311.3906 C1284.5625,311.6563 1283.875,311.7813 1283.1094,311.7813 C1281.0625,311.7813 1279.7656,310.6875 1279.7656,308.9844 L1279.7656,307.8906 C1279.7656,306.1094 1281.0156,304.7969 1282.75,304.7969 C1283.3281,304.7969 1283.9375,304.9531 1284.4063,305.2031 C1284.8906,305.4844 1285.0625,305.7031 1285.1563,306.1094 C1285.2188,306.5156 1285.25,306.6406 1285.3906,306.7656 C1285.5313,306.9063 1285.7656,307.0156 1285.9844,307.0156 C1286.25,307.0156 1286.5156,306.875 1286.6875,306.6563 C1286.7969,306.5 1286.8281,306.3125 1286.8281,305.8906 L1286.8281,304.4688 C1286.8281,304.0313 1286.8125,303.9063 1286.7188,303.75 C1286.5625,303.4844 1286.2813,303.3438 1285.9844,303.3438 C1285.6875,303.3438 1285.4844,303.4375 1285.2656,303.75 L1285.0938,303.6719 Z " fill="#000000"/><text fill="#000000" font-family="sans-serif" font-size="14" lengthAdjust="spacing" textLength="117" x="1303.25" y="312.8467">WMFormFactory</text><line style="stroke:#181818;stroke-width:0.5;" x1="1180.5" x2="1510.5" y1="324" y2="324"/><line style="stroke:#181818;stroke-width:0.5;" x1="1180.5" x2="1510.5" y1="332" y2="332"/><ellipse cx="1190.5" cy="345.6484" fill="#84BE84" rx="3" ry="3" style="stroke:#038048;stroke-width:1.0;"/><text fill="#000000" font-family="sans-serif" font-size="14" lengthAdjust="spacing" textLength="302" x="1199.5" y="348.9951">createIntegrationForm(): IntegrationForm</text><ellipse cx="1190.5" cy="361.9453" fill="#84BE84" rx="3" ry="3" style="stroke:#038048;stroke-width:1.0;"/><text fill="#000000" font-family="sans-serif" font-size="14" lengthAdjust="spacing" textLength="272" x="1199.5" y="365.292">createInterfaceForm(): InterfaceForm</text><ellipse cx="1190.5" cy="378.2422" fill="#84BE84" rx="3" ry="3" style="stroke:#038048;stroke-width:1.0;"/><text fill="#000000" font-family="sans-serif" font-size="14" lengthAdjust="spacing" textLength="306" x="1199.5" y="381.5889">createConnectionForm(): ConnectionForm</text></g><!--MD5=[876cbfd441300657573ae4a6f63dd841]
class ATFormFactory--><g id="elem_ATFormFactory"><rect codeLine="22" fill="#F1F1F1" height="96.8906" id="ATFormFactory" rx="3.5" ry="3.5" style="stroke:#181818;stroke-width:0.5;" width="332" x="1546.5" y="292"/><ellipse cx="1653.25" cy="308" fill="#ADD1B2" rx="11" ry="11" style="stroke:#181818;stroke-width:1.0;"/><path d="M1655.5938,303.6719 C1654.6563,303.2344 1654.0625,303.0938 1653.1875,303.0938 C1650.5625,303.0938 1648.5625,305.1719 1648.5625,307.8906 L1648.5625,309.0156 C1648.5625,311.5938 1650.6719,313.4844 1653.5625,313.4844 C1654.7813,313.4844 1655.9375,313.1875 1656.6875,312.6406 C1657.2656,312.2344 1657.5938,311.7813 1657.5938,311.3906 C1657.5938,310.9375 1657.2031,310.5469 1656.7344,310.5469 C1656.5156,310.5469 1656.3125,310.625 1656.125,310.8125 C1655.6719,311.2969 1655.6719,311.2969 1655.4844,311.3906 C1655.0625,311.6563 1654.375,311.7813 1653.6094,311.7813 C1651.5625,311.7813 1650.2656,310.6875 1650.2656,308.9844 L1650.2656,307.8906 C1650.2656,306.1094 1651.5156,304.7969 1653.25,304.7969 C1653.8281,304.7969 1654.4375,304.9531 1654.9063,305.2031 C1655.3906,305.4844 1655.5625,305.7031 1655.6563,306.1094 C1655.7188,306.5156 1655.75,306.6406 1655.8906,306.7656 C1656.0313,306.9063 1656.2656,307.0156 1656.4844,307.0156 C1656.75,307.0156 1657.0156,306.875 1657.1875,306.6563 C1657.2969,306.5 1657.3281,306.3125 1657.3281,305.8906 L1657.3281,304.4688 C1657.3281,304.0313 1657.3125,303.9063 1657.2188,303.75 C1657.0625,303.4844 1656.7813,303.3438 1656.4844,303.3438 C1656.1875,303.3438 1655.9844,303.4375 1655.7656,303.75 L1655.5938,303.6719 Z " fill="#000000"/><text fill="#000000" font-family="sans-serif" font-size="14" lengthAdjust="spacing" textLength="110" x="1673.75" y="312.8467">ATFormFactory</text><line style="stroke:#181818;stroke-width:0.5;" x1="1547.5" x2="1877.5" y1="324" y2="324"/><line style="stroke:#181818;stroke-width:0.5;" x1="1547.5" x2="1877.5" y1="332" y2="332"/><ellipse cx="1557.5" cy="345.6484" fill="#84BE84" rx="3" ry="3" style="stroke:#038048;stroke-width:1.0;"/><text fill="#000000" font-family="sans-serif" font-size="14" lengthAdjust="spacing" textLength="302" x="1566.5" y="348.9951">createIntegrationForm(): IntegrationForm</text><ellipse cx="1557.5" cy="361.9453" fill="#84BE84" rx="3" ry="3" style="stroke:#038048;stroke-width:1.0;"/><text fill="#000000" font-family="sans-serif" font-size="14" lengthAdjust="spacing" textLength="272" x="1566.5" y="365.292">createInterfaceForm(): InterfaceForm</text><ellipse cx="1557.5" cy="378.2422" fill="#84BE84" rx="3" ry="3" style="stroke:#038048;stroke-width:1.0;"/><text fill="#000000" font-family="sans-serif" font-size="14" lengthAdjust="spacing" textLength="306" x="1566.5" y="381.5889">createConnectionForm(): ConnectionForm</text></g><!--MD5=[423682f5ce4d96d10f62568505dc23af]
class SAPFormFactory--><g id="elem_SAPFormFactory"><rect codeLine="27" fill="#F1F1F1" height="96.8906" id="SAPFormFactory" rx="3.5" ry="3.5" style="stroke:#181818;stroke-width:0.5;" width="332" x="812.5" y="292"/><ellipse cx="914.75" cy="308" fill="#ADD1B2" rx="11" ry="11" style="stroke:#181818;stroke-width:1.0;"/><path d="M917.0938,303.6719 C916.1563,303.2344 915.5625,303.0938 914.6875,303.0938 C912.0625,303.0938 910.0625,305.1719 910.0625,307.8906 L910.0625,309.0156 C910.0625,311.5938 912.1719,313.4844 915.0625,313.4844 C916.2813,313.4844 917.4375,313.1875 918.1875,312.6406 C918.7656,312.2344 919.0938,311.7813 919.0938,311.3906 C919.0938,310.9375 918.7031,310.5469 918.2344,310.5469 C918.0156,310.5469 917.8125,310.625 917.625,310.8125 C917.1719,311.2969 917.1719,311.2969 916.9844,311.3906 C916.5625,311.6563 915.875,311.7813 915.1094,311.7813 C913.0625,311.7813 911.7656,310.6875 911.7656,308.9844 L911.7656,307.8906 C911.7656,306.1094 913.0156,304.7969 914.75,304.7969 C915.3281,304.7969 915.9375,304.9531 916.4063,305.2031 C916.8906,305.4844 917.0625,305.7031 917.1563,306.1094 C917.2188,306.5156 917.25,306.6406 917.3906,306.7656 C917.5313,306.9063 917.7656,307.0156 917.9844,307.0156 C918.25,307.0156 918.5156,306.875 918.6875,306.6563 C918.7969,306.5 918.8281,306.3125 918.8281,305.8906 L918.8281,304.4688 C918.8281,304.0313 918.8125,303.9063 918.7188,303.75 C918.5625,303.4844 918.2813,303.3438 917.9844,303.3438 C917.6875,303.3438 917.4844,303.4375 917.2656,303.75 L917.0938,303.6719 Z " fill="#000000"/><text fill="#000000" font-family="sans-serif" font-size="14" lengthAdjust="spacing" textLength="119" x="935.25" y="312.8467">SAPFormFactory</text><line style="stroke:#181818;stroke-width:0.5;" x1="813.5" x2="1143.5" y1="324" y2="324"/><line style="stroke:#181818;stroke-width:0.5;" x1="813.5" x2="1143.5" y1="332" y2="332"/><ellipse cx="823.5" cy="345.6484" fill="#84BE84" rx="3" ry="3" style="stroke:#038048;stroke-width:1.0;"/><text fill="#000000" font-family="sans-serif" font-size="14" lengthAdjust="spacing" textLength="302" x="832.5" y="348.9951">createIntegrationForm(): IntegrationForm</text><ellipse cx="823.5" cy="361.9453" fill="#84BE84" rx="3" ry="3" style="stroke:#038048;stroke-width:1.0;"/><text fill="#000000" font-family="sans-serif" font-size="14" lengthAdjust="spacing" textLength="272" x="832.5" y="365.292">createInterfaceForm(): InterfaceForm</text><ellipse cx="823.5" cy="378.2422" fill="#84BE84" rx="3" ry="3" style="stroke:#038048;stroke-width:1.0;"/><text fill="#000000" font-family="sans-serif" font-size="14" lengthAdjust="spacing" textLength="306" x="832.5" y="381.5889">createConnectionForm(): ConnectionForm</text></g><!--MD5=[06f6369a25b2c6710208b955f315b1b3]
class IntegrationForm--><g id="elem_IntegrationForm"><rect codeLine="41" fill="#F1F1F1" height="80.5938" id="IntegrationForm" rx="3.5" ry="3.5" style="stroke:#181818;stroke-width:0.5;" width="747" x="9" y="300"/><ellipse cx="320.75" cy="316" fill="#A9DCDF" rx="11" ry="11" style="stroke:#181818;stroke-width:1.0;"/><path d="M322.8281,317.8125 L323.2188,318.7969 L322.8281,318.7969 C322.375,318.7969 322.2656,318.8125 322.1094,318.9219 C321.8594,319.0781 321.7031,319.3594 321.7031,319.6563 C321.7031,319.9219 321.8438,320.1719 322.0625,320.3281 C322.2031,320.4531 322.4063,320.5 322.8281,320.5 L325.1875,320.5 C325.5469,320.5 325.7656,320.4688 325.9063,320.375 C326.1563,320.2344 326.3125,319.9375 326.3125,319.6563 C326.3125,319.375 326.1719,319.125 325.9531,318.9688 C325.7813,318.8281 325.625,318.7969 325.1563,318.7969 L321.7656,310.5938 L318.0938,310.5938 C317.6406,310.5938 317.5156,310.6094 317.3594,310.7031 C317.1094,310.875 316.9531,311.1563 316.9531,311.4375 C316.9531,311.7188 317.0938,311.9688 317.3125,312.1406 C317.4844,312.25 317.6563,312.2813 318.0938,312.2813 L319.1719,312.2813 L316.5313,318.7969 C316.1094,318.7969 315.9531,318.8125 315.7969,318.9219 C315.5469,319.0781 315.3906,319.3594 315.3906,319.6563 C315.3906,320.2188 315.7656,320.5 316.5156,320.5 L318.7813,320.5 C319.1406,320.5 319.3594,320.4688 319.4844,320.375 C319.75,320.2344 319.8906,319.9375 319.8906,319.6563 C319.8906,319.375 319.7656,319.125 319.5469,318.9531 C319.375,318.8281 319.2344,318.7969 318.7813,318.7969 L318.3906,318.7969 L318.7813,317.8125 L322.8281,317.8125 Z M322.125,316.1094 L319.4531,316.1094 L320.7969,312.8438 L322.125,316.1094 Z " fill="#000000"/><text fill="#000000" font-family="sans-serif" font-size="14" font-style="italic" lengthAdjust="spacing" textLength="115" x="341.25" y="320.8467">IntegrationForm</text><line style="stroke:#181818;stroke-width:0.5;" x1="10" x2="755" y1="332" y2="332"/><line style="stroke:#181818;stroke-width:0.5;" x1="10" x2="755" y1="340" y2="340"/><polygon fill="#FFFF44" points="20,348.6484,24,352.6484,20,356.6484,16,352.6484" style="stroke:#B38D22;stroke-width:1.0;"/><text fill="#000000" font-family="sans-serif" font-size="14" font-style="italic" lengthAdjust="spacing" textLength="721" x="29" y="356.9951">preprocessIntegrationInfoFormData(selectedIntegration: IntegrationDataType): IIntegrationFormData</text><polygon fill="#FFFF44" points="20,364.9453,24,368.9453,20,372.9453,16,368.9453" style="stroke:#B38D22;stroke-width:1.0;"/><text fill="#000000" font-family="sans-serif" font-size="14" font-style="italic" lengthAdjust="spacing" textLength="224" x="29" y="373.292">generateFormList(): FormItem[]</text></g><!--MD5=[e8bd804451361bdf2828103342a64f6e]
class WMIntegrationForm--><g id="elem_WMIntegrationForm"><rect codeLine="45" fill="#F1F1F1" height="48" id="WMIntegrationForm" rx="3.5" ry="3.5" style="stroke:#181818;stroke-width:0.5;" width="176" x="375.5" y="468"/><ellipse cx="390.5" cy="484" fill="#ADD1B2" rx="11" ry="11" style="stroke:#181818;stroke-width:1.0;"/><path d="M392.8438,479.6719 C391.9063,479.2344 391.3125,479.0938 390.4375,479.0938 C387.8125,479.0938 385.8125,481.1719 385.8125,483.8906 L385.8125,485.0156 C385.8125,487.5938 387.9219,489.4844 390.8125,489.4844 C392.0313,489.4844 393.1875,489.1875 393.9375,488.6406 C394.5156,488.2344 394.8438,487.7813 394.8438,487.3906 C394.8438,486.9375 394.4531,486.5469 393.9844,486.5469 C393.7656,486.5469 393.5625,486.625 393.375,486.8125 C392.9219,487.2969 392.9219,487.2969 392.7344,487.3906 C392.3125,487.6563 391.625,487.7813 390.8594,487.7813 C388.8125,487.7813 387.5156,486.6875 387.5156,484.9844 L387.5156,483.8906 C387.5156,482.1094 388.7656,480.7969 390.5,480.7969 C391.0781,480.7969 391.6875,480.9531 392.1563,481.2031 C392.6406,481.4844 392.8125,481.7031 392.9063,482.1094 C392.9688,482.5156 393,482.6406 393.1406,482.7656 C393.2813,482.9063 393.5156,483.0156 393.7344,483.0156 C394,483.0156 394.2656,482.875 394.4375,482.6563 C394.5469,482.5 394.5781,482.3125 394.5781,481.8906 L394.5781,480.4688 C394.5781,480.0313 394.5625,479.9063 394.4688,479.75 C394.3125,479.4844 394.0313,479.3438 393.7344,479.3438 C393.4375,479.3438 393.2344,479.4375 393.0156,479.75 L392.8438,479.6719 Z " fill="#000000"/><text fill="#000000" font-family="sans-serif" font-size="14" lengthAdjust="spacing" textLength="144" x="404.5" y="488.8467">WMIntegrationForm</text><line style="stroke:#181818;stroke-width:0.5;" x1="376.5" x2="550.5" y1="500" y2="500"/><line style="stroke:#181818;stroke-width:0.5;" x1="376.5" x2="550.5" y1="508" y2="508"/></g><!--MD5=[d9f1edd1f9f47598c5dc2c3be2fd2bed]
class ATIntegrationForm--><g id="elem_ATIntegrationForm"><rect codeLine="46" fill="#F1F1F1" height="48" id="ATIntegrationForm" rx="3.5" ry="3.5" style="stroke:#181818;stroke-width:0.5;" width="169" x="587" y="468"/><ellipse cx="602" cy="484" fill="#ADD1B2" rx="11" ry="11" style="stroke:#181818;stroke-width:1.0;"/><path d="M604.3438,479.6719 C603.4063,479.2344 602.8125,479.0938 601.9375,479.0938 C599.3125,479.0938 597.3125,481.1719 597.3125,483.8906 L597.3125,485.0156 C597.3125,487.5938 599.4219,489.4844 602.3125,489.4844 C603.5313,489.4844 604.6875,489.1875 605.4375,488.6406 C606.0156,488.2344 606.3438,487.7813 606.3438,487.3906 C606.3438,486.9375 605.9531,486.5469 605.4844,486.5469 C605.2656,486.5469 605.0625,486.625 604.875,486.8125 C604.4219,487.2969 604.4219,487.2969 604.2344,487.3906 C603.8125,487.6563 603.125,487.7813 602.3594,487.7813 C600.3125,487.7813 599.0156,486.6875 599.0156,484.9844 L599.0156,483.8906 C599.0156,482.1094 600.2656,480.7969 602,480.7969 C602.5781,480.7969 603.1875,480.9531 603.6563,481.2031 C604.1406,481.4844 604.3125,481.7031 604.4063,482.1094 C604.4688,482.5156 604.5,482.6406 604.6406,482.7656 C604.7813,482.9063 605.0156,483.0156 605.2344,483.0156 C605.5,483.0156 605.7656,482.875 605.9375,482.6563 C606.0469,482.5 606.0781,482.3125 606.0781,481.8906 L606.0781,480.4688 C606.0781,480.0313 606.0625,479.9063 605.9688,479.75 C605.8125,479.4844 605.5313,479.3438 605.2344,479.3438 C604.9375,479.3438 604.7344,479.4375 604.5156,479.75 L604.3438,479.6719 Z " fill="#000000"/><text fill="#000000" font-family="sans-serif" font-size="14" lengthAdjust="spacing" textLength="137" x="616" y="488.8467">ATIntegrationForm</text><line style="stroke:#181818;stroke-width:0.5;" x1="588" x2="755" y1="500" y2="500"/><line style="stroke:#181818;stroke-width:0.5;" x1="588" x2="755" y1="508" y2="508"/></g><!--MD5=[7ab41f4369bf0cae11db9c2512b021a1]
class SAPIntegrationForm--><g id="elem_SAPIntegrationForm"><rect codeLine="47" fill="#F1F1F1" height="48" id="SAPIntegrationForm" rx="3.5" ry="3.5" style="stroke:#181818;stroke-width:0.5;" width="178" x="162.5" y="468"/><ellipse cx="177.5" cy="484" fill="#ADD1B2" rx="11" ry="11" style="stroke:#181818;stroke-width:1.0;"/><path d="M179.8438,479.6719 C178.9063,479.2344 178.3125,479.0938 177.4375,479.0938 C174.8125,479.0938 172.8125,481.1719 172.8125,483.8906 L172.8125,485.0156 C172.8125,487.5938 174.9219,489.4844 177.8125,489.4844 C179.0313,489.4844 180.1875,489.1875 180.9375,488.6406 C181.5156,488.2344 181.8438,487.7813 181.8438,487.3906 C181.8438,486.9375 181.4531,486.5469 180.9844,486.5469 C180.7656,486.5469 180.5625,486.625 180.375,486.8125 C179.9219,487.2969 179.9219,487.2969 179.7344,487.3906 C179.3125,487.6563 178.625,487.7813 177.8594,487.7813 C175.8125,487.7813 174.5156,486.6875 174.5156,484.9844 L174.5156,483.8906 C174.5156,482.1094 175.7656,480.7969 177.5,480.7969 C178.0781,480.7969 178.6875,480.9531 179.1563,481.2031 C179.6406,481.4844 179.8125,481.7031 179.9063,482.1094 C179.9688,482.5156 180,482.6406 180.1406,482.7656 C180.2813,482.9063 180.5156,483.0156 180.7344,483.0156 C181,483.0156 181.2656,482.875 181.4375,482.6563 C181.5469,482.5 181.5781,482.3125 181.5781,481.8906 L181.5781,480.4688 C181.5781,480.0313 181.5625,479.9063 181.4688,479.75 C181.3125,479.4844 181.0313,479.3438 180.7344,479.3438 C180.4375,479.3438 180.2344,479.4375 180.0156,479.75 L179.8438,479.6719 Z " fill="#000000"/><text fill="#000000" font-family="sans-serif" font-size="14" lengthAdjust="spacing" textLength="146" x="191.5" y="488.8467">SAPIntegrationForm</text><line style="stroke:#181818;stroke-width:0.5;" x1="163.5" x2="339.5" y1="500" y2="500"/><line style="stroke:#181818;stroke-width:0.5;" x1="163.5" x2="339.5" y1="508" y2="508"/></g><!--MD5=[d1091201e13a12b11a3cb5535f23e99a]
class InterfaceForm--><g id="elem_InterfaceForm"><rect codeLine="50" fill="#F1F1F1" height="48" id="InterfaceForm" rx="3.5" ry="3.5" style="stroke:#181818;stroke-width:0.5;" width="133" x="2048" y="316.5"/><ellipse cx="2063" cy="332.5" fill="#A9DCDF" rx="11" ry="11" style="stroke:#181818;stroke-width:1.0;"/><path d="M2065.0781,334.3125 L2065.4688,335.2969 L2065.0781,335.2969 C2064.625,335.2969 2064.5156,335.3125 2064.3594,335.4219 C2064.1094,335.5781 2063.9531,335.8594 2063.9531,336.1563 C2063.9531,336.4219 2064.0938,336.6719 2064.3125,336.8281 C2064.4531,336.9531 2064.6563,337 2065.0781,337 L2067.4375,337 C2067.7969,337 2068.0156,336.9688 2068.1563,336.875 C2068.4063,336.7344 2068.5625,336.4375 2068.5625,336.1563 C2068.5625,335.875 2068.4219,335.625 2068.2031,335.4688 C2068.0313,335.3281 2067.875,335.2969 2067.4063,335.2969 L2064.0156,327.0938 L2060.3438,327.0938 C2059.8906,327.0938 2059.7656,327.1094 2059.6094,327.2031 C2059.3594,327.375 2059.2031,327.6563 2059.2031,327.9375 C2059.2031,328.2188 2059.3438,328.4688 2059.5625,328.6406 C2059.7344,328.75 2059.9063,328.7813 2060.3438,328.7813 L2061.4219,328.7813 L2058.7813,335.2969 C2058.3594,335.2969 2058.2031,335.3125 2058.0469,335.4219 C2057.7969,335.5781 2057.6406,335.8594 2057.6406,336.1563 C2057.6406,336.7188 2058.0156,337 2058.7656,337 L2061.0313,337 C2061.3906,337 2061.6094,336.9688 2061.7344,336.875 C2062,336.7344 2062.1406,336.4375 2062.1406,336.1563 C2062.1406,335.875 2062.0156,335.625 2061.7969,335.4531 C2061.625,335.3281 2061.4844,335.2969 2061.0313,335.2969 L2060.6406,335.2969 L2061.0313,334.3125 L2065.0781,334.3125 Z M2064.375,332.6094 L2061.7031,332.6094 L2063.0469,329.3438 L2064.375,332.6094 Z " fill="#000000"/><text fill="#000000" font-family="sans-serif" font-size="14" font-style="italic" lengthAdjust="spacing" textLength="101" x="2077" y="337.3467">InterfaceForm</text><line style="stroke:#181818;stroke-width:0.5;" x1="2049" x2="2180" y1="348.5" y2="348.5"/><line style="stroke:#181818;stroke-width:0.5;" x1="2049" x2="2180" y1="356.5" y2="356.5"/></g><!--MD5=[896b2df051cac3ce100396bb8524dd85]
class WMInterfaceForm--><g id="elem_WMInterfaceForm"><rect codeLine="51" fill="#F1F1F1" height="48" id="WMInterfaceForm" rx="3.5" ry="3.5" style="stroke:#181818;stroke-width:0.5;" width="161" x="2133" y="468"/><ellipse cx="2148" cy="484" fill="#ADD1B2" rx="11" ry="11" style="stroke:#181818;stroke-width:1.0;"/><path d="M2150.3438,479.6719 C2149.4063,479.2344 2148.8125,479.0938 2147.9375,479.0938 C2145.3125,479.0938 2143.3125,481.1719 2143.3125,483.8906 L2143.3125,485.0156 C2143.3125,487.5938 2145.4219,489.4844 2148.3125,489.4844 C2149.5313,489.4844 2150.6875,489.1875 2151.4375,488.6406 C2152.0156,488.2344 2152.3438,487.7813 2152.3438,487.3906 C2152.3438,486.9375 2151.9531,486.5469 2151.4844,486.5469 C2151.2656,486.5469 2151.0625,486.625 2150.875,486.8125 C2150.4219,487.2969 2150.4219,487.2969 2150.2344,487.3906 C2149.8125,487.6563 2149.125,487.7813 2148.3594,487.7813 C2146.3125,487.7813 2145.0156,486.6875 2145.0156,484.9844 L2145.0156,483.8906 C2145.0156,482.1094 2146.2656,480.7969 2148,480.7969 C2148.5781,480.7969 2149.1875,480.9531 2149.6563,481.2031 C2150.1406,481.4844 2150.3125,481.7031 2150.4063,482.1094 C2150.4688,482.5156 2150.5,482.6406 2150.6406,482.7656 C2150.7813,482.9063 2151.0156,483.0156 2151.2344,483.0156 C2151.5,483.0156 2151.7656,482.875 2151.9375,482.6563 C2152.0469,482.5 2152.0781,482.3125 2152.0781,481.8906 L2152.0781,480.4688 C2152.0781,480.0313 2152.0625,479.9063 2151.9688,479.75 C2151.8125,479.4844 2151.5313,479.3438 2151.2344,479.3438 C2150.9375,479.3438 2150.7344,479.4375 2150.5156,479.75 L2150.3438,479.6719 Z " fill="#000000"/><text fill="#000000" font-family="sans-serif" font-size="14" lengthAdjust="spacing" textLength="129" x="2162" y="488.8467">WMInterfaceForm</text><line style="stroke:#181818;stroke-width:0.5;" x1="2134" x2="2293" y1="500" y2="500"/><line style="stroke:#181818;stroke-width:0.5;" x1="2134" x2="2293" y1="508" y2="508"/></g><!--MD5=[98b043734a15c6b4cd2db64aa333a0fb]
class ATInterfaceForm--><g id="elem_ATInterfaceForm"><rect codeLine="52" fill="#F1F1F1" height="48" id="ATInterfaceForm" rx="3.5" ry="3.5" style="stroke:#181818;stroke-width:0.5;" width="154" x="2329.5" y="468"/><ellipse cx="2344.5" cy="484" fill="#ADD1B2" rx="11" ry="11" style="stroke:#181818;stroke-width:1.0;"/><path d="M2346.8438,479.6719 C2345.9063,479.2344 2345.3125,479.0938 2344.4375,479.0938 C2341.8125,479.0938 2339.8125,481.1719 2339.8125,483.8906 L2339.8125,485.0156 C2339.8125,487.5938 2341.9219,489.4844 2344.8125,489.4844 C2346.0313,489.4844 2347.1875,489.1875 2347.9375,488.6406 C2348.5156,488.2344 2348.8438,487.7813 2348.8438,487.3906 C2348.8438,486.9375 2348.4531,486.5469 2347.9844,486.5469 C2347.7656,486.5469 2347.5625,486.625 2347.375,486.8125 C2346.9219,487.2969 2346.9219,487.2969 2346.7344,487.3906 C2346.3125,487.6563 2345.625,487.7813 2344.8594,487.7813 C2342.8125,487.7813 2341.5156,486.6875 2341.5156,484.9844 L2341.5156,483.8906 C2341.5156,482.1094 2342.7656,480.7969 2344.5,480.7969 C2345.0781,480.7969 2345.6875,480.9531 2346.1563,481.2031 C2346.6406,481.4844 2346.8125,481.7031 2346.9063,482.1094 C2346.9688,482.5156 2347,482.6406 2347.1406,482.7656 C2347.2813,482.9063 2347.5156,483.0156 2347.7344,483.0156 C2348,483.0156 2348.2656,482.875 2348.4375,482.6563 C2348.5469,482.5 2348.5781,482.3125 2348.5781,481.8906 L2348.5781,480.4688 C2348.5781,480.0313 2348.5625,479.9063 2348.4688,479.75 C2348.3125,479.4844 2348.0313,479.3438 2347.7344,479.3438 C2347.4375,479.3438 2347.2344,479.4375 2347.0156,479.75 L2346.8438,479.6719 Z " fill="#000000"/><text fill="#000000" font-family="sans-serif" font-size="14" lengthAdjust="spacing" textLength="122" x="2358.5" y="488.8467">ATInterfaceForm</text><line style="stroke:#181818;stroke-width:0.5;" x1="2330.5" x2="2482.5" y1="500" y2="500"/><line style="stroke:#181818;stroke-width:0.5;" x1="2330.5" x2="2482.5" y1="508" y2="508"/></g><!--MD5=[1d0f6a6be68758a725dd512697eed99d]
class SAPInterfaceForm--><g id="elem_SAPInterfaceForm"><rect codeLine="53" fill="#F1F1F1" height="48" id="SAPInterfaceForm" rx="3.5" ry="3.5" style="stroke:#181818;stroke-width:0.5;" width="163" x="1935" y="468"/><ellipse cx="1950" cy="484" fill="#ADD1B2" rx="11" ry="11" style="stroke:#181818;stroke-width:1.0;"/><path d="M1952.3438,479.6719 C1951.4063,479.2344 1950.8125,479.0938 1949.9375,479.0938 C1947.3125,479.0938 1945.3125,481.1719 1945.3125,483.8906 L1945.3125,485.0156 C1945.3125,487.5938 1947.4219,489.4844 1950.3125,489.4844 C1951.5313,489.4844 1952.6875,489.1875 1953.4375,488.6406 C1954.0156,488.2344 1954.3438,487.7813 1954.3438,487.3906 C1954.3438,486.9375 1953.9531,486.5469 1953.4844,486.5469 C1953.2656,486.5469 1953.0625,486.625 1952.875,486.8125 C1952.4219,487.2969 1952.4219,487.2969 1952.2344,487.3906 C1951.8125,487.6563 1951.125,487.7813 1950.3594,487.7813 C1948.3125,487.7813 1947.0156,486.6875 1947.0156,484.9844 L1947.0156,483.8906 C1947.0156,482.1094 1948.2656,480.7969 1950,480.7969 C1950.5781,480.7969 1951.1875,480.9531 1951.6563,481.2031 C1952.1406,481.4844 1952.3125,481.7031 1952.4063,482.1094 C1952.4688,482.5156 1952.5,482.6406 1952.6406,482.7656 C1952.7813,482.9063 1953.0156,483.0156 1953.2344,483.0156 C1953.5,483.0156 1953.7656,482.875 1953.9375,482.6563 C1954.0469,482.5 1954.0781,482.3125 1954.0781,481.8906 L1954.0781,480.4688 C1954.0781,480.0313 1954.0625,479.9063 1953.9688,479.75 C1953.8125,479.4844 1953.5313,479.3438 1953.2344,479.3438 C1952.9375,479.3438 1952.7344,479.4375 1952.5156,479.75 L1952.3438,479.6719 Z " fill="#000000"/><text fill="#000000" font-family="sans-serif" font-size="14" lengthAdjust="spacing" textLength="131" x="1964" y="488.8467">SAPInterfaceForm</text><line style="stroke:#181818;stroke-width:0.5;" x1="1936" x2="2097" y1="500" y2="500"/><line style="stroke:#181818;stroke-width:0.5;" x1="1936" x2="2097" y1="508" y2="508"/></g><!--MD5=[9af42464beca7ad465fc2bb030e8f363]
class ConnectionForm--><g id="elem_ConnectionForm"><rect codeLine="56" fill="#F1F1F1" height="48" id="ConnectionForm" rx="3.5" ry="3.5" style="stroke:#181818;stroke-width:0.5;" width="150" x="2759.5" y="316.5"/><ellipse cx="2774.5" cy="332.5" fill="#A9DCDF" rx="11" ry="11" style="stroke:#181818;stroke-width:1.0;"/><path d="M2776.5781,334.3125 L2776.9688,335.2969 L2776.5781,335.2969 C2776.125,335.2969 2776.0156,335.3125 2775.8594,335.4219 C2775.6094,335.5781 2775.4531,335.8594 2775.4531,336.1563 C2775.4531,336.4219 2775.5938,336.6719 2775.8125,336.8281 C2775.9531,336.9531 2776.1563,337 2776.5781,337 L2778.9375,337 C2779.2969,337 2779.5156,336.9688 2779.6563,336.875 C2779.9063,336.7344 2780.0625,336.4375 2780.0625,336.1563 C2780.0625,335.875 2779.9219,335.625 2779.7031,335.4688 C2779.5313,335.3281 2779.375,335.2969 2778.9063,335.2969 L2775.5156,327.0938 L2771.8438,327.0938 C2771.3906,327.0938 2771.2656,327.1094 2771.1094,327.2031 C2770.8594,327.375 2770.7031,327.6563 2770.7031,327.9375 C2770.7031,328.2188 2770.8438,328.4688 2771.0625,328.6406 C2771.2344,328.75 2771.4063,328.7813 2771.8438,328.7813 L2772.9219,328.7813 L2770.2813,335.2969 C2769.8594,335.2969 2769.7031,335.3125 2769.5469,335.4219 C2769.2969,335.5781 2769.1406,335.8594 2769.1406,336.1563 C2769.1406,336.7188 2769.5156,337 2770.2656,337 L2772.5313,337 C2772.8906,337 2773.1094,336.9688 2773.2344,336.875 C2773.5,336.7344 2773.6406,336.4375 2773.6406,336.1563 C2773.6406,335.875 2773.5156,335.625 2773.2969,335.4531 C2773.125,335.3281 2772.9844,335.2969 2772.5313,335.2969 L2772.1406,335.2969 L2772.5313,334.3125 L2776.5781,334.3125 Z M2775.875,332.6094 L2773.2031,332.6094 L2774.5469,329.3438 L2775.875,332.6094 Z " fill="#000000"/><text fill="#000000" font-family="sans-serif" font-size="14" font-style="italic" lengthAdjust="spacing" textLength="118" x="2788.5" y="337.3467">ConnectionForm</text><line style="stroke:#181818;stroke-width:0.5;" x1="2760.5" x2="2908.5" y1="348.5" y2="348.5"/><line style="stroke:#181818;stroke-width:0.5;" x1="2760.5" x2="2908.5" y1="356.5" y2="356.5"/></g><!--MD5=[d5d6cb2f266241dc71a59b834b468050]
class WMConnectionForm--><g id="elem_WMConnectionForm"><rect codeLine="57" fill="#F1F1F1" height="48" id="WMConnectionForm" rx="3.5" ry="3.5" style="stroke:#181818;stroke-width:0.5;" width="178" x="2754.5" y="468"/><ellipse cx="2769.5" cy="484" fill="#ADD1B2" rx="11" ry="11" style="stroke:#181818;stroke-width:1.0;"/><path d="M2771.8438,479.6719 C2770.9063,479.2344 2770.3125,479.0938 2769.4375,479.0938 C2766.8125,479.0938 2764.8125,481.1719 2764.8125,483.8906 L2764.8125,485.0156 C2764.8125,487.5938 2766.9219,489.4844 2769.8125,489.4844 C2771.0313,489.4844 2772.1875,489.1875 2772.9375,488.6406 C2773.5156,488.2344 2773.8438,487.7813 2773.8438,487.3906 C2773.8438,486.9375 2773.4531,486.5469 2772.9844,486.5469 C2772.7656,486.5469 2772.5625,486.625 2772.375,486.8125 C2771.9219,487.2969 2771.9219,487.2969 2771.7344,487.3906 C2771.3125,487.6563 2770.625,487.7813 2769.8594,487.7813 C2767.8125,487.7813 2766.5156,486.6875 2766.5156,484.9844 L2766.5156,483.8906 C2766.5156,482.1094 2767.7656,480.7969 2769.5,480.7969 C2770.0781,480.7969 2770.6875,480.9531 2771.1563,481.2031 C2771.6406,481.4844 2771.8125,481.7031 2771.9063,482.1094 C2771.9688,482.5156 2772,482.6406 2772.1406,482.7656 C2772.2813,482.9063 2772.5156,483.0156 2772.7344,483.0156 C2773,483.0156 2773.2656,482.875 2773.4375,482.6563 C2773.5469,482.5 2773.5781,482.3125 2773.5781,481.8906 L2773.5781,480.4688 C2773.5781,480.0313 2773.5625,479.9063 2773.4688,479.75 C2773.3125,479.4844 2773.0313,479.3438 2772.7344,479.3438 C2772.4375,479.3438 2772.2344,479.4375 2772.0156,479.75 L2771.8438,479.6719 Z " fill="#000000"/><text fill="#000000" font-family="sans-serif" font-size="14" lengthAdjust="spacing" textLength="146" x="2783.5" y="488.8467">WMConnectionForm</text><line style="stroke:#181818;stroke-width:0.5;" x1="2755.5" x2="2931.5" y1="500" y2="500"/><line style="stroke:#181818;stroke-width:0.5;" x1="2755.5" x2="2931.5" y1="508" y2="508"/></g><!--MD5=[838d21c9b22cd90913621a584972295b]
class ATConnectionForm--><g id="elem_ATConnectionForm"><rect codeLine="58" fill="#F1F1F1" height="48" id="ATConnectionForm" rx="3.5" ry="3.5" style="stroke:#181818;stroke-width:0.5;" width="171" x="2968" y="468"/><ellipse cx="2983" cy="484" fill="#ADD1B2" rx="11" ry="11" style="stroke:#181818;stroke-width:1.0;"/><path d="M2985.3438,479.6719 C2984.4063,479.2344 2983.8125,479.0938 2982.9375,479.0938 C2980.3125,479.0938 2978.3125,481.1719 2978.3125,483.8906 L2978.3125,485.0156 C2978.3125,487.5938 2980.4219,489.4844 2983.3125,489.4844 C2984.5313,489.4844 2985.6875,489.1875 2986.4375,488.6406 C2987.0156,488.2344 2987.3438,487.7813 2987.3438,487.3906 C2987.3438,486.9375 2986.9531,486.5469 2986.4844,486.5469 C2986.2656,486.5469 2986.0625,486.625 2985.875,486.8125 C2985.4219,487.2969 2985.4219,487.2969 2985.2344,487.3906 C2984.8125,487.6563 2984.125,487.7813 2983.3594,487.7813 C2981.3125,487.7813 2980.0156,486.6875 2980.0156,484.9844 L2980.0156,483.8906 C2980.0156,482.1094 2981.2656,480.7969 2983,480.7969 C2983.5781,480.7969 2984.1875,480.9531 2984.6563,481.2031 C2985.1406,481.4844 2985.3125,481.7031 2985.4063,482.1094 C2985.4688,482.5156 2985.5,482.6406 2985.6406,482.7656 C2985.7813,482.9063 2986.0156,483.0156 2986.2344,483.0156 C2986.5,483.0156 2986.7656,482.875 2986.9375,482.6563 C2987.0469,482.5 2987.0781,482.3125 2987.0781,481.8906 L2987.0781,480.4688 C2987.0781,480.0313 2987.0625,479.9063 2986.9688,479.75 C2986.8125,479.4844 2986.5313,479.3438 2986.2344,479.3438 C2985.9375,479.3438 2985.7344,479.4375 2985.5156,479.75 L2985.3438,479.6719 Z " fill="#000000"/><text fill="#000000" font-family="sans-serif" font-size="14" lengthAdjust="spacing" textLength="139" x="2997" y="488.8467">ATConnectionForm</text><line style="stroke:#181818;stroke-width:0.5;" x1="2969" x2="3138" y1="500" y2="500"/><line style="stroke:#181818;stroke-width:0.5;" x1="2969" x2="3138" y1="508" y2="508"/></g><!--MD5=[57d648688bcde94d34cc8eaf67789c90]
class SAPConnectionForm--><g id="elem_SAPConnectionForm"><rect codeLine="59" fill="#F1F1F1" height="48" id="SAPConnectionForm" rx="3.5" ry="3.5" style="stroke:#181818;stroke-width:0.5;" width="180" x="2539.5" y="468"/><ellipse cx="2554.5" cy="484" fill="#ADD1B2" rx="11" ry="11" style="stroke:#181818;stroke-width:1.0;"/><path d="M2556.8438,479.6719 C2555.9063,479.2344 2555.3125,479.0938 2554.4375,479.0938 C2551.8125,479.0938 2549.8125,481.1719 2549.8125,483.8906 L2549.8125,485.0156 C2549.8125,487.5938 2551.9219,489.4844 2554.8125,489.4844 C2556.0313,489.4844 2557.1875,489.1875 2557.9375,488.6406 C2558.5156,488.2344 2558.8438,487.7813 2558.8438,487.3906 C2558.8438,486.9375 2558.4531,486.5469 2557.9844,486.5469 C2557.7656,486.5469 2557.5625,486.625 2557.375,486.8125 C2556.9219,487.2969 2556.9219,487.2969 2556.7344,487.3906 C2556.3125,487.6563 2555.625,487.7813 2554.8594,487.7813 C2552.8125,487.7813 2551.5156,486.6875 2551.5156,484.9844 L2551.5156,483.8906 C2551.5156,482.1094 2552.7656,480.7969 2554.5,480.7969 C2555.0781,480.7969 2555.6875,480.9531 2556.1563,481.2031 C2556.6406,481.4844 2556.8125,481.7031 2556.9063,482.1094 C2556.9688,482.5156 2557,482.6406 2557.1406,482.7656 C2557.2813,482.9063 2557.5156,483.0156 2557.7344,483.0156 C2558,483.0156 2558.2656,482.875 2558.4375,482.6563 C2558.5469,482.5 2558.5781,482.3125 2558.5781,481.8906 L2558.5781,480.4688 C2558.5781,480.0313 2558.5625,479.9063 2558.4688,479.75 C2558.3125,479.4844 2558.0313,479.3438 2557.7344,479.3438 C2557.4375,479.3438 2557.2344,479.4375 2557.0156,479.75 L2556.8438,479.6719 Z " fill="#000000"/><text fill="#000000" font-family="sans-serif" font-size="14" lengthAdjust="spacing" textLength="148" x="2568.5" y="488.8467">SAPConnectionForm</text><line style="stroke:#181818;stroke-width:0.5;" x1="2540.5" x2="2718.5" y1="500" y2="500"/><line style="stroke:#181818;stroke-width:0.5;" x1="2540.5" x2="2718.5" y1="508" y2="508"/></g><!--MD5=[d70b4ba1fa94ecf19591ab9d321b9188]
class ReactNode--><g id="elem_ReactNode"><rect codeLine="2" fill="#F1F1F1" height="64.2969" id="ReactNode" rx="3.5" ry="3.5" style="stroke:#181818;stroke-width:0.5;" width="111" x="1464" y="7"/><ellipse cx="1479" cy="23" fill="#ADD1B2" rx="11" ry="11" style="stroke:#181818;stroke-width:1.0;"/><path d="M1481.3438,18.6719 C1480.4063,18.2344 1479.8125,18.0938 1478.9375,18.0938 C1476.3125,18.0938 1474.3125,20.1719 1474.3125,22.8906 L1474.3125,24.0156 C1474.3125,26.5938 1476.4219,28.4844 1479.3125,28.4844 C1480.5313,28.4844 1481.6875,28.1875 1482.4375,27.6406 C1483.0156,27.2344 1483.3438,26.7813 1483.3438,26.3906 C1483.3438,25.9375 1482.9531,25.5469 1482.4844,25.5469 C1482.2656,25.5469 1482.0625,25.625 1481.875,25.8125 C1481.4219,26.2969 1481.4219,26.2969 1481.2344,26.3906 C1480.8125,26.6563 1480.125,26.7813 1479.3594,26.7813 C1477.3125,26.7813 1476.0156,25.6875 1476.0156,23.9844 L1476.0156,22.8906 C1476.0156,21.1094 1477.2656,19.7969 1479,19.7969 C1479.5781,19.7969 1480.1875,19.9531 1480.6563,20.2031 C1481.1406,20.4844 1481.3125,20.7031 1481.4063,21.1094 C1481.4688,21.5156 1481.5,21.6406 1481.6406,21.7656 C1481.7813,21.9063 1482.0156,22.0156 1482.2344,22.0156 C1482.5,22.0156 1482.7656,21.875 1482.9375,21.6563 C1483.0469,21.5 1483.0781,21.3125 1483.0781,20.8906 L1483.0781,19.4688 C1483.0781,19.0313 1483.0625,18.9063 1482.9688,18.75 C1482.8125,18.4844 1482.5313,18.3438 1482.2344,18.3438 C1481.9375,18.3438 1481.7344,18.4375 1481.5156,18.75 L1481.3438,18.6719 Z " fill="#000000"/><text fill="#000000" font-family="sans-serif" font-size="14" lengthAdjust="spacing" textLength="79" x="1493" y="27.8467">ReactNode</text><line style="stroke:#181818;stroke-width:0.5;" x1="1465" x2="1574" y1="39" y2="39"/><line style="stroke:#181818;stroke-width:0.5;" x1="1465" x2="1574" y1="47" y2="47"/><ellipse cx="1475" cy="60.6484" fill="#84BE84" rx="3" ry="3" style="stroke:#038048;stroke-width:1.0;"/><text fill="#000000" font-family="sans-serif" font-size="14" lengthAdjust="spacing" textLength="58" x="1484" y="63.9951">render()</text></g><!--MD5=[21db92560aa5d404ef6e7917bc22a199]
class EditPartner--><g id="elem_EditPartner"><rect codeLine="5" fill="#F1F1F1" height="80.5938" id="EditPartner" rx="3.5" ry="3.5" style="stroke:#181818;stroke-width:0.5;" width="271" x="509" y="142"/><ellipse cx="598.75" cy="158" fill="#ADD1B2" rx="11" ry="11" style="stroke:#181818;stroke-width:1.0;"/><path d="M601.0938,153.6719 C600.1563,153.2344 599.5625,153.0938 598.6875,153.0938 C596.0625,153.0938 594.0625,155.1719 594.0625,157.8906 L594.0625,159.0156 C594.0625,161.5938 596.1719,163.4844 599.0625,163.4844 C600.2813,163.4844 601.4375,163.1875 602.1875,162.6406 C602.7656,162.2344 603.0938,161.7813 603.0938,161.3906 C603.0938,160.9375 602.7031,160.5469 602.2344,160.5469 C602.0156,160.5469 601.8125,160.625 601.625,160.8125 C601.1719,161.2969 601.1719,161.2969 600.9844,161.3906 C600.5625,161.6563 599.875,161.7813 599.1094,161.7813 C597.0625,161.7813 595.7656,160.6875 595.7656,158.9844 L595.7656,157.8906 C595.7656,156.1094 597.0156,154.7969 598.75,154.7969 C599.3281,154.7969 599.9375,154.9531 600.4063,155.2031 C600.8906,155.4844 601.0625,155.7031 601.1563,156.1094 C601.2188,156.5156 601.25,156.6406 601.3906,156.7656 C601.5313,156.9063 601.7656,157.0156 601.9844,157.0156 C602.25,157.0156 602.5156,156.875 602.6875,156.6563 C602.7969,156.5 602.8281,156.3125 602.8281,155.8906 L602.8281,154.4688 C602.8281,154.0313 602.8125,153.9063 602.7188,153.75 C602.5625,153.4844 602.2813,153.3438 601.9844,153.3438 C601.6875,153.3438 601.4844,153.4375 601.2656,153.75 L601.0938,153.6719 Z " fill="#000000"/><text fill="#000000" font-family="sans-serif" font-size="14" lengthAdjust="spacing" textLength="83" x="619.25" y="162.8467">EditPartner</text><line style="stroke:#181818;stroke-width:0.5;" x1="510" x2="779" y1="174" y2="174"/><rect fill="none" height="6" style="stroke:#C82930;stroke-width:1.0;" width="6" x="517" y="184.6484"/><text fill="#000000" font-family="sans-serif" font-size="14" lengthAdjust="spacing" textLength="189" x="529" y="190.9951">formFactory: FormFactory</text><line style="stroke:#181818;stroke-width:0.5;" x1="510" x2="779" y1="198.2969" y2="198.2969"/><ellipse cx="520" cy="211.9453" fill="#84BE84" rx="3" ry="3" style="stroke:#038048;stroke-width:1.0;"/><text fill="#000000" font-family="sans-serif" font-size="14" lengthAdjust="spacing" textLength="245" x="529" y="215.292">EditPartner(factory: FormFactory)</text></g><!--MD5=[d94a8cd029bfc0194b29eb7ddbc6b65d]
class DraftableForm--><g id="elem_DraftableForm"><rect codeLine="34" fill="#F1F1F1" height="96.8906" id="DraftableForm" rx="3.5" ry="3.5" style="stroke:#181818;stroke-width:0.5;" width="163" x="1972" y="134"/><ellipse cx="1999.15" cy="150" fill="#A9DCDF" rx="11" ry="11" style="stroke:#181818;stroke-width:1.0;"/><path d="M2001.2281,151.8125 L2001.6188,152.7969 L2001.2281,152.7969 C2000.775,152.7969 2000.6656,152.8125 2000.5094,152.9219 C2000.2594,153.0781 2000.1031,153.3594 2000.1031,153.6563 C2000.1031,153.9219 2000.2438,154.1719 2000.4625,154.3281 C2000.6031,154.4531 2000.8063,154.5 2001.2281,154.5 L2003.5875,154.5 C2003.9469,154.5 2004.1656,154.4688 2004.3063,154.375 C2004.5563,154.2344 2004.7125,153.9375 2004.7125,153.6563 C2004.7125,153.375 2004.5719,153.125 2004.3531,152.9688 C2004.1813,152.8281 2004.025,152.7969 2003.5563,152.7969 L2000.1656,144.5938 L1996.4938,144.5938 C1996.0406,144.5938 1995.9156,144.6094 1995.7594,144.7031 C1995.5094,144.875 1995.3531,145.1563 1995.3531,145.4375 C1995.3531,145.7188 1995.4938,145.9688 1995.7125,146.1406 C1995.8844,146.25 1996.0563,146.2813 1996.4938,146.2813 L1997.5719,146.2813 L1994.9313,152.7969 C1994.5094,152.7969 1994.3531,152.8125 1994.1969,152.9219 C1993.9469,153.0781 1993.7906,153.3594 1993.7906,153.6563 C1993.7906,154.2188 1994.1656,154.5 1994.9156,154.5 L1997.1813,154.5 C1997.5406,154.5 1997.7594,154.4688 1997.8844,154.375 C1998.15,154.2344 1998.2906,153.9375 1998.2906,153.6563 C1998.2906,153.375 1998.1656,153.125 1997.9469,152.9531 C1997.775,152.8281 1997.6344,152.7969 1997.1813,152.7969 L1996.7906,152.7969 L1997.1813,151.8125 L2001.2281,151.8125 Z M2000.525,150.1094 L1997.8531,150.1094 L1999.1969,146.8438 L2000.525,150.1094 Z " fill="#000000"/><text fill="#000000" font-family="sans-serif" font-size="14" font-style="italic" lengthAdjust="spacing" textLength="104" x="2015.85" y="154.8467">DraftableForm</text><line style="stroke:#181818;stroke-width:0.5;" x1="1973" x2="2134" y1="166" y2="166"/><line style="stroke:#181818;stroke-width:0.5;" x1="1973" x2="2134" y1="174" y2="174"/><ellipse cx="1983" cy="187.6484" fill="#84BE84" rx="3" ry="3" style="stroke:#038048;stroke-width:1.0;"/><text fill="#000000" font-family="sans-serif" font-size="14" lengthAdjust="spacing" textLength="80" x="1992" y="190.9951">saveDraft()</text><ellipse cx="1983" cy="203.9453" fill="#84BE84" rx="3" ry="3" style="stroke:#038048;stroke-width:1.0;"/><text fill="#000000" font-family="sans-serif" font-size="14" lengthAdjust="spacing" textLength="80" x="1992" y="207.292">readDraft()</text><ellipse cx="1983" cy="220.2422" fill="#84BE84" rx="3" ry="3" style="stroke:#038048;stroke-width:1.0;"/><text fill="#000000" font-family="sans-serif" font-size="14" font-style="italic" lengthAdjust="spacing" textLength="137" x="1992" y="223.5889">generateDraftKey()</text></g><!--MD5=[b39d6d8e81be1f6ce7c22f9dd72b7146]
reverse link ReactNode to EditPartner--><g id="link_ReactNode_EditPartner"><path d="M1443.48,44.06 C1283.5,53.143 916.878,76.93 796.5,110 C769.082,117.532 740.501,129.698 715.619,141.876 " fill="none" id="ReactNode-backto-EditPartner" style="stroke:#454645;stroke-width:1.0;"/><polygon fill="none" points="1443.38,37.055,1463.74,42.926,1444.17,51.033,1443.38,37.055" style="stroke:#454645;stroke-width:1.0;"/></g><!--MD5=[e9a17021c67393937e555b5d60cd66b1]
reverse link FormFactory to WMFormFactory--><g id="link_FormFactory_WMFormFactory"><path d="M1247.47,245.105 C1263.63,260.658 1280.72,277.123 1296.04,291.87 " fill="none" id="FormFactory-backto-WMFormFactory" style="stroke:#454645;stroke-width:1.0;stroke-dasharray:7.0,7.0;"/><polygon fill="none" points="1242.54,250.068,1232.99,231.153,1252.25,239.983,1242.54,250.068" style="stroke:#454645;stroke-width:1.0;"/></g><!--MD5=[de994ff78e39ebe60af8db9203346bc6]
reverse link FormFactory to ATFormFactory--><g id="link_FormFactory_ATFormFactory"><path d="M1369.18,230.715 C1420.96,244.579 1477.11,260.263 1528.5,276 C1544.66,280.947 1561.52,286.384 1578.2,291.931 " fill="none" id="FormFactory-backto-ATFormFactory" style="stroke:#454645;stroke-width:1.0;stroke-dasharray:7.0,7.0;"/><polygon fill="none" points="1367.09,237.404,1349.57,225.495,1370.7,223.875,1367.09,237.404" style="stroke:#454645;stroke-width:1.0;"/></g><!--MD5=[04499863f9686ca8872c256d32842920]
reverse link FormFactory to SAPFormFactory--><g id="link_FormFactory_SAPFormFactory"><path d="M1104.73,243.442 C1083.65,259.48 1061.16,276.596 1041.09,291.87 " fill="none" id="FormFactory-backto-SAPFormFactory" style="stroke:#454645;stroke-width:1.0;stroke-dasharray:7.0,7.0;"/><polygon fill="none" points="1100.72,237.694,1120.88,231.153,1109.2,248.835,1100.72,237.694" style="stroke:#454645;stroke-width:1.0;"/></g><!--MD5=[7141f2c3a3ba2c28bf4789619100ed05]
reverse link ReactNode to DraftableForm--><g id="link_ReactNode_DraftableForm"><path d="M1595.06,48.728 C1671.72,58.826 1793.19,78.264 1894.5,110 C1920.21,118.052 1947.26,129.148 1971.61,140.197 " fill="none" id="ReactNode-backto-DraftableForm" style="stroke:#454645;stroke-width:1.0;"/><polygon fill="none" points="1594.1,55.663,1575.15,46.184,1595.88,41.776,1594.1,55.663" style="stroke:#454645;stroke-width:1.0;"/></g><!--MD5=[3f8d1d183a92460b1ec84009a33e1124]
reverse link DraftableForm to IntegrationForm--><g id="link_DraftableForm_IntegrationForm"><path d="M1952.43,217.787 C1933.38,223.076 1913.48,227.827 1894.5,231 C1412.77,311.527 1282.63,228.904 796.5,276 C735.794,281.881 670.426,290.725 609.967,299.959 " fill="none" id="DraftableForm-backto-IntegrationForm" style="stroke:#454645;stroke-width:1.0;"/><polygon fill="none" points="1950.74,210.989,1971.9,212.123,1954.65,224.431,1950.74,210.989" style="stroke:#454645;stroke-width:1.0;"/></g><!--MD5=[2de62c6caf12cbf99b67d5f17feae6a4]
reverse link IntegrationForm to WMIntegrationForm--><g id="link_IntegrationForm_WMIntegrationForm"><path d="M413.594,398.889 C426.624,422.938 441.028,449.5247 450.999,467.9274 " fill="none" id="IntegrationForm-backto-WMIntegrationForm" style="stroke:#454645;stroke-width:1.0;"/><polygon fill="none" points="407.367,402.09,403.994,381.171,419.676,395.421,407.367,402.09" style="stroke:#454645;stroke-width:1.0;"/></g><!--MD5=[086080cfa5fdc2df017360dcb6943eea]
reverse link IntegrationForm to ATIntegrationForm--><g id="link_IntegrationForm_ATIntegrationForm"><path d="M477.269,390.524 C527.616,416.569 587.138,447.36 626.898,467.9274 " fill="none" id="IntegrationForm-backto-ATIntegrationForm" style="stroke:#454645;stroke-width:1.0;"/><polygon fill="none" points="473.736,396.577,459.188,381.171,480.168,384.143,473.736,396.577" style="stroke:#454645;stroke-width:1.0;"/></g><!--MD5=[9103075a747320b8544aa5a0f673abf3]
reverse link IntegrationForm to SAPIntegrationForm--><g id="link_IntegrationForm_SAPIntegrationForm"><path d="M334.374,396.423 C312.747,421.104 288.396,448.8932 271.717,467.9274 " fill="none" id="IntegrationForm-backto-SAPIntegrationForm" style="stroke:#454645;stroke-width:1.0;"/><polygon fill="none" points="329.293,391.6,347.738,381.171,339.822,400.826,329.293,391.6" style="stroke:#454645;stroke-width:1.0;"/></g><!--MD5=[d483caa2584cb053e8015b24e492f8b5]
reverse link DraftableForm to InterfaceForm--><g id="link_DraftableForm_InterfaceForm"><path d="M2079.54,250.093 C2088.8,273.784 2098.63,298.908 2105.5,316.471 " fill="none" id="DraftableForm-backto-InterfaceForm" style="stroke:#454645;stroke-width:1.0;"/><polygon fill="none" points="2072.9,252.329,2072.13,231.153,2085.94,247.23,2072.9,252.329" style="stroke:#454645;stroke-width:1.0;"/></g><!--MD5=[04c5c8729def7e26b06a056971ea3d42]
reverse link InterfaceForm to WMInterfaceForm--><g id="link_InterfaceForm_WMInterfaceForm"><path d="M2140.82,381.253 C2159.09,408.831 2182.78,444.617 2198.07,467.6958 " fill="none" id="InterfaceForm-backto-WMInterfaceForm" style="stroke:#454645;stroke-width:1.0;"/><polygon fill="none" points="2134.96,385.072,2129.75,364.532,2146.63,377.342,2134.96,385.072" style="stroke:#454645;stroke-width:1.0;"/></g><!--MD5=[cea65c25dd0738bf13e53fcde15b0115]
reverse link InterfaceForm to ATInterfaceForm--><g id="link_InterfaceForm_ATInterfaceForm"><path d="M2177.64,373.828 C2233.05,402.195 2312.25,442.746 2361.46,467.9421 " fill="none" id="InterfaceForm-backto-ATInterfaceForm" style="stroke:#454645;stroke-width:1.0;"/><polygon fill="none" points="2174.1,379.877,2159.49,364.532,2180.48,367.416,2174.1,379.877" style="stroke:#454645;stroke-width:1.0;"/></g><!--MD5=[2b7b16ddeeced83c76721e0f6cb1647d]
reverse link InterfaceForm to SAPInterfaceForm--><g id="link_InterfaceForm_SAPInterfaceForm"><path d="M2088.18,381.648 C2070.14,409.171 2046.83,444.727 2031.78,467.6958 " fill="none" id="InterfaceForm-backto-SAPInterfaceForm" style="stroke:#454645;stroke-width:1.0;"/><polygon fill="none" points="2082.58,377.421,2099.4,364.532,2094.29,385.096,2082.58,377.421" style="stroke:#454645;stroke-width:1.0;"/></g><!--MD5=[2d3407dd1f5aa43aab555654911369e0]
reverse link DraftableForm to ConnectionForm--><g id="link_DraftableForm_ConnectionForm"><path d="M2155.31,203.835 C2314.47,235.628 2618.58,296.372 2759.45,324.509 " fill="none" id="DraftableForm-backto-ConnectionForm" style="stroke:#454645;stroke-width:1.0;"/><polygon fill="none" points="2153.48,210.608,2135.24,199.827,2156.22,196.88,2153.48,210.608" style="stroke:#454645;stroke-width:1.0;"/></g><!--MD5=[bcdf36991a970fec7f81757641174000]
reverse link ConnectionForm to WMConnectionForm--><g id="link_ConnectionForm_WMConnectionForm"><path d="M2837.11,384.842 C2838.74,411.875 2840.77,445.606 2842.1,467.6958 " fill="none" id="ConnectionForm-backto-WMConnectionForm" style="stroke:#454645;stroke-width:1.0;"/><polygon fill="none" points="2830.1,384.916,2835.89,364.532,2844.08,384.075,2830.1,384.916" style="stroke:#454645;stroke-width:1.0;"/></g><!--MD5=[8fab3aca146b105d76655c6f8b377b40]
reverse link ConnectionForm to ATConnectionForm--><g id="link_ConnectionForm_ATConnectionForm"><path d="M2884.87,375.888 C2926.25,404.13 2983.7,443.35 3019.72,467.9421 " fill="none" id="ConnectionForm-backto-ATConnectionForm" style="stroke:#454645;stroke-width:1.0;"/><polygon fill="none" points="2880.81,381.589,2868.24,364.532,2888.7,370.027,2880.81,381.589" style="stroke:#454645;stroke-width:1.0;"/></g><!--MD5=[4854dbc2e691bda94dacff51d7f76f72]
reverse link ConnectionForm to SAPConnectionForm--><g id="link_ConnectionForm_SAPConnectionForm"><path d="M2841.19,384.615 C2841.65,402.959 2838.65,423.434 2826.5,438 C2819.1,446.872 2768.05,460.4716 2719.78,471.6731 " fill="none" id="ConnectionForm-backto-SAPConnectionForm" style="stroke:#454645;stroke-width:1.0;"/><polygon fill="none" points="2834.21,385.079,2839.42,364.541,2848.15,383.848,2834.21,385.079" style="stroke:#454645;stroke-width:1.0;"/></g><!--MD5=[15b5f9f2ee86340107aa8d941c4fa778]
link EditPartner to FormFactory--><g id="link_EditPartner_FormFactory"><path codeLine="62" d="M780.164,182.5 C850.514,182.5 937.17,182.5 1012.11,182.5 " fill="none" id="EditPartner-to-FormFactory" style="stroke:#454645;stroke-width:1.0;stroke-dasharray:7.0,7.0;"/><polygon fill="#454645" points="1017.48,182.5,1008.48,178.5,1012.48,182.5,1008.48,186.5,1017.48,182.5" style="stroke:#454645;stroke-width:1.0;"/><text fill="#000000" font-family="sans-serif" font-size="13" lengthAdjust="spacing" textLength="39" x="879.25" y="175.5669">use</text></g><!--MD5=[4d985a2049a417464d06896a1c2c0b78]
link WMFormFactory to WMIntegrationForm--><g id="link_WMFormFactory_WMIntegrationForm"><path codeLine="64" d="M1237.63,389.152 C1213.02,398.405 1186.68,407.06 1161.5,413 C1145.43,416.791 585.822,465.4805 569.5,468 C565.286,468.6504 560.989,469.3657 556.656,470.1292 " fill="none" id="WMFormFactory-to-WMIntegrationForm" style="stroke:#454645;stroke-width:1.0;stroke-dasharray:7.0,7.0;"/><polygon fill="#454645" points="551.555,471.0468,561.1212,473.3893,556.4759,470.1611,559.7041,465.5158,551.555,471.0468" style="stroke:#454645;stroke-width:1.0;"/><text fill="#000000" font-family="sans-serif" font-size="13" lengthAdjust="spacing" textLength="39" x="1085.5" y="434.0669">use</text></g><!--MD5=[3cd21760ecab051752653d07acb9a7e0]
link WMFormFactory to WMInterfaceForm--><g id="link_WMFormFactory_WMInterfaceForm"><path codeLine="65" d="M1421.56,389.11 C1455.44,407.857 1496.65,427.407 1536.5,438 C1785.53,504.1936 1860.38,431.751 2115.5,468 C2119.6,468.5831 2123.79,469.2556 2128,469.9959 " fill="none" id="WMFormFactory-to-WMInterfaceForm" style="stroke:#454645;stroke-width:1.0;stroke-dasharray:7.0,7.0;"/><polygon fill="#454645" points="2132.96,470.8949,2124.8267,465.3407,2128.0416,469.9952,2123.3871,473.2101,2132.96,470.8949" style="stroke:#454645;stroke-width:1.0;"/><text fill="#000000" font-family="sans-serif" font-size="13" lengthAdjust="spacing" textLength="39" x="1537.5" y="434.0669">use</text></g><!--MD5=[883aa10a15235aa51f4ae2d615b87ff9]
link WMFormFactory to WMConnectionForm--><g id="link_WMFormFactory_WMConnectionForm"><path codeLine="66" d="M1448.06,389.115 C1473.78,398.937 1501.7,407.851 1528.5,413 C1589.01,424.627 2576.75,410.735 2637.5,421 C2639.28,421.301 2712.47,446.229 2771.1,466.2501 " fill="none" id="WMFormFactory-to-WMConnectionForm" style="stroke:#454645;stroke-width:1.0;stroke-dasharray:7.0,7.0;"/><polygon fill="#454645" points="2776.01,467.9263,2768.7836,461.2346,2771.2778,466.3119,2766.2005,468.806,2776.01,467.9263" style="stroke:#454645;stroke-width:1.0;"/><text fill="#000000" font-family="sans-serif" font-size="13" lengthAdjust="spacing" textLength="39" x="2684.5" y="434.0669">use</text></g><!--MD5=[39f85ebd642e4efb50f61a46532e7d02]
link ATFormFactory to ATIntegrationForm--><g id="link_ATFormFactory_ATIntegrationForm"><path codeLine="68" d="M1662.41,389.056 C1639.54,407.794 1610.99,427.351 1581.5,438 C1505.81,465.3315 975.94,482.6892 761.385,488.6684 " fill="none" id="ATFormFactory-to-ATIntegrationForm" style="stroke:#454645;stroke-width:1.0;stroke-dasharray:7.0,7.0;"/><polygon fill="#454645" points="756.376,488.8075,765.4845,492.5539,761.374,488.6675,765.2605,484.5571,756.376,488.8075" style="stroke:#454645;stroke-width:1.0;"/><text fill="#000000" font-family="sans-serif" font-size="13" lengthAdjust="spacing" textLength="39" x="1615.5" y="434.0669">use</text></g><!--MD5=[f97883b0fc7448f8bf564b1b17a096ca]
link ATFormFactory to ATInterfaceForm--><g id="link_ATFormFactory_ATInterfaceForm"><path codeLine="69" d="M1836.89,389.037 C1863.53,397.985 1891.73,406.545 1918.5,413 C2089.96,454.3341 2138.25,434.987 2311.5,468 C2315.69,468.7991 2319.98,469.6632 2324.3,470.5718 " fill="none" id="ATFormFactory-to-ATInterfaceForm" style="stroke:#454645;stroke-width:1.0;stroke-dasharray:7.0,7.0;"/><polygon fill="#454645" points="2329.39,471.6577,2321.4223,465.8684,2324.5,470.6148,2319.7536,473.6925,2329.39,471.6577" style="stroke:#454645;stroke-width:1.0;"/><text fill="#000000" font-family="sans-serif" font-size="13" lengthAdjust="spacing" textLength="39" x="2054.5" y="434.0669">use</text></g><!--MD5=[76bc18569c657d1853c2a69aacf6f97b]
link ATFormFactory to ATConnectionForm--><g id="link_ATFormFactory_ATConnectionForm"><path codeLine="70" d="M1828.41,389.07 C1857.35,398.893 1888.66,407.819 1918.5,413 C2008.16,428.569 2647.08,410.696 2737.5,421 C2816.13,429.96 2903.88,450.2465 2966.92,466.6856 " fill="none" id="ATFormFactory-to-ATConnectionForm" style="stroke:#454645;stroke-width:1.0;stroke-dasharray:7.0,7.0;"/><polygon fill="#454645" points="2971.79,467.9623,2964.1026,461.8057,2966.9543,466.6912,2962.0688,469.5429,2971.79,467.9623" style="stroke:#454645;stroke-width:1.0;"/><text fill="#000000" font-family="sans-serif" font-size="13" lengthAdjust="spacing" textLength="39" x="2843.5" y="434.0669">use</text></g><!--MD5=[b8aea1610e24db219efb55a67f3a944d]
link SAPFormFactory to SAPIntegrationForm--><g id="link_SAPFormFactory_SAPIntegrationForm"><path codeLine="72" d="M854.695,389.003 C827.888,398.008 799.481,406.599 772.5,413 C591.467,455.9457 540.789,436.025 357.5,468 C353.652,468.6713 349.732,469.3848 345.776,470.1292 " fill="none" id="SAPFormFactory-to-SAPIntegrationForm" style="stroke:#454645;stroke-width:1.0;stroke-dasharray:7.0,7.0;"/><polygon fill="#454645" points="340.75,471.0879,350.3402,473.3302,345.6614,470.1508,348.8408,465.4719,340.75,471.0879" style="stroke:#454645;stroke-width:1.0;"/><text fill="#000000" font-family="sans-serif" font-size="13" lengthAdjust="spacing" textLength="39" x="732.5" y="434.0669">use</text></g><!--MD5=[b1ad98a01bf884aac9af46e0e673fb5d]
link SAPFormFactory to SAPInterfaceForm--><g id="link_SAPFormFactory_SAPInterfaceForm"><path codeLine="73" d="M1085.27,389.007 C1109.89,398.326 1136.27,407.047 1161.5,413 C1436.86,477.9755 1773.93,489.479 1929.82,491.0841 " fill="none" id="SAPFormFactory-to-SAPInterfaceForm" style="stroke:#454645;stroke-width:1.0;stroke-dasharray:7.0,7.0;"/><polygon fill="#454645" points="1934.83,491.133,1925.8763,487.0304,1929.8303,491.0759,1925.7849,495.0299,1934.83,491.133" style="stroke:#454645;stroke-width:1.0;"/><text fill="#000000" font-family="sans-serif" font-size="13" lengthAdjust="spacing" textLength="39" x="1277.5" y="434.0669">use</text></g><!--MD5=[80be59bdb4be119dcd8f134c98e0514c]
link SAPFormFactory to SAPConnectionForm--><g id="link_SAPFormFactory_SAPConnectionForm"><path codeLine="74" d="M1081.05,389.139 C1106.78,398.96 1134.7,407.867 1161.5,413 C1234.51,426.982 2427.48,402.612 2499.5,421 C2533.43,429.661 2568.16,449.0095 2593.18,465.1738 " fill="none" id="SAPFormFactory-to-SAPConnectionForm" style="stroke:#454645;stroke-width:1.0;stroke-dasharray:7.0,7.0;"/><polygon fill="#454645" points="2597.42,467.9445,2592.0642,459.6792,2593.2312,465.2144,2587.696,466.3813,2597.42,467.9445" style="stroke:#454645;stroke-width:1.0;"/><text fill="#000000" font-family="sans-serif" font-size="13" lengthAdjust="spacing" textLength="39" x="2546.5" y="434.0669">use</text></g><!--MD5=[f466c70308f7ffb3466772edb7c811c9]
@startuml
!theme vibrant
class ReactNode{
  + render()
}
class EditPartner extends ReactNode{
  - formFactory: FormFactory

  + EditPartner(factory: FormFactory)
}

together {
  interface FormFactory{
    + createIntegrationForm(): IntegrationForm
    + createInterfaceForm(): InterfaceForm
    + createConnectionForm(): ConnectionForm
  }
  class WMFormFactory implements FormFactory{
    + createIntegrationForm(): IntegrationForm
    + createInterfaceForm(): InterfaceForm
    + createConnectionForm(): ConnectionForm
  }
  class ATFormFactory implements FormFactory{
    + createIntegrationForm(): IntegrationForm
    + createInterfaceForm(): InterfaceForm
    + createConnectionForm(): ConnectionForm
  }
  class SAPFormFactory implements FormFactory{
    + createIntegrationForm(): IntegrationForm
    + createInterfaceForm(): InterfaceForm
    + createConnectionForm(): ConnectionForm
  }
}
 
abstract class DraftableForm extends ReactNode {
  + saveDraft()
  + readDraft()
  + {abstract} generateDraftKey()
}

together {
  abstract class IntegrationForm extends DraftableForm {
    # {abstract} preprocessIntegrationInfoFormData(selectedIntegration: IntegrationDataType): IIntegrationFormData
    # {abstract} generateFormList(): FormItem[]
  }
  class WMIntegrationForm extends IntegrationForm{}
  class ATIntegrationForm extends IntegrationForm{}
  class SAPIntegrationForm extends IntegrationForm{}
}
together {
  abstract class InterfaceForm extends DraftableForm {}
  class WMInterfaceForm extends InterfaceForm{}
  class ATInterfaceForm extends InterfaceForm{}
  class SAPInterfaceForm extends InterfaceForm{}
}
together {
  abstract class ConnectionForm extends DraftableForm {}
  class WMConnectionForm extends ConnectionForm{}
  class ATConnectionForm extends ConnectionForm{}
  class SAPConnectionForm extends ConnectionForm{}
}

EditPartner .Right.> FormFactory: <<use>>

WMFormFactory .down.> WMIntegrationForm: <<use>>
WMFormFactory .down.> WMInterfaceForm: <<use>>
WMFormFactory .down.> WMConnectionForm: <<use>>

ATFormFactory .down.> ATIntegrationForm: <<use>>
ATFormFactory .down.> ATInterfaceForm: <<use>>
ATFormFactory .down.> ATConnectionForm: <<use>>

SAPFormFactory .down.> SAPIntegrationForm: <<use>>
SAPFormFactory .down.> SAPInterfaceForm: <<use>>
SAPFormFactory .down.> SAPConnectionForm: <<use>>
@enduml

@startuml
skinparam BackgroundColor FFFFFF
skinparam shadowing false
skinparam RoundCorner 7
skinparam ArrowColor 454645
skinparam FontColor 454645
skinparam SequenceLifeLineBorderColor 696969
skinparam SequenceGroupHeaderFontColor 454645
skinparam SequenceGroupFontColor 696969
skinparam SequenceGroupBorderColor 696969
skinparam SequenceGroupBorderThickness 1

skinparam sequenceDivider {
    BorderColor 454645
    BorderThickness 1
    FontColor 454645
}

skinparam participant {
    BackgroundColor FF6347
    BorderColor 454645
    FontColor FFFFFF
    BorderThickness 1.5
}

skinparam database {
    BackgroundColor 00FFFF
    BorderColor 454645
    FontColor 454645
}

skinparam entity {
    BackgroundColor FFE552
    BorderColor 454645
    FontColor 454645
}

skinparam note {
    BackgroundColor 7FFFD4
    BorderColor 454645
    FontColor 454645
    BorderThickness 1.5
}

skinparam actor {
    BackgroundColor 454645
    BorderColor 454645
    FontColor 454645
}

skinparam boundary {
    BackgroundColor FFE552
    BorderColor 454645
    FontColor 454645
}

skinparam control {
    BackgroundColor FFE552
    BorderColor 454645
    FontColor 454645
}

skinparam collections {
    BackgroundColor FF5F42
    BorderColor 454645
    FontColor 454645
}

skinparam queue {
    BackgroundColor FF6347
    BorderColor 454645
    FontColor FFF
    BorderThickness 1.5
}
class ReactNode{
  + render()
}
class EditPartner extends ReactNode{
  - formFactory: FormFactory

  + EditPartner(factory: FormFactory)
}

together {
  interface FormFactory{
    + createIntegrationForm(): IntegrationForm
    + createInterfaceForm(): InterfaceForm
    + createConnectionForm(): ConnectionForm
  }
  class WMFormFactory implements FormFactory{
    + createIntegrationForm(): IntegrationForm
    + createInterfaceForm(): InterfaceForm
    + createConnectionForm(): ConnectionForm
  }
  class ATFormFactory implements FormFactory{
    + createIntegrationForm(): IntegrationForm
    + createInterfaceForm(): InterfaceForm
    + createConnectionForm(): ConnectionForm
  }
  class SAPFormFactory implements FormFactory{
    + createIntegrationForm(): IntegrationForm
    + createInterfaceForm(): InterfaceForm
    + createConnectionForm(): ConnectionForm
  }
}
 
abstract class DraftableForm extends ReactNode {
  + saveDraft()
  + readDraft()
  + {abstract} generateDraftKey()
}

together {
  abstract class IntegrationForm extends DraftableForm {
    # {abstract} preprocessIntegrationInfoFormData(selectedIntegration: IntegrationDataType): IIntegrationFormData
    # {abstract} generateFormList(): FormItem[]
  }
  class WMIntegrationForm extends IntegrationForm{}
  class ATIntegrationForm extends IntegrationForm{}
  class SAPIntegrationForm extends IntegrationForm{}
}
together {
  abstract class InterfaceForm extends DraftableForm {}
  class WMInterfaceForm extends InterfaceForm{}
  class ATInterfaceForm extends InterfaceForm{}
  class SAPInterfaceForm extends InterfaceForm{}
}
together {
  abstract class ConnectionForm extends DraftableForm {}
  class WMConnectionForm extends ConnectionForm{}
  class ATConnectionForm extends ConnectionForm{}
  class SAPConnectionForm extends ConnectionForm{}
}

EditPartner .Right.> FormFactory: <<use>>

WMFormFactory .down.> WMIntegrationForm: <<use>>
WMFormFactory .down.> WMInterfaceForm: <<use>>
WMFormFactory .down.> WMConnectionForm: <<use>>

ATFormFactory .down.> ATIntegrationForm: <<use>>
ATFormFactory .down.> ATInterfaceForm: <<use>>
ATFormFactory .down.> ATConnectionForm: <<use>>

SAPFormFactory .down.> SAPIntegrationForm: <<use>>
SAPFormFactory .down.> SAPInterfaceForm: <<use>>
SAPFormFactory .down.> SAPConnectionForm: <<use>>
@enduml

PlantUML version 1.2022.7beta11(Unknown compile time)
(GPL source distribution)
Java Runtime: Java(TM) SE Runtime Environment
JVM: Java HotSpot(TM) 64-Bit Server VM
Default Encoding: UTF-8
Language: en
Country: US
--></g></svg>