<?xml version="1.0" encoding="UTF-8" standalone="no"?><svg xmlns="http://www.w3.org/2000/svg" xmlns:xlink="http://www.w3.org/1999/xlink" contentStyleType="text/css" height="523px" preserveAspectRatio="none" style="width:2990px;height:523px;background:#FFFFFF;" version="1.1" viewBox="0 0 2990 523" width="2990px" zoomAndPan="magnify"><defs/><g><!--MD5=[1c1cb281ad7b230c434146985ef98943]
class FormFactory--><g id="elem_FormFactory"><rect codeLine="12" fill="#F1F1F1" height="96.8906" id="FormFactory" rx="3.5" ry="3.5" style="stroke:#181818;stroke-width:0.5;" width="332" x="862" y="134"/><ellipse cx="978.75" cy="150" fill="#B4A7E5" rx="11" ry="11" style="stroke:#181818;stroke-width:1.0;"/><path d="M979.7031,146.7813 L981.4219,146.7813 C981.8125,146.7813 982,146.75 982.125,146.6719 C982.3906,146.5156 982.5313,146.2344 982.5313,145.9375 C982.5313,145.6719 982.4219,145.4063 982.1875,145.2344 C982.0156,145.125 981.875,145.0938 981.4219,145.0938 L976.2813,145.0938 C975.8438,145.0938 975.7188,145.1094 975.5625,145.2031 C975.3125,145.3594 975.1563,145.6563 975.1563,145.9375 C975.1563,146.2188 975.2969,146.4688 975.5156,146.6406 C975.6719,146.75 975.8594,146.7813 976.2813,146.7813 L978,146.7813 L978,153.2969 L976.2813,153.2969 C975.8438,153.2969 975.7188,153.3125 975.5625,153.4219 C975.3125,153.5781 975.1563,153.8594 975.1563,154.1563 C975.1563,154.4063 975.2969,154.6719 975.5156,154.8281 C975.6719,154.9531 975.875,155 976.2813,155 L981.4219,155 C982.1719,155 982.5313,154.7188 982.5313,154.1563 C982.5313,153.875 982.4219,153.625 982.1875,153.4531 C982.0156,153.3281 981.875,153.2969 981.4219,153.2969 L979.7031,153.2969 L979.7031,146.7813 Z " fill="#000000"/><text fill="#000000" font-family="sans-serif" font-size="14" font-style="italic" lengthAdjust="spacing" textLength="90" x="999.25" y="154.8467">FormFactory</text><line style="stroke:#181818;stroke-width:0.5;" x1="863" x2="1193" y1="166" y2="166"/><line style="stroke:#181818;stroke-width:0.5;" x1="863" x2="1193" y1="174" y2="174"/><ellipse cx="873" cy="187.6484" fill="#84BE84" rx="3" ry="3" style="stroke:#038048;stroke-width:1.0;"/><text fill="#000000" font-family="sans-serif" font-size="14" lengthAdjust="spacing" textLength="302" x="882" y="190.9951">createIntegrationForm(): IntegrationForm</text><ellipse cx="873" cy="203.9453" fill="#84BE84" rx="3" ry="3" style="stroke:#038048;stroke-width:1.0;"/><text fill="#000000" font-family="sans-serif" font-size="14" lengthAdjust="spacing" textLength="272" x="882" y="207.292">createInterfaceForm(): InterfaceForm</text><ellipse cx="873" cy="220.2422" fill="#84BE84" rx="3" ry="3" style="stroke:#038048;stroke-width:1.0;"/><text fill="#000000" font-family="sans-serif" font-size="14" lengthAdjust="spacing" textLength="306" x="882" y="223.5889">createConnectionForm(): ConnectionForm</text></g><!--MD5=[7991c7323b9e54d622210544b264eec1]
class WMFormFactory--><g id="elem_WMFormFactory"><rect codeLine="17" fill="#F1F1F1" height="96.8906" id="WMFormFactory" rx="3.5" ry="3.5" style="stroke:#181818;stroke-width:0.5;" width="332" x="1024" y="292"/><ellipse cx="1127.25" cy="308" fill="#ADD1B2" rx="11" ry="11" style="stroke:#181818;stroke-width:1.0;"/><path d="M1129.5938,303.6719 C1128.6563,303.2344 1128.0625,303.0938 1127.1875,303.0938 C1124.5625,303.0938 1122.5625,305.1719 1122.5625,307.8906 L1122.5625,309.0156 C1122.5625,311.5938 1124.6719,313.4844 1127.5625,313.4844 C1128.7813,313.4844 1129.9375,313.1875 1130.6875,312.6406 C1131.2656,312.2344 1131.5938,311.7813 1131.5938,311.3906 C1131.5938,310.9375 1131.2031,310.5469 1130.7344,310.5469 C1130.5156,310.5469 1130.3125,310.625 1130.125,310.8125 C1129.6719,311.2969 1129.6719,311.2969 1129.4844,311.3906 C1129.0625,311.6563 1128.375,311.7813 1127.6094,311.7813 C1125.5625,311.7813 1124.2656,310.6875 1124.2656,308.9844 L1124.2656,307.8906 C1124.2656,306.1094 1125.5156,304.7969 1127.25,304.7969 C1127.8281,304.7969 1128.4375,304.9531 1128.9063,305.2031 C1129.3906,305.4844 1129.5625,305.7031 1129.6563,306.1094 C1129.7188,306.5156 1129.75,306.6406 1129.8906,306.7656 C1130.0313,306.9063 1130.2656,307.0156 1130.4844,307.0156 C1130.75,307.0156 1131.0156,306.875 1131.1875,306.6563 C1131.2969,306.5 1131.3281,306.3125 1131.3281,305.8906 L1131.3281,304.4688 C1131.3281,304.0313 1131.3125,303.9063 1131.2188,303.75 C1131.0625,303.4844 1130.7813,303.3438 1130.4844,303.3438 C1130.1875,303.3438 1129.9844,303.4375 1129.7656,303.75 L1129.5938,303.6719 Z " fill="#000000"/><text fill="#000000" font-family="sans-serif" font-size="14" lengthAdjust="spacing" textLength="117" x="1147.75" y="312.8467">WMFormFactory</text><line style="stroke:#181818;stroke-width:0.5;" x1="1025" x2="1355" y1="324" y2="324"/><line style="stroke:#181818;stroke-width:0.5;" x1="1025" x2="1355" y1="332" y2="332"/><ellipse cx="1035" cy="345.6484" fill="#84BE84" rx="3" ry="3" style="stroke:#038048;stroke-width:1.0;"/><text fill="#000000" font-family="sans-serif" font-size="14" lengthAdjust="spacing" textLength="302" x="1044" y="348.9951">createIntegrationForm(): IntegrationForm</text><ellipse cx="1035" cy="361.9453" fill="#84BE84" rx="3" ry="3" style="stroke:#038048;stroke-width:1.0;"/><text fill="#000000" font-family="sans-serif" font-size="14" lengthAdjust="spacing" textLength="272" x="1044" y="365.292">createInterfaceForm(): InterfaceForm</text><ellipse cx="1035" cy="378.2422" fill="#84BE84" rx="3" ry="3" style="stroke:#038048;stroke-width:1.0;"/><text fill="#000000" font-family="sans-serif" font-size="14" lengthAdjust="spacing" textLength="306" x="1044" y="381.5889">createConnectionForm(): ConnectionForm</text></g><!--MD5=[876cbfd441300657573ae4a6f63dd841]
class ATFormFactory--><g id="elem_ATFormFactory"><rect codeLine="22" fill="#F1F1F1" height="96.8906" id="ATFormFactory" rx="3.5" ry="3.5" style="stroke:#181818;stroke-width:0.5;" width="332" x="1391" y="292"/><ellipse cx="1497.75" cy="308" fill="#ADD1B2" rx="11" ry="11" style="stroke:#181818;stroke-width:1.0;"/><path d="M1500.0938,303.6719 C1499.1563,303.2344 1498.5625,303.0938 1497.6875,303.0938 C1495.0625,303.0938 1493.0625,305.1719 1493.0625,307.8906 L1493.0625,309.0156 C1493.0625,311.5938 1495.1719,313.4844 1498.0625,313.4844 C1499.2813,313.4844 1500.4375,313.1875 1501.1875,312.6406 C1501.7656,312.2344 1502.0938,311.7813 1502.0938,311.3906 C1502.0938,310.9375 1501.7031,310.5469 1501.2344,310.5469 C1501.0156,310.5469 1500.8125,310.625 1500.625,310.8125 C1500.1719,311.2969 1500.1719,311.2969 1499.9844,311.3906 C1499.5625,311.6563 1498.875,311.7813 1498.1094,311.7813 C1496.0625,311.7813 1494.7656,310.6875 1494.7656,308.9844 L1494.7656,307.8906 C1494.7656,306.1094 1496.0156,304.7969 1497.75,304.7969 C1498.3281,304.7969 1498.9375,304.9531 1499.4063,305.2031 C1499.8906,305.4844 1500.0625,305.7031 1500.1563,306.1094 C1500.2188,306.5156 1500.25,306.6406 1500.3906,306.7656 C1500.5313,306.9063 1500.7656,307.0156 1500.9844,307.0156 C1501.25,307.0156 1501.5156,306.875 1501.6875,306.6563 C1501.7969,306.5 1501.8281,306.3125 1501.8281,305.8906 L1501.8281,304.4688 C1501.8281,304.0313 1501.8125,303.9063 1501.7188,303.75 C1501.5625,303.4844 1501.2813,303.3438 1500.9844,303.3438 C1500.6875,303.3438 1500.4844,303.4375 1500.2656,303.75 L1500.0938,303.6719 Z " fill="#000000"/><text fill="#000000" font-family="sans-serif" font-size="14" lengthAdjust="spacing" textLength="110" x="1518.25" y="312.8467">ATFormFactory</text><line style="stroke:#181818;stroke-width:0.5;" x1="1392" x2="1722" y1="324" y2="324"/><line style="stroke:#181818;stroke-width:0.5;" x1="1392" x2="1722" y1="332" y2="332"/><ellipse cx="1402" cy="345.6484" fill="#84BE84" rx="3" ry="3" style="stroke:#038048;stroke-width:1.0;"/><text fill="#000000" font-family="sans-serif" font-size="14" lengthAdjust="spacing" textLength="302" x="1411" y="348.9951">createIntegrationForm(): IntegrationForm</text><ellipse cx="1402" cy="361.9453" fill="#84BE84" rx="3" ry="3" style="stroke:#038048;stroke-width:1.0;"/><text fill="#000000" font-family="sans-serif" font-size="14" lengthAdjust="spacing" textLength="272" x="1411" y="365.292">createInterfaceForm(): InterfaceForm</text><ellipse cx="1402" cy="378.2422" fill="#84BE84" rx="3" ry="3" style="stroke:#038048;stroke-width:1.0;"/><text fill="#000000" font-family="sans-serif" font-size="14" lengthAdjust="spacing" textLength="306" x="1411" y="381.5889">createConnectionForm(): ConnectionForm</text></g><!--MD5=[423682f5ce4d96d10f62568505dc23af]
class SAPFormFactory--><g id="elem_SAPFormFactory"><rect codeLine="27" fill="#F1F1F1" height="96.8906" id="SAPFormFactory" rx="3.5" ry="3.5" style="stroke:#181818;stroke-width:0.5;" width="332" x="657" y="292"/><ellipse cx="759.25" cy="308" fill="#ADD1B2" rx="11" ry="11" style="stroke:#181818;stroke-width:1.0;"/><path d="M761.5938,303.6719 C760.6563,303.2344 760.0625,303.0938 759.1875,303.0938 C756.5625,303.0938 754.5625,305.1719 754.5625,307.8906 L754.5625,309.0156 C754.5625,311.5938 756.6719,313.4844 759.5625,313.4844 C760.7813,313.4844 761.9375,313.1875 762.6875,312.6406 C763.2656,312.2344 763.5938,311.7813 763.5938,311.3906 C763.5938,310.9375 763.2031,310.5469 762.7344,310.5469 C762.5156,310.5469 762.3125,310.625 762.125,310.8125 C761.6719,311.2969 761.6719,311.2969 761.4844,311.3906 C761.0625,311.6563 760.375,311.7813 759.6094,311.7813 C757.5625,311.7813 756.2656,310.6875 756.2656,308.9844 L756.2656,307.8906 C756.2656,306.1094 757.5156,304.7969 759.25,304.7969 C759.8281,304.7969 760.4375,304.9531 760.9063,305.2031 C761.3906,305.4844 761.5625,305.7031 761.6563,306.1094 C761.7188,306.5156 761.75,306.6406 761.8906,306.7656 C762.0313,306.9063 762.2656,307.0156 762.4844,307.0156 C762.75,307.0156 763.0156,306.875 763.1875,306.6563 C763.2969,306.5 763.3281,306.3125 763.3281,305.8906 L763.3281,304.4688 C763.3281,304.0313 763.3125,303.9063 763.2188,303.75 C763.0625,303.4844 762.7813,303.3438 762.4844,303.3438 C762.1875,303.3438 761.9844,303.4375 761.7656,303.75 L761.5938,303.6719 Z " fill="#000000"/><text fill="#000000" font-family="sans-serif" font-size="14" lengthAdjust="spacing" textLength="119" x="779.75" y="312.8467">SAPFormFactory</text><line style="stroke:#181818;stroke-width:0.5;" x1="658" x2="988" y1="324" y2="324"/><line style="stroke:#181818;stroke-width:0.5;" x1="658" x2="988" y1="332" y2="332"/><ellipse cx="668" cy="345.6484" fill="#84BE84" rx="3" ry="3" style="stroke:#038048;stroke-width:1.0;"/><text fill="#000000" font-family="sans-serif" font-size="14" lengthAdjust="spacing" textLength="302" x="677" y="348.9951">createIntegrationForm(): IntegrationForm</text><ellipse cx="668" cy="361.9453" fill="#84BE84" rx="3" ry="3" style="stroke:#038048;stroke-width:1.0;"/><text fill="#000000" font-family="sans-serif" font-size="14" lengthAdjust="spacing" textLength="272" x="677" y="365.292">createInterfaceForm(): InterfaceForm</text><ellipse cx="668" cy="378.2422" fill="#84BE84" rx="3" ry="3" style="stroke:#038048;stroke-width:1.0;"/><text fill="#000000" font-family="sans-serif" font-size="14" lengthAdjust="spacing" textLength="306" x="677" y="381.5889">createConnectionForm(): ConnectionForm</text></g><!--MD5=[06f6369a25b2c6710208b955f315b1b3]
class IntegrationForm--><g id="elem_IntegrationForm"><rect codeLine="41" fill="#F1F1F1" height="48" id="IntegrationForm" rx="3.5" ry="3.5" style="stroke:#181818;stroke-width:0.5;" width="147" x="330.5" y="316.5"/><ellipse cx="345.5" cy="332.5" fill="#A9DCDF" rx="11" ry="11" style="stroke:#181818;stroke-width:1.0;"/><path d="M347.5781,334.3125 L347.9688,335.2969 L347.5781,335.2969 C347.125,335.2969 347.0156,335.3125 346.8594,335.4219 C346.6094,335.5781 346.4531,335.8594 346.4531,336.1563 C346.4531,336.4219 346.5938,336.6719 346.8125,336.8281 C346.9531,336.9531 347.1563,337 347.5781,337 L349.9375,337 C350.2969,337 350.5156,336.9688 350.6563,336.875 C350.9063,336.7344 351.0625,336.4375 351.0625,336.1563 C351.0625,335.875 350.9219,335.625 350.7031,335.4688 C350.5313,335.3281 350.375,335.2969 349.9063,335.2969 L346.5156,327.0938 L342.8438,327.0938 C342.3906,327.0938 342.2656,327.1094 342.1094,327.2031 C341.8594,327.375 341.7031,327.6563 341.7031,327.9375 C341.7031,328.2188 341.8438,328.4688 342.0625,328.6406 C342.2344,328.75 342.4063,328.7813 342.8438,328.7813 L343.9219,328.7813 L341.2813,335.2969 C340.8594,335.2969 340.7031,335.3125 340.5469,335.4219 C340.2969,335.5781 340.1406,335.8594 340.1406,336.1563 C340.1406,336.7188 340.5156,337 341.2656,337 L343.5313,337 C343.8906,337 344.1094,336.9688 344.2344,336.875 C344.5,336.7344 344.6406,336.4375 344.6406,336.1563 C344.6406,335.875 344.5156,335.625 344.2969,335.4531 C344.125,335.3281 343.9844,335.2969 343.5313,335.2969 L343.1406,335.2969 L343.5313,334.3125 L347.5781,334.3125 Z M346.875,332.6094 L344.2031,332.6094 L345.5469,329.3438 L346.875,332.6094 Z " fill="#000000"/><text fill="#000000" font-family="sans-serif" font-size="14" font-style="italic" lengthAdjust="spacing" textLength="115" x="359.5" y="337.3467">IntegrationForm</text><line style="stroke:#181818;stroke-width:0.5;" x1="331.5" x2="476.5" y1="348.5" y2="348.5"/><line style="stroke:#181818;stroke-width:0.5;" x1="331.5" x2="476.5" y1="356.5" y2="356.5"/></g><!--MD5=[e8bd804451361bdf2828103342a64f6e]
class WMIntegrationForm--><g id="elem_WMIntegrationForm"><rect codeLine="42" fill="#F1F1F1" height="48" id="WMIntegrationForm" rx="3.5" ry="3.5" style="stroke:#181818;stroke-width:0.5;" width="176" x="220" y="468"/><ellipse cx="235" cy="484" fill="#ADD1B2" rx="11" ry="11" style="stroke:#181818;stroke-width:1.0;"/><path d="M237.3438,479.6719 C236.4063,479.2344 235.8125,479.0938 234.9375,479.0938 C232.3125,479.0938 230.3125,481.1719 230.3125,483.8906 L230.3125,485.0156 C230.3125,487.5938 232.4219,489.4844 235.3125,489.4844 C236.5313,489.4844 237.6875,489.1875 238.4375,488.6406 C239.0156,488.2344 239.3438,487.7813 239.3438,487.3906 C239.3438,486.9375 238.9531,486.5469 238.4844,486.5469 C238.2656,486.5469 238.0625,486.625 237.875,486.8125 C237.4219,487.2969 237.4219,487.2969 237.2344,487.3906 C236.8125,487.6563 236.125,487.7813 235.3594,487.7813 C233.3125,487.7813 232.0156,486.6875 232.0156,484.9844 L232.0156,483.8906 C232.0156,482.1094 233.2656,480.7969 235,480.7969 C235.5781,480.7969 236.1875,480.9531 236.6563,481.2031 C237.1406,481.4844 237.3125,481.7031 237.4063,482.1094 C237.4688,482.5156 237.5,482.6406 237.6406,482.7656 C237.7813,482.9063 238.0156,483.0156 238.2344,483.0156 C238.5,483.0156 238.7656,482.875 238.9375,482.6563 C239.0469,482.5 239.0781,482.3125 239.0781,481.8906 L239.0781,480.4688 C239.0781,480.0313 239.0625,479.9063 238.9688,479.75 C238.8125,479.4844 238.5313,479.3438 238.2344,479.3438 C237.9375,479.3438 237.7344,479.4375 237.5156,479.75 L237.3438,479.6719 Z " fill="#000000"/><text fill="#000000" font-family="sans-serif" font-size="14" lengthAdjust="spacing" textLength="144" x="249" y="488.8467">WMIntegrationForm</text><line style="stroke:#181818;stroke-width:0.5;" x1="221" x2="395" y1="500" y2="500"/><line style="stroke:#181818;stroke-width:0.5;" x1="221" x2="395" y1="508" y2="508"/></g><!--MD5=[d9f1edd1f9f47598c5dc2c3be2fd2bed]
class ATIntegrationForm--><g id="elem_ATIntegrationForm"><rect codeLine="43" fill="#F1F1F1" height="48" id="ATIntegrationForm" rx="3.5" ry="3.5" style="stroke:#181818;stroke-width:0.5;" width="169" x="431.5" y="468"/><ellipse cx="446.5" cy="484" fill="#ADD1B2" rx="11" ry="11" style="stroke:#181818;stroke-width:1.0;"/><path d="M448.8438,479.6719 C447.9063,479.2344 447.3125,479.0938 446.4375,479.0938 C443.8125,479.0938 441.8125,481.1719 441.8125,483.8906 L441.8125,485.0156 C441.8125,487.5938 443.9219,489.4844 446.8125,489.4844 C448.0313,489.4844 449.1875,489.1875 449.9375,488.6406 C450.5156,488.2344 450.8438,487.7813 450.8438,487.3906 C450.8438,486.9375 450.4531,486.5469 449.9844,486.5469 C449.7656,486.5469 449.5625,486.625 449.375,486.8125 C448.9219,487.2969 448.9219,487.2969 448.7344,487.3906 C448.3125,487.6563 447.625,487.7813 446.8594,487.7813 C444.8125,487.7813 443.5156,486.6875 443.5156,484.9844 L443.5156,483.8906 C443.5156,482.1094 444.7656,480.7969 446.5,480.7969 C447.0781,480.7969 447.6875,480.9531 448.1563,481.2031 C448.6406,481.4844 448.8125,481.7031 448.9063,482.1094 C448.9688,482.5156 449,482.6406 449.1406,482.7656 C449.2813,482.9063 449.5156,483.0156 449.7344,483.0156 C450,483.0156 450.2656,482.875 450.4375,482.6563 C450.5469,482.5 450.5781,482.3125 450.5781,481.8906 L450.5781,480.4688 C450.5781,480.0313 450.5625,479.9063 450.4688,479.75 C450.3125,479.4844 450.0313,479.3438 449.7344,479.3438 C449.4375,479.3438 449.2344,479.4375 449.0156,479.75 L448.8438,479.6719 Z " fill="#000000"/><text fill="#000000" font-family="sans-serif" font-size="14" lengthAdjust="spacing" textLength="137" x="460.5" y="488.8467">ATIntegrationForm</text><line style="stroke:#181818;stroke-width:0.5;" x1="432.5" x2="599.5" y1="500" y2="500"/><line style="stroke:#181818;stroke-width:0.5;" x1="432.5" x2="599.5" y1="508" y2="508"/></g><!--MD5=[7ab41f4369bf0cae11db9c2512b021a1]
class SAPIntegrationForm--><g id="elem_SAPIntegrationForm"><rect codeLine="44" fill="#F1F1F1" height="48" id="SAPIntegrationForm" rx="3.5" ry="3.5" style="stroke:#181818;stroke-width:0.5;" width="178" x="7" y="468"/><ellipse cx="22" cy="484" fill="#ADD1B2" rx="11" ry="11" style="stroke:#181818;stroke-width:1.0;"/><path d="M24.3438,479.6719 C23.4063,479.2344 22.8125,479.0938 21.9375,479.0938 C19.3125,479.0938 17.3125,481.1719 17.3125,483.8906 L17.3125,485.0156 C17.3125,487.5938 19.4219,489.4844 22.3125,489.4844 C23.5313,489.4844 24.6875,489.1875 25.4375,488.6406 C26.0156,488.2344 26.3438,487.7813 26.3438,487.3906 C26.3438,486.9375 25.9531,486.5469 25.4844,486.5469 C25.2656,486.5469 25.0625,486.625 24.875,486.8125 C24.4219,487.2969 24.4219,487.2969 24.2344,487.3906 C23.8125,487.6563 23.125,487.7813 22.3594,487.7813 C20.3125,487.7813 19.0156,486.6875 19.0156,484.9844 L19.0156,483.8906 C19.0156,482.1094 20.2656,480.7969 22,480.7969 C22.5781,480.7969 23.1875,480.9531 23.6563,481.2031 C24.1406,481.4844 24.3125,481.7031 24.4063,482.1094 C24.4688,482.5156 24.5,482.6406 24.6406,482.7656 C24.7813,482.9063 25.0156,483.0156 25.2344,483.0156 C25.5,483.0156 25.7656,482.875 25.9375,482.6563 C26.0469,482.5 26.0781,482.3125 26.0781,481.8906 L26.0781,480.4688 C26.0781,480.0313 26.0625,479.9063 25.9688,479.75 C25.8125,479.4844 25.5313,479.3438 25.2344,479.3438 C24.9375,479.3438 24.7344,479.4375 24.5156,479.75 L24.3438,479.6719 Z " fill="#000000"/><text fill="#000000" font-family="sans-serif" font-size="14" lengthAdjust="spacing" textLength="146" x="36" y="488.8467">SAPIntegrationForm</text><line style="stroke:#181818;stroke-width:0.5;" x1="8" x2="184" y1="500" y2="500"/><line style="stroke:#181818;stroke-width:0.5;" x1="8" x2="184" y1="508" y2="508"/></g><!--MD5=[d1091201e13a12b11a3cb5535f23e99a]
class InterfaceForm--><g id="elem_InterfaceForm"><rect codeLine="47" fill="#F1F1F1" height="48" id="InterfaceForm" rx="3.5" ry="3.5" style="stroke:#181818;stroke-width:0.5;" width="133" x="1892.5" y="316.5"/><ellipse cx="1907.5" cy="332.5" fill="#A9DCDF" rx="11" ry="11" style="stroke:#181818;stroke-width:1.0;"/><path d="M1909.5781,334.3125 L1909.9688,335.2969 L1909.5781,335.2969 C1909.125,335.2969 1909.0156,335.3125 1908.8594,335.4219 C1908.6094,335.5781 1908.4531,335.8594 1908.4531,336.1563 C1908.4531,336.4219 1908.5938,336.6719 1908.8125,336.8281 C1908.9531,336.9531 1909.1563,337 1909.5781,337 L1911.9375,337 C1912.2969,337 1912.5156,336.9688 1912.6563,336.875 C1912.9063,336.7344 1913.0625,336.4375 1913.0625,336.1563 C1913.0625,335.875 1912.9219,335.625 1912.7031,335.4688 C1912.5313,335.3281 1912.375,335.2969 1911.9063,335.2969 L1908.5156,327.0938 L1904.8438,327.0938 C1904.3906,327.0938 1904.2656,327.1094 1904.1094,327.2031 C1903.8594,327.375 1903.7031,327.6563 1903.7031,327.9375 C1903.7031,328.2188 1903.8438,328.4688 1904.0625,328.6406 C1904.2344,328.75 1904.4063,328.7813 1904.8438,328.7813 L1905.9219,328.7813 L1903.2813,335.2969 C1902.8594,335.2969 1902.7031,335.3125 1902.5469,335.4219 C1902.2969,335.5781 1902.1406,335.8594 1902.1406,336.1563 C1902.1406,336.7188 1902.5156,337 1903.2656,337 L1905.5313,337 C1905.8906,337 1906.1094,336.9688 1906.2344,336.875 C1906.5,336.7344 1906.6406,336.4375 1906.6406,336.1563 C1906.6406,335.875 1906.5156,335.625 1906.2969,335.4531 C1906.125,335.3281 1905.9844,335.2969 1905.5313,335.2969 L1905.1406,335.2969 L1905.5313,334.3125 L1909.5781,334.3125 Z M1908.875,332.6094 L1906.2031,332.6094 L1907.5469,329.3438 L1908.875,332.6094 Z " fill="#000000"/><text fill="#000000" font-family="sans-serif" font-size="14" font-style="italic" lengthAdjust="spacing" textLength="101" x="1921.5" y="337.3467">InterfaceForm</text><line style="stroke:#181818;stroke-width:0.5;" x1="1893.5" x2="2024.5" y1="348.5" y2="348.5"/><line style="stroke:#181818;stroke-width:0.5;" x1="1893.5" x2="2024.5" y1="356.5" y2="356.5"/></g><!--MD5=[896b2df051cac3ce100396bb8524dd85]
class WMInterfaceForm--><g id="elem_WMInterfaceForm"><rect codeLine="48" fill="#F1F1F1" height="48" id="WMInterfaceForm" rx="3.5" ry="3.5" style="stroke:#181818;stroke-width:0.5;" width="161" x="1977.5" y="468"/><ellipse cx="1992.5" cy="484" fill="#ADD1B2" rx="11" ry="11" style="stroke:#181818;stroke-width:1.0;"/><path d="M1994.8438,479.6719 C1993.9063,479.2344 1993.3125,479.0938 1992.4375,479.0938 C1989.8125,479.0938 1987.8125,481.1719 1987.8125,483.8906 L1987.8125,485.0156 C1987.8125,487.5938 1989.9219,489.4844 1992.8125,489.4844 C1994.0313,489.4844 1995.1875,489.1875 1995.9375,488.6406 C1996.5156,488.2344 1996.8438,487.7813 1996.8438,487.3906 C1996.8438,486.9375 1996.4531,486.5469 1995.9844,486.5469 C1995.7656,486.5469 1995.5625,486.625 1995.375,486.8125 C1994.9219,487.2969 1994.9219,487.2969 1994.7344,487.3906 C1994.3125,487.6563 1993.625,487.7813 1992.8594,487.7813 C1990.8125,487.7813 1989.5156,486.6875 1989.5156,484.9844 L1989.5156,483.8906 C1989.5156,482.1094 1990.7656,480.7969 1992.5,480.7969 C1993.0781,480.7969 1993.6875,480.9531 1994.1563,481.2031 C1994.6406,481.4844 1994.8125,481.7031 1994.9063,482.1094 C1994.9688,482.5156 1995,482.6406 1995.1406,482.7656 C1995.2813,482.9063 1995.5156,483.0156 1995.7344,483.0156 C1996,483.0156 1996.2656,482.875 1996.4375,482.6563 C1996.5469,482.5 1996.5781,482.3125 1996.5781,481.8906 L1996.5781,480.4688 C1996.5781,480.0313 1996.5625,479.9063 1996.4688,479.75 C1996.3125,479.4844 1996.0313,479.3438 1995.7344,479.3438 C1995.4375,479.3438 1995.2344,479.4375 1995.0156,479.75 L1994.8438,479.6719 Z " fill="#000000"/><text fill="#000000" font-family="sans-serif" font-size="14" lengthAdjust="spacing" textLength="129" x="2006.5" y="488.8467">WMInterfaceForm</text><line style="stroke:#181818;stroke-width:0.5;" x1="1978.5" x2="2137.5" y1="500" y2="500"/><line style="stroke:#181818;stroke-width:0.5;" x1="1978.5" x2="2137.5" y1="508" y2="508"/></g><!--MD5=[98b043734a15c6b4cd2db64aa333a0fb]
class ATInterfaceForm--><g id="elem_ATInterfaceForm"><rect codeLine="49" fill="#F1F1F1" height="48" id="ATInterfaceForm" rx="3.5" ry="3.5" style="stroke:#181818;stroke-width:0.5;" width="154" x="2174" y="468"/><ellipse cx="2189" cy="484" fill="#ADD1B2" rx="11" ry="11" style="stroke:#181818;stroke-width:1.0;"/><path d="M2191.3438,479.6719 C2190.4063,479.2344 2189.8125,479.0938 2188.9375,479.0938 C2186.3125,479.0938 2184.3125,481.1719 2184.3125,483.8906 L2184.3125,485.0156 C2184.3125,487.5938 2186.4219,489.4844 2189.3125,489.4844 C2190.5313,489.4844 2191.6875,489.1875 2192.4375,488.6406 C2193.0156,488.2344 2193.3438,487.7813 2193.3438,487.3906 C2193.3438,486.9375 2192.9531,486.5469 2192.4844,486.5469 C2192.2656,486.5469 2192.0625,486.625 2191.875,486.8125 C2191.4219,487.2969 2191.4219,487.2969 2191.2344,487.3906 C2190.8125,487.6563 2190.125,487.7813 2189.3594,487.7813 C2187.3125,487.7813 2186.0156,486.6875 2186.0156,484.9844 L2186.0156,483.8906 C2186.0156,482.1094 2187.2656,480.7969 2189,480.7969 C2189.5781,480.7969 2190.1875,480.9531 2190.6563,481.2031 C2191.1406,481.4844 2191.3125,481.7031 2191.4063,482.1094 C2191.4688,482.5156 2191.5,482.6406 2191.6406,482.7656 C2191.7813,482.9063 2192.0156,483.0156 2192.2344,483.0156 C2192.5,483.0156 2192.7656,482.875 2192.9375,482.6563 C2193.0469,482.5 2193.0781,482.3125 2193.0781,481.8906 L2193.0781,480.4688 C2193.0781,480.0313 2193.0625,479.9063 2192.9688,479.75 C2192.8125,479.4844 2192.5313,479.3438 2192.2344,479.3438 C2191.9375,479.3438 2191.7344,479.4375 2191.5156,479.75 L2191.3438,479.6719 Z " fill="#000000"/><text fill="#000000" font-family="sans-serif" font-size="14" lengthAdjust="spacing" textLength="122" x="2203" y="488.8467">ATInterfaceForm</text><line style="stroke:#181818;stroke-width:0.5;" x1="2175" x2="2327" y1="500" y2="500"/><line style="stroke:#181818;stroke-width:0.5;" x1="2175" x2="2327" y1="508" y2="508"/></g><!--MD5=[1d0f6a6be68758a725dd512697eed99d]
class SAPInterfaceForm--><g id="elem_SAPInterfaceForm"><rect codeLine="50" fill="#F1F1F1" height="48" id="SAPInterfaceForm" rx="3.5" ry="3.5" style="stroke:#181818;stroke-width:0.5;" width="163" x="1779.5" y="468"/><ellipse cx="1794.5" cy="484" fill="#ADD1B2" rx="11" ry="11" style="stroke:#181818;stroke-width:1.0;"/><path d="M1796.8438,479.6719 C1795.9063,479.2344 1795.3125,479.0938 1794.4375,479.0938 C1791.8125,479.0938 1789.8125,481.1719 1789.8125,483.8906 L1789.8125,485.0156 C1789.8125,487.5938 1791.9219,489.4844 1794.8125,489.4844 C1796.0313,489.4844 1797.1875,489.1875 1797.9375,488.6406 C1798.5156,488.2344 1798.8438,487.7813 1798.8438,487.3906 C1798.8438,486.9375 1798.4531,486.5469 1797.9844,486.5469 C1797.7656,486.5469 1797.5625,486.625 1797.375,486.8125 C1796.9219,487.2969 1796.9219,487.2969 1796.7344,487.3906 C1796.3125,487.6563 1795.625,487.7813 1794.8594,487.7813 C1792.8125,487.7813 1791.5156,486.6875 1791.5156,484.9844 L1791.5156,483.8906 C1791.5156,482.1094 1792.7656,480.7969 1794.5,480.7969 C1795.0781,480.7969 1795.6875,480.9531 1796.1563,481.2031 C1796.6406,481.4844 1796.8125,481.7031 1796.9063,482.1094 C1796.9688,482.5156 1797,482.6406 1797.1406,482.7656 C1797.2813,482.9063 1797.5156,483.0156 1797.7344,483.0156 C1798,483.0156 1798.2656,482.875 1798.4375,482.6563 C1798.5469,482.5 1798.5781,482.3125 1798.5781,481.8906 L1798.5781,480.4688 C1798.5781,480.0313 1798.5625,479.9063 1798.4688,479.75 C1798.3125,479.4844 1798.0313,479.3438 1797.7344,479.3438 C1797.4375,479.3438 1797.2344,479.4375 1797.0156,479.75 L1796.8438,479.6719 Z " fill="#000000"/><text fill="#000000" font-family="sans-serif" font-size="14" lengthAdjust="spacing" textLength="131" x="1808.5" y="488.8467">SAPInterfaceForm</text><line style="stroke:#181818;stroke-width:0.5;" x1="1780.5" x2="1941.5" y1="500" y2="500"/><line style="stroke:#181818;stroke-width:0.5;" x1="1780.5" x2="1941.5" y1="508" y2="508"/></g><!--MD5=[9af42464beca7ad465fc2bb030e8f363]
class ConnectionForm--><g id="elem_ConnectionForm"><rect codeLine="53" fill="#F1F1F1" height="48" id="ConnectionForm" rx="3.5" ry="3.5" style="stroke:#181818;stroke-width:0.5;" width="150" x="2604" y="316.5"/><ellipse cx="2619" cy="332.5" fill="#A9DCDF" rx="11" ry="11" style="stroke:#181818;stroke-width:1.0;"/><path d="M2621.0781,334.3125 L2621.4688,335.2969 L2621.0781,335.2969 C2620.625,335.2969 2620.5156,335.3125 2620.3594,335.4219 C2620.1094,335.5781 2619.9531,335.8594 2619.9531,336.1563 C2619.9531,336.4219 2620.0938,336.6719 2620.3125,336.8281 C2620.4531,336.9531 2620.6563,337 2621.0781,337 L2623.4375,337 C2623.7969,337 2624.0156,336.9688 2624.1563,336.875 C2624.4063,336.7344 2624.5625,336.4375 2624.5625,336.1563 C2624.5625,335.875 2624.4219,335.625 2624.2031,335.4688 C2624.0313,335.3281 2623.875,335.2969 2623.4063,335.2969 L2620.0156,327.0938 L2616.3438,327.0938 C2615.8906,327.0938 2615.7656,327.1094 2615.6094,327.2031 C2615.3594,327.375 2615.2031,327.6563 2615.2031,327.9375 C2615.2031,328.2188 2615.3438,328.4688 2615.5625,328.6406 C2615.7344,328.75 2615.9063,328.7813 2616.3438,328.7813 L2617.4219,328.7813 L2614.7813,335.2969 C2614.3594,335.2969 2614.2031,335.3125 2614.0469,335.4219 C2613.7969,335.5781 2613.6406,335.8594 2613.6406,336.1563 C2613.6406,336.7188 2614.0156,337 2614.7656,337 L2617.0313,337 C2617.3906,337 2617.6094,336.9688 2617.7344,336.875 C2618,336.7344 2618.1406,336.4375 2618.1406,336.1563 C2618.1406,335.875 2618.0156,335.625 2617.7969,335.4531 C2617.625,335.3281 2617.4844,335.2969 2617.0313,335.2969 L2616.6406,335.2969 L2617.0313,334.3125 L2621.0781,334.3125 Z M2620.375,332.6094 L2617.7031,332.6094 L2619.0469,329.3438 L2620.375,332.6094 Z " fill="#000000"/><text fill="#000000" font-family="sans-serif" font-size="14" font-style="italic" lengthAdjust="spacing" textLength="118" x="2633" y="337.3467">ConnectionForm</text><line style="stroke:#181818;stroke-width:0.5;" x1="2605" x2="2753" y1="348.5" y2="348.5"/><line style="stroke:#181818;stroke-width:0.5;" x1="2605" x2="2753" y1="356.5" y2="356.5"/></g><!--MD5=[d5d6cb2f266241dc71a59b834b468050]
class WMConnectionForm--><g id="elem_WMConnectionForm"><rect codeLine="54" fill="#F1F1F1" height="48" id="WMConnectionForm" rx="3.5" ry="3.5" style="stroke:#181818;stroke-width:0.5;" width="178" x="2599" y="468"/><ellipse cx="2614" cy="484" fill="#ADD1B2" rx="11" ry="11" style="stroke:#181818;stroke-width:1.0;"/><path d="M2616.3438,479.6719 C2615.4063,479.2344 2614.8125,479.0938 2613.9375,479.0938 C2611.3125,479.0938 2609.3125,481.1719 2609.3125,483.8906 L2609.3125,485.0156 C2609.3125,487.5938 2611.4219,489.4844 2614.3125,489.4844 C2615.5313,489.4844 2616.6875,489.1875 2617.4375,488.6406 C2618.0156,488.2344 2618.3438,487.7813 2618.3438,487.3906 C2618.3438,486.9375 2617.9531,486.5469 2617.4844,486.5469 C2617.2656,486.5469 2617.0625,486.625 2616.875,486.8125 C2616.4219,487.2969 2616.4219,487.2969 2616.2344,487.3906 C2615.8125,487.6563 2615.125,487.7813 2614.3594,487.7813 C2612.3125,487.7813 2611.0156,486.6875 2611.0156,484.9844 L2611.0156,483.8906 C2611.0156,482.1094 2612.2656,480.7969 2614,480.7969 C2614.5781,480.7969 2615.1875,480.9531 2615.6563,481.2031 C2616.1406,481.4844 2616.3125,481.7031 2616.4063,482.1094 C2616.4688,482.5156 2616.5,482.6406 2616.6406,482.7656 C2616.7813,482.9063 2617.0156,483.0156 2617.2344,483.0156 C2617.5,483.0156 2617.7656,482.875 2617.9375,482.6563 C2618.0469,482.5 2618.0781,482.3125 2618.0781,481.8906 L2618.0781,480.4688 C2618.0781,480.0313 2618.0625,479.9063 2617.9688,479.75 C2617.8125,479.4844 2617.5313,479.3438 2617.2344,479.3438 C2616.9375,479.3438 2616.7344,479.4375 2616.5156,479.75 L2616.3438,479.6719 Z " fill="#000000"/><text fill="#000000" font-family="sans-serif" font-size="14" lengthAdjust="spacing" textLength="146" x="2628" y="488.8467">WMConnectionForm</text><line style="stroke:#181818;stroke-width:0.5;" x1="2600" x2="2776" y1="500" y2="500"/><line style="stroke:#181818;stroke-width:0.5;" x1="2600" x2="2776" y1="508" y2="508"/></g><!--MD5=[838d21c9b22cd90913621a584972295b]
class ATConnectionForm--><g id="elem_ATConnectionForm"><rect codeLine="55" fill="#F1F1F1" height="48" id="ATConnectionForm" rx="3.5" ry="3.5" style="stroke:#181818;stroke-width:0.5;" width="171" x="2812.5" y="468"/><ellipse cx="2827.5" cy="484" fill="#ADD1B2" rx="11" ry="11" style="stroke:#181818;stroke-width:1.0;"/><path d="M2829.8438,479.6719 C2828.9063,479.2344 2828.3125,479.0938 2827.4375,479.0938 C2824.8125,479.0938 2822.8125,481.1719 2822.8125,483.8906 L2822.8125,485.0156 C2822.8125,487.5938 2824.9219,489.4844 2827.8125,489.4844 C2829.0313,489.4844 2830.1875,489.1875 2830.9375,488.6406 C2831.5156,488.2344 2831.8438,487.7813 2831.8438,487.3906 C2831.8438,486.9375 2831.4531,486.5469 2830.9844,486.5469 C2830.7656,486.5469 2830.5625,486.625 2830.375,486.8125 C2829.9219,487.2969 2829.9219,487.2969 2829.7344,487.3906 C2829.3125,487.6563 2828.625,487.7813 2827.8594,487.7813 C2825.8125,487.7813 2824.5156,486.6875 2824.5156,484.9844 L2824.5156,483.8906 C2824.5156,482.1094 2825.7656,480.7969 2827.5,480.7969 C2828.0781,480.7969 2828.6875,480.9531 2829.1563,481.2031 C2829.6406,481.4844 2829.8125,481.7031 2829.9063,482.1094 C2829.9688,482.5156 2830,482.6406 2830.1406,482.7656 C2830.2813,482.9063 2830.5156,483.0156 2830.7344,483.0156 C2831,483.0156 2831.2656,482.875 2831.4375,482.6563 C2831.5469,482.5 2831.5781,482.3125 2831.5781,481.8906 L2831.5781,480.4688 C2831.5781,480.0313 2831.5625,479.9063 2831.4688,479.75 C2831.3125,479.4844 2831.0313,479.3438 2830.7344,479.3438 C2830.4375,479.3438 2830.2344,479.4375 2830.0156,479.75 L2829.8438,479.6719 Z " fill="#000000"/><text fill="#000000" font-family="sans-serif" font-size="14" lengthAdjust="spacing" textLength="139" x="2841.5" y="488.8467">ATConnectionForm</text><line style="stroke:#181818;stroke-width:0.5;" x1="2813.5" x2="2982.5" y1="500" y2="500"/><line style="stroke:#181818;stroke-width:0.5;" x1="2813.5" x2="2982.5" y1="508" y2="508"/></g><!--MD5=[57d648688bcde94d34cc8eaf67789c90]
class SAPConnectionForm--><g id="elem_SAPConnectionForm"><rect codeLine="56" fill="#F1F1F1" height="48" id="SAPConnectionForm" rx="3.5" ry="3.5" style="stroke:#181818;stroke-width:0.5;" width="180" x="2384" y="468"/><ellipse cx="2399" cy="484" fill="#ADD1B2" rx="11" ry="11" style="stroke:#181818;stroke-width:1.0;"/><path d="M2401.3438,479.6719 C2400.4063,479.2344 2399.8125,479.0938 2398.9375,479.0938 C2396.3125,479.0938 2394.3125,481.1719 2394.3125,483.8906 L2394.3125,485.0156 C2394.3125,487.5938 2396.4219,489.4844 2399.3125,489.4844 C2400.5313,489.4844 2401.6875,489.1875 2402.4375,488.6406 C2403.0156,488.2344 2403.3438,487.7813 2403.3438,487.3906 C2403.3438,486.9375 2402.9531,486.5469 2402.4844,486.5469 C2402.2656,486.5469 2402.0625,486.625 2401.875,486.8125 C2401.4219,487.2969 2401.4219,487.2969 2401.2344,487.3906 C2400.8125,487.6563 2400.125,487.7813 2399.3594,487.7813 C2397.3125,487.7813 2396.0156,486.6875 2396.0156,484.9844 L2396.0156,483.8906 C2396.0156,482.1094 2397.2656,480.7969 2399,480.7969 C2399.5781,480.7969 2400.1875,480.9531 2400.6563,481.2031 C2401.1406,481.4844 2401.3125,481.7031 2401.4063,482.1094 C2401.4688,482.5156 2401.5,482.6406 2401.6406,482.7656 C2401.7813,482.9063 2402.0156,483.0156 2402.2344,483.0156 C2402.5,483.0156 2402.7656,482.875 2402.9375,482.6563 C2403.0469,482.5 2403.0781,482.3125 2403.0781,481.8906 L2403.0781,480.4688 C2403.0781,480.0313 2403.0625,479.9063 2402.9688,479.75 C2402.8125,479.4844 2402.5313,479.3438 2402.2344,479.3438 C2401.9375,479.3438 2401.7344,479.4375 2401.5156,479.75 L2401.3438,479.6719 Z " fill="#000000"/><text fill="#000000" font-family="sans-serif" font-size="14" lengthAdjust="spacing" textLength="148" x="2413" y="488.8467">SAPConnectionForm</text><line style="stroke:#181818;stroke-width:0.5;" x1="2385" x2="2563" y1="500" y2="500"/><line style="stroke:#181818;stroke-width:0.5;" x1="2385" x2="2563" y1="508" y2="508"/></g><!--MD5=[d70b4ba1fa94ecf19591ab9d321b9188]
class ReactNode--><g id="elem_ReactNode"><rect codeLine="2" fill="#F1F1F1" height="64.2969" id="ReactNode" rx="3.5" ry="3.5" style="stroke:#181818;stroke-width:0.5;" width="111" x="1308.5" y="7"/><ellipse cx="1323.5" cy="23" fill="#ADD1B2" rx="11" ry="11" style="stroke:#181818;stroke-width:1.0;"/><path d="M1325.8438,18.6719 C1324.9063,18.2344 1324.3125,18.0938 1323.4375,18.0938 C1320.8125,18.0938 1318.8125,20.1719 1318.8125,22.8906 L1318.8125,24.0156 C1318.8125,26.5938 1320.9219,28.4844 1323.8125,28.4844 C1325.0313,28.4844 1326.1875,28.1875 1326.9375,27.6406 C1327.5156,27.2344 1327.8438,26.7813 1327.8438,26.3906 C1327.8438,25.9375 1327.4531,25.5469 1326.9844,25.5469 C1326.7656,25.5469 1326.5625,25.625 1326.375,25.8125 C1325.9219,26.2969 1325.9219,26.2969 1325.7344,26.3906 C1325.3125,26.6563 1324.625,26.7813 1323.8594,26.7813 C1321.8125,26.7813 1320.5156,25.6875 1320.5156,23.9844 L1320.5156,22.8906 C1320.5156,21.1094 1321.7656,19.7969 1323.5,19.7969 C1324.0781,19.7969 1324.6875,19.9531 1325.1563,20.2031 C1325.6406,20.4844 1325.8125,20.7031 1325.9063,21.1094 C1325.9688,21.5156 1326,21.6406 1326.1406,21.7656 C1326.2813,21.9063 1326.5156,22.0156 1326.7344,22.0156 C1327,22.0156 1327.2656,21.875 1327.4375,21.6563 C1327.5469,21.5 1327.5781,21.3125 1327.5781,20.8906 L1327.5781,19.4688 C1327.5781,19.0313 1327.5625,18.9063 1327.4688,18.75 C1327.3125,18.4844 1327.0313,18.3438 1326.7344,18.3438 C1326.4375,18.3438 1326.2344,18.4375 1326.0156,18.75 L1325.8438,18.6719 Z " fill="#000000"/><text fill="#000000" font-family="sans-serif" font-size="14" lengthAdjust="spacing" textLength="79" x="1337.5" y="27.8467">ReactNode</text><line style="stroke:#181818;stroke-width:0.5;" x1="1309.5" x2="1418.5" y1="39" y2="39"/><line style="stroke:#181818;stroke-width:0.5;" x1="1309.5" x2="1418.5" y1="47" y2="47"/><ellipse cx="1319.5" cy="60.6484" fill="#84BE84" rx="3" ry="3" style="stroke:#038048;stroke-width:1.0;"/><text fill="#000000" font-family="sans-serif" font-size="14" lengthAdjust="spacing" textLength="58" x="1328.5" y="63.9951">render()</text></g><!--MD5=[21db92560aa5d404ef6e7917bc22a199]
class EditPartner--><g id="elem_EditPartner"><rect codeLine="5" fill="#F1F1F1" height="80.5938" id="EditPartner" rx="3.5" ry="3.5" style="stroke:#181818;stroke-width:0.5;" width="271" x="353.5" y="142"/><ellipse cx="443.25" cy="158" fill="#ADD1B2" rx="11" ry="11" style="stroke:#181818;stroke-width:1.0;"/><path d="M445.5938,153.6719 C444.6563,153.2344 444.0625,153.0938 443.1875,153.0938 C440.5625,153.0938 438.5625,155.1719 438.5625,157.8906 L438.5625,159.0156 C438.5625,161.5938 440.6719,163.4844 443.5625,163.4844 C444.7813,163.4844 445.9375,163.1875 446.6875,162.6406 C447.2656,162.2344 447.5938,161.7813 447.5938,161.3906 C447.5938,160.9375 447.2031,160.5469 446.7344,160.5469 C446.5156,160.5469 446.3125,160.625 446.125,160.8125 C445.6719,161.2969 445.6719,161.2969 445.4844,161.3906 C445.0625,161.6563 444.375,161.7813 443.6094,161.7813 C441.5625,161.7813 440.2656,160.6875 440.2656,158.9844 L440.2656,157.8906 C440.2656,156.1094 441.5156,154.7969 443.25,154.7969 C443.8281,154.7969 444.4375,154.9531 444.9063,155.2031 C445.3906,155.4844 445.5625,155.7031 445.6563,156.1094 C445.7188,156.5156 445.75,156.6406 445.8906,156.7656 C446.0313,156.9063 446.2656,157.0156 446.4844,157.0156 C446.75,157.0156 447.0156,156.875 447.1875,156.6563 C447.2969,156.5 447.3281,156.3125 447.3281,155.8906 L447.3281,154.4688 C447.3281,154.0313 447.3125,153.9063 447.2188,153.75 C447.0625,153.4844 446.7813,153.3438 446.4844,153.3438 C446.1875,153.3438 445.9844,153.4375 445.7656,153.75 L445.5938,153.6719 Z " fill="#000000"/><text fill="#000000" font-family="sans-serif" font-size="14" lengthAdjust="spacing" textLength="83" x="463.75" y="162.8467">EditPartner</text><line style="stroke:#181818;stroke-width:0.5;" x1="354.5" x2="623.5" y1="174" y2="174"/><rect fill="none" height="6" style="stroke:#C82930;stroke-width:1.0;" width="6" x="361.5" y="184.6484"/><text fill="#000000" font-family="sans-serif" font-size="14" lengthAdjust="spacing" textLength="189" x="373.5" y="190.9951">formFactory: FormFactory</text><line style="stroke:#181818;stroke-width:0.5;" x1="354.5" x2="623.5" y1="198.2969" y2="198.2969"/><ellipse cx="364.5" cy="211.9453" fill="#84BE84" rx="3" ry="3" style="stroke:#038048;stroke-width:1.0;"/><text fill="#000000" font-family="sans-serif" font-size="14" lengthAdjust="spacing" textLength="245" x="373.5" y="215.292">EditPartner(factory: FormFactory)</text></g><!--MD5=[d94a8cd029bfc0194b29eb7ddbc6b65d]
class DraftableForm--><g id="elem_DraftableForm"><rect codeLine="34" fill="#F1F1F1" height="96.8906" id="DraftableForm" rx="3.5" ry="3.5" style="stroke:#181818;stroke-width:0.5;" width="163" x="1816.5" y="134"/><ellipse cx="1843.65" cy="150" fill="#A9DCDF" rx="11" ry="11" style="stroke:#181818;stroke-width:1.0;"/><path d="M1845.7281,151.8125 L1846.1188,152.7969 L1845.7281,152.7969 C1845.275,152.7969 1845.1656,152.8125 1845.0094,152.9219 C1844.7594,153.0781 1844.6031,153.3594 1844.6031,153.6563 C1844.6031,153.9219 1844.7438,154.1719 1844.9625,154.3281 C1845.1031,154.4531 1845.3063,154.5 1845.7281,154.5 L1848.0875,154.5 C1848.4469,154.5 1848.6656,154.4688 1848.8063,154.375 C1849.0563,154.2344 1849.2125,153.9375 1849.2125,153.6563 C1849.2125,153.375 1849.0719,153.125 1848.8531,152.9688 C1848.6813,152.8281 1848.525,152.7969 1848.0563,152.7969 L1844.6656,144.5938 L1840.9938,144.5938 C1840.5406,144.5938 1840.4156,144.6094 1840.2594,144.7031 C1840.0094,144.875 1839.8531,145.1563 1839.8531,145.4375 C1839.8531,145.7188 1839.9938,145.9688 1840.2125,146.1406 C1840.3844,146.25 1840.5563,146.2813 1840.9938,146.2813 L1842.0719,146.2813 L1839.4313,152.7969 C1839.0094,152.7969 1838.8531,152.8125 1838.6969,152.9219 C1838.4469,153.0781 1838.2906,153.3594 1838.2906,153.6563 C1838.2906,154.2188 1838.6656,154.5 1839.4156,154.5 L1841.6813,154.5 C1842.0406,154.5 1842.2594,154.4688 1842.3844,154.375 C1842.65,154.2344 1842.7906,153.9375 1842.7906,153.6563 C1842.7906,153.375 1842.6656,153.125 1842.4469,152.9531 C1842.275,152.8281 1842.1344,152.7969 1841.6813,152.7969 L1841.2906,152.7969 L1841.6813,151.8125 L1845.7281,151.8125 Z M1845.025,150.1094 L1842.3531,150.1094 L1843.6969,146.8438 L1845.025,150.1094 Z " fill="#000000"/><text fill="#000000" font-family="sans-serif" font-size="14" font-style="italic" lengthAdjust="spacing" textLength="104" x="1860.35" y="154.8467">DraftableForm</text><line style="stroke:#181818;stroke-width:0.5;" x1="1817.5" x2="1978.5" y1="166" y2="166"/><line style="stroke:#181818;stroke-width:0.5;" x1="1817.5" x2="1978.5" y1="174" y2="174"/><ellipse cx="1827.5" cy="187.6484" fill="#84BE84" rx="3" ry="3" style="stroke:#038048;stroke-width:1.0;"/><text fill="#000000" font-family="sans-serif" font-size="14" lengthAdjust="spacing" textLength="80" x="1836.5" y="190.9951">saveDraft()</text><ellipse cx="1827.5" cy="203.9453" fill="#84BE84" rx="3" ry="3" style="stroke:#038048;stroke-width:1.0;"/><text fill="#000000" font-family="sans-serif" font-size="14" lengthAdjust="spacing" textLength="80" x="1836.5" y="207.292">readDraft()</text><ellipse cx="1827.5" cy="220.2422" fill="#84BE84" rx="3" ry="3" style="stroke:#038048;stroke-width:1.0;"/><text fill="#000000" font-family="sans-serif" font-size="14" font-style="italic" lengthAdjust="spacing" textLength="137" x="1836.5" y="223.5889">generateDraftKey()</text></g><!--MD5=[b39d6d8e81be1f6ce7c22f9dd72b7146]
reverse link ReactNode to EditPartner--><g id="link_ReactNode_EditPartner"><path d="M1287.98,44.06 C1128,53.143 761.378,76.93 641,110 C613.582,117.532 585.001,129.698 560.119,141.876 " fill="none" id="ReactNode-backto-EditPartner" style="stroke:#454645;stroke-width:1.0;"/><polygon fill="none" points="1287.88,37.055,1308.24,42.926,1288.67,51.033,1287.88,37.055" style="stroke:#454645;stroke-width:1.0;"/></g><!--MD5=[e9a17021c67393937e555b5d60cd66b1]
reverse link FormFactory to WMFormFactory--><g id="link_FormFactory_WMFormFactory"><path d="M1091.97,245.105 C1108.13,260.658 1125.22,277.123 1140.54,291.87 " fill="none" id="FormFactory-backto-WMFormFactory" style="stroke:#454645;stroke-width:1.0;stroke-dasharray:7.0,7.0;"/><polygon fill="none" points="1087.04,250.068,1077.49,231.153,1096.75,239.983,1087.04,250.068" style="stroke:#454645;stroke-width:1.0;"/></g><!--MD5=[de994ff78e39ebe60af8db9203346bc6]
reverse link FormFactory to ATFormFactory--><g id="link_FormFactory_ATFormFactory"><path d="M1208.69,236.784 C1269.38,254.681 1336.63,274.515 1395.73,291.943 " fill="none" id="FormFactory-backto-ATFormFactory" style="stroke:#454645;stroke-width:1.0;stroke-dasharray:7.0,7.0;"/><polygon fill="none" points="1206.44,243.418,1189.23,231.047,1210.4,229.99,1206.44,243.418" style="stroke:#454645;stroke-width:1.0;"/></g><!--MD5=[04499863f9686ca8872c256d32842920]
reverse link FormFactory to SAPFormFactory--><g id="link_FormFactory_SAPFormFactory"><path d="M949.23,243.442 C928.154,259.48 905.662,276.596 885.59,291.87 " fill="none" id="FormFactory-backto-SAPFormFactory" style="stroke:#454645;stroke-width:1.0;stroke-dasharray:7.0,7.0;"/><polygon fill="none" points="945.225,237.694,965.379,231.153,953.703,248.835,945.225,237.694" style="stroke:#454645;stroke-width:1.0;"/></g><!--MD5=[7141f2c3a3ba2c28bf4789619100ed05]
reverse link ReactNode to DraftableForm--><g id="link_ReactNode_DraftableForm"><path d="M1439.56,48.728 C1516.22,58.826 1637.69,78.264 1739,110 C1764.71,118.052 1791.76,129.148 1816.11,140.197 " fill="none" id="ReactNode-backto-DraftableForm" style="stroke:#454645;stroke-width:1.0;"/><polygon fill="none" points="1438.6,55.663,1419.65,46.184,1440.38,41.776,1438.6,55.663" style="stroke:#454645;stroke-width:1.0;"/></g><!--MD5=[3f8d1d183a92460b1ec84009a33e1124]
reverse link DraftableForm to IntegrationForm--><g id="link_DraftableForm_IntegrationForm"><path d="M1796.89,217.561 C1777.85,222.872 1757.96,227.689 1739,231 C1257.53,315.085 1125.84,230.265 641,292 C585.843,299.023 524.293,311.501 477.743,321.905 " fill="none" id="DraftableForm-backto-IntegrationForm" style="stroke:#454645;stroke-width:1.0;"/><polygon fill="none" points="1795.2,210.763,1816.36,211.889,1799.11,224.204,1795.2,210.763" style="stroke:#454645;stroke-width:1.0;"/></g><!--MD5=[2de62c6caf12cbf99b67d5f17feae6a4]
reverse link IntegrationForm to WMIntegrationForm--><g id="link_IntegrationForm_WMIntegrationForm"><path d="M378.22,381.648 C360.545,409.171 337.714,444.727 322.965,467.6958 " fill="none" id="IntegrationForm-backto-WMIntegrationForm" style="stroke:#454645;stroke-width:1.0;"/><polygon fill="none" points="372.514,377.578,389.21,364.532,384.294,385.143,372.514,377.578" style="stroke:#454645;stroke-width:1.0;"/></g><!--MD5=[086080cfa5fdc2df017360dcb6943eea]
reverse link IntegrationForm to ATIntegrationForm--><g id="link_IntegrationForm_ATIntegrationForm"><path d="M433.487,380.86 C454.186,408.49 481.169,444.507 498.541,467.6958 " fill="none" id="IntegrationForm-backto-ATIntegrationForm" style="stroke:#454645;stroke-width:1.0;"/><polygon fill="none" points="427.644,384.735,421.255,364.532,438.848,376.341,427.644,384.735" style="stroke:#454645;stroke-width:1.0;"/></g><!--MD5=[9103075a747320b8544aa5a0f673abf3]
reverse link IntegrationForm to SAPIntegrationForm--><g id="link_IntegrationForm_SAPIntegrationForm"><path d="M338.54,373.274 C280.05,401.664 195.753,442.581 143.504,467.9421 " fill="none" id="IntegrationForm-backto-SAPIntegrationForm" style="stroke:#454645;stroke-width:1.0;"/><polygon fill="none" points="335.501,366.968,356.55,364.532,341.614,379.563,335.501,366.968" style="stroke:#454645;stroke-width:1.0;"/></g><!--MD5=[d483caa2584cb053e8015b24e492f8b5]
reverse link DraftableForm to InterfaceForm--><g id="link_DraftableForm_InterfaceForm"><path d="M1924.04,250.093 C1933.3,273.784 1943.13,298.908 1950,316.471 " fill="none" id="DraftableForm-backto-InterfaceForm" style="stroke:#454645;stroke-width:1.0;"/><polygon fill="none" points="1917.4,252.329,1916.63,231.153,1930.44,247.23,1917.4,252.329" style="stroke:#454645;stroke-width:1.0;"/></g><!--MD5=[04c5c8729def7e26b06a056971ea3d42]
reverse link InterfaceForm to WMInterfaceForm--><g id="link_InterfaceForm_WMInterfaceForm"><path d="M1985.32,381.253 C2003.59,408.831 2027.28,444.617 2042.57,467.6958 " fill="none" id="InterfaceForm-backto-WMInterfaceForm" style="stroke:#454645;stroke-width:1.0;"/><polygon fill="none" points="1979.46,385.072,1974.25,364.532,1991.13,377.342,1979.46,385.072" style="stroke:#454645;stroke-width:1.0;"/></g><!--MD5=[cea65c25dd0738bf13e53fcde15b0115]
reverse link InterfaceForm to ATInterfaceForm--><g id="link_InterfaceForm_ATInterfaceForm"><path d="M2022.14,373.828 C2077.55,402.195 2156.75,442.746 2205.96,467.9421 " fill="none" id="InterfaceForm-backto-ATInterfaceForm" style="stroke:#454645;stroke-width:1.0;"/><polygon fill="none" points="2018.6,379.877,2003.99,364.532,2024.98,367.416,2018.6,379.877" style="stroke:#454645;stroke-width:1.0;"/></g><!--MD5=[2b7b16ddeeced83c76721e0f6cb1647d]
reverse link InterfaceForm to SAPInterfaceForm--><g id="link_InterfaceForm_SAPInterfaceForm"><path d="M1932.68,381.648 C1914.64,409.171 1891.33,444.727 1876.28,467.6958 " fill="none" id="InterfaceForm-backto-SAPInterfaceForm" style="stroke:#454645;stroke-width:1.0;"/><polygon fill="none" points="1927.08,377.421,1943.9,364.532,1938.79,385.096,1927.08,377.421" style="stroke:#454645;stroke-width:1.0;"/></g><!--MD5=[2d3407dd1f5aa43aab555654911369e0]
reverse link DraftableForm to ConnectionForm--><g id="link_DraftableForm_ConnectionForm"><path d="M1999.81,203.835 C2158.97,235.628 2463.08,296.372 2603.95,324.509 " fill="none" id="DraftableForm-backto-ConnectionForm" style="stroke:#454645;stroke-width:1.0;"/><polygon fill="none" points="1997.98,210.608,1979.74,199.827,2000.72,196.88,1997.98,210.608" style="stroke:#454645;stroke-width:1.0;"/></g><!--MD5=[bcdf36991a970fec7f81757641174000]
reverse link ConnectionForm to WMConnectionForm--><g id="link_ConnectionForm_WMConnectionForm"><path d="M2681.61,384.842 C2683.24,411.875 2685.27,445.606 2686.6,467.6958 " fill="none" id="ConnectionForm-backto-WMConnectionForm" style="stroke:#454645;stroke-width:1.0;"/><polygon fill="none" points="2674.6,384.916,2680.39,364.532,2688.58,384.075,2674.6,384.916" style="stroke:#454645;stroke-width:1.0;"/></g><!--MD5=[8fab3aca146b105d76655c6f8b377b40]
reverse link ConnectionForm to ATConnectionForm--><g id="link_ConnectionForm_ATConnectionForm"><path d="M2729.37,375.888 C2770.75,404.13 2828.2,443.35 2864.22,467.9421 " fill="none" id="ConnectionForm-backto-ATConnectionForm" style="stroke:#454645;stroke-width:1.0;"/><polygon fill="none" points="2725.31,381.589,2712.74,364.532,2733.2,370.027,2725.31,381.589" style="stroke:#454645;stroke-width:1.0;"/></g><!--MD5=[4854dbc2e691bda94dacff51d7f76f72]
reverse link ConnectionForm to SAPConnectionForm--><g id="link_ConnectionForm_SAPConnectionForm"><path d="M2685.69,384.615 C2686.15,402.959 2683.15,423.434 2671,438 C2663.6,446.872 2612.55,460.4716 2564.28,471.6731 " fill="none" id="ConnectionForm-backto-SAPConnectionForm" style="stroke:#454645;stroke-width:1.0;"/><polygon fill="none" points="2678.71,385.079,2683.92,364.541,2692.65,383.848,2678.71,385.079" style="stroke:#454645;stroke-width:1.0;"/></g><!--MD5=[15b5f9f2ee86340107aa8d941c4fa778]
link EditPartner to FormFactory--><g id="link_EditPartner_FormFactory"><path codeLine="59" d="M624.664,182.5 C695.014,182.5 781.67,182.5 856.606,182.5 " fill="none" id="EditPartner-to-FormFactory" style="stroke:#454645;stroke-width:1.0;stroke-dasharray:7.0,7.0;"/><polygon fill="#454645" points="861.981,182.5,852.981,178.5,856.981,182.5,852.981,186.5,861.981,182.5" style="stroke:#454645;stroke-width:1.0;"/><text fill="#000000" font-family="sans-serif" font-size="13" lengthAdjust="spacing" textLength="39" x="723.75" y="175.5669">use</text></g><!--MD5=[4d985a2049a417464d06896a1c2c0b78]
link WMFormFactory to WMIntegrationForm--><g id="link_WMFormFactory_WMIntegrationForm"><path codeLine="61" d="M1082.13,389.152 C1057.52,398.405 1031.18,407.06 1006,413 C989.93,416.791 430.322,465.4805 414,468 C409.786,468.6504 405.489,469.3657 401.156,470.1292 " fill="none" id="WMFormFactory-to-WMIntegrationForm" style="stroke:#454645;stroke-width:1.0;stroke-dasharray:7.0,7.0;"/><polygon fill="#454645" points="396.055,471.0468,405.6212,473.3893,400.9759,470.1611,404.2041,465.5158,396.055,471.0468" style="stroke:#454645;stroke-width:1.0;"/><text fill="#000000" font-family="sans-serif" font-size="13" lengthAdjust="spacing" textLength="39" x="930" y="434.0669">use</text></g><!--MD5=[3cd21760ecab051752653d07acb9a7e0]
link WMFormFactory to WMInterfaceForm--><g id="link_WMFormFactory_WMInterfaceForm"><path codeLine="62" d="M1266.06,389.11 C1299.94,407.857 1341.15,427.407 1381,438 C1630.03,504.1936 1704.88,431.751 1960,468 C1964.1,468.5831 1968.29,469.2556 1972.5,469.9959 " fill="none" id="WMFormFactory-to-WMInterfaceForm" style="stroke:#454645;stroke-width:1.0;stroke-dasharray:7.0,7.0;"/><polygon fill="#454645" points="1977.46,470.8949,1969.3267,465.3407,1972.5416,469.9952,1967.8871,473.2101,1977.46,470.8949" style="stroke:#454645;stroke-width:1.0;"/><text fill="#000000" font-family="sans-serif" font-size="13" lengthAdjust="spacing" textLength="39" x="1382" y="434.0669">use</text></g><!--MD5=[883aa10a15235aa51f4ae2d615b87ff9]
link WMFormFactory to WMConnectionForm--><g id="link_WMFormFactory_WMConnectionForm"><path codeLine="63" d="M1292.56,389.115 C1318.28,398.937 1346.2,407.851 1373,413 C1433.51,424.627 2421.25,410.735 2482,421 C2483.78,421.301 2556.97,446.229 2615.6,466.2501 " fill="none" id="WMFormFactory-to-WMConnectionForm" style="stroke:#454645;stroke-width:1.0;stroke-dasharray:7.0,7.0;"/><polygon fill="#454645" points="2620.51,467.9263,2613.2836,461.2346,2615.7778,466.3119,2610.7005,468.806,2620.51,467.9263" style="stroke:#454645;stroke-width:1.0;"/><text fill="#000000" font-family="sans-serif" font-size="13" lengthAdjust="spacing" textLength="39" x="2529" y="434.0669">use</text></g><!--MD5=[39f85ebd642e4efb50f61a46532e7d02]
link ATFormFactory to ATIntegrationForm--><g id="link_ATFormFactory_ATIntegrationForm"><path codeLine="65" d="M1506.91,389.056 C1484.04,407.794 1455.49,427.351 1426,438 C1350.31,465.3315 820.44,482.6892 605.885,488.6684 " fill="none" id="ATFormFactory-to-ATIntegrationForm" style="stroke:#454645;stroke-width:1.0;stroke-dasharray:7.0,7.0;"/><polygon fill="#454645" points="600.876,488.8075,609.9845,492.5539,605.874,488.6675,609.7605,484.5571,600.876,488.8075" style="stroke:#454645;stroke-width:1.0;"/><text fill="#000000" font-family="sans-serif" font-size="13" lengthAdjust="spacing" textLength="39" x="1460" y="434.0669">use</text></g><!--MD5=[f97883b0fc7448f8bf564b1b17a096ca]
link ATFormFactory to ATInterfaceForm--><g id="link_ATFormFactory_ATInterfaceForm"><path codeLine="66" d="M1681.39,389.037 C1708.03,397.985 1736.23,406.545 1763,413 C1934.46,454.3341 1982.75,434.987 2156,468 C2160.19,468.7991 2164.48,469.6632 2168.8,470.5718 " fill="none" id="ATFormFactory-to-ATInterfaceForm" style="stroke:#454645;stroke-width:1.0;stroke-dasharray:7.0,7.0;"/><polygon fill="#454645" points="2173.89,471.6577,2165.9223,465.8684,2169,470.6148,2164.2536,473.6925,2173.89,471.6577" style="stroke:#454645;stroke-width:1.0;"/><text fill="#000000" font-family="sans-serif" font-size="13" lengthAdjust="spacing" textLength="39" x="1899" y="434.0669">use</text></g><!--MD5=[76bc18569c657d1853c2a69aacf6f97b]
link ATFormFactory to ATConnectionForm--><g id="link_ATFormFactory_ATConnectionForm"><path codeLine="67" d="M1672.91,389.07 C1701.85,398.893 1733.16,407.819 1763,413 C1852.66,428.569 2491.58,410.696 2582,421 C2660.63,429.96 2748.38,450.2465 2811.42,466.6856 " fill="none" id="ATFormFactory-to-ATConnectionForm" style="stroke:#454645;stroke-width:1.0;stroke-dasharray:7.0,7.0;"/><polygon fill="#454645" points="2816.29,467.9623,2808.6026,461.8057,2811.4543,466.6912,2806.5688,469.5429,2816.29,467.9623" style="stroke:#454645;stroke-width:1.0;"/><text fill="#000000" font-family="sans-serif" font-size="13" lengthAdjust="spacing" textLength="39" x="2688" y="434.0669">use</text></g><!--MD5=[b8aea1610e24db219efb55a67f3a944d]
link SAPFormFactory to SAPIntegrationForm--><g id="link_SAPFormFactory_SAPIntegrationForm"><path codeLine="69" d="M699.195,389.003 C672.388,398.008 643.981,406.599 617,413 C435.967,455.9457 385.289,436.025 202,468 C198.152,468.6713 194.232,469.3848 190.276,470.1292 " fill="none" id="SAPFormFactory-to-SAPIntegrationForm" style="stroke:#454645;stroke-width:1.0;stroke-dasharray:7.0,7.0;"/><polygon fill="#454645" points="185.25,471.0879,194.8402,473.3302,190.1614,470.1508,193.3408,465.4719,185.25,471.0879" style="stroke:#454645;stroke-width:1.0;"/><text fill="#000000" font-family="sans-serif" font-size="13" lengthAdjust="spacing" textLength="39" x="577" y="434.0669">use</text></g><!--MD5=[b1ad98a01bf884aac9af46e0e673fb5d]
link SAPFormFactory to SAPInterfaceForm--><g id="link_SAPFormFactory_SAPInterfaceForm"><path codeLine="70" d="M929.77,389.007 C954.391,398.326 980.77,407.047 1006,413 C1281.36,477.9755 1618.43,489.479 1774.32,491.0841 " fill="none" id="SAPFormFactory-to-SAPInterfaceForm" style="stroke:#454645;stroke-width:1.0;stroke-dasharray:7.0,7.0;"/><polygon fill="#454645" points="1779.33,491.133,1770.3763,487.0304,1774.3303,491.0759,1770.2849,495.0299,1779.33,491.133" style="stroke:#454645;stroke-width:1.0;"/><text fill="#000000" font-family="sans-serif" font-size="13" lengthAdjust="spacing" textLength="39" x="1122" y="434.0669">use</text></g><!--MD5=[80be59bdb4be119dcd8f134c98e0514c]
link SAPFormFactory to SAPConnectionForm--><g id="link_SAPFormFactory_SAPConnectionForm"><path codeLine="71" d="M925.554,389.139 C951.278,398.96 979.2,407.867 1006,413 C1079.01,426.982 2271.98,402.612 2344,421 C2377.93,429.661 2412.66,449.0095 2437.68,465.1738 " fill="none" id="SAPFormFactory-to-SAPConnectionForm" style="stroke:#454645;stroke-width:1.0;stroke-dasharray:7.0,7.0;"/><polygon fill="#454645" points="2441.92,467.9445,2436.5642,459.6792,2437.7312,465.2144,2432.196,466.3813,2441.92,467.9445" style="stroke:#454645;stroke-width:1.0;"/><text fill="#000000" font-family="sans-serif" font-size="13" lengthAdjust="spacing" textLength="39" x="2391" y="434.0669">use</text></g><!--MD5=[9e167fff1ca06610c516466e48c1923e]
@startuml
!theme vibrant
class ReactNode{
  + render()
}
class EditPartner extends ReactNode{
  - formFactory: FormFactory

  + EditPartner(factory: FormFactory)
}

together {
  interface FormFactory{
    + createIntegrationForm(): IntegrationForm
    + createInterfaceForm(): InterfaceForm
    + createConnectionForm(): ConnectionForm
  }
  class WMFormFactory implements FormFactory{
    + createIntegrationForm(): IntegrationForm
    + createInterfaceForm(): InterfaceForm
    + createConnectionForm(): ConnectionForm
  }
  class ATFormFactory implements FormFactory{
    + createIntegrationForm(): IntegrationForm
    + createInterfaceForm(): InterfaceForm
    + createConnectionForm(): ConnectionForm
  }
  class SAPFormFactory implements FormFactory{
    + createIntegrationForm(): IntegrationForm
    + createInterfaceForm(): InterfaceForm
    + createConnectionForm(): ConnectionForm
  }
}
 
abstract class DraftableForm extends ReactNode {
  + saveDraft()
  + readDraft()
  + {abstract} generateDraftKey()
}

together {
  abstract class IntegrationForm extends DraftableForm {}
  class WMIntegrationForm extends IntegrationForm{}
  class ATIntegrationForm extends IntegrationForm{}
  class SAPIntegrationForm extends IntegrationForm{}
}
together {
  abstract class InterfaceForm extends DraftableForm {}
  class WMInterfaceForm extends InterfaceForm{}
  class ATInterfaceForm extends InterfaceForm{}
  class SAPInterfaceForm extends InterfaceForm{}
}
together {
  abstract class ConnectionForm extends DraftableForm {}
  class WMConnectionForm extends ConnectionForm{}
  class ATConnectionForm extends ConnectionForm{}
  class SAPConnectionForm extends ConnectionForm{}
}

EditPartner .Right.> FormFactory: <<use>>

WMFormFactory .down.> WMIntegrationForm: <<use>>
WMFormFactory .down.> WMInterfaceForm: <<use>>
WMFormFactory .down.> WMConnectionForm: <<use>>

ATFormFactory .down.> ATIntegrationForm: <<use>>
ATFormFactory .down.> ATInterfaceForm: <<use>>
ATFormFactory .down.> ATConnectionForm: <<use>>

SAPFormFactory .down.> SAPIntegrationForm: <<use>>
SAPFormFactory .down.> SAPInterfaceForm: <<use>>
SAPFormFactory .down.> SAPConnectionForm: <<use>>
@enduml

@startuml
skinparam BackgroundColor FFFFFF
skinparam shadowing false
skinparam RoundCorner 7
skinparam ArrowColor 454645
skinparam FontColor 454645
skinparam SequenceLifeLineBorderColor 696969
skinparam SequenceGroupHeaderFontColor 454645
skinparam SequenceGroupFontColor 696969
skinparam SequenceGroupBorderColor 696969
skinparam SequenceGroupBorderThickness 1

skinparam sequenceDivider {
    BorderColor 454645
    BorderThickness 1
    FontColor 454645
}

skinparam participant {
    BackgroundColor FF6347
    BorderColor 454645
    FontColor FFFFFF
    BorderThickness 1.5
}

skinparam database {
    BackgroundColor 00FFFF
    BorderColor 454645
    FontColor 454645
}

skinparam entity {
    BackgroundColor FFE552
    BorderColor 454645
    FontColor 454645
}

skinparam note {
    BackgroundColor 7FFFD4
    BorderColor 454645
    FontColor 454645
    BorderThickness 1.5
}

skinparam actor {
    BackgroundColor 454645
    BorderColor 454645
    FontColor 454645
}

skinparam boundary {
    BackgroundColor FFE552
    BorderColor 454645
    FontColor 454645
}

skinparam control {
    BackgroundColor FFE552
    BorderColor 454645
    FontColor 454645
}

skinparam collections {
    BackgroundColor FF5F42
    BorderColor 454645
    FontColor 454645
}

skinparam queue {
    BackgroundColor FF6347
    BorderColor 454645
    FontColor FFF
    BorderThickness 1.5
}
class ReactNode{
  + render()
}
class EditPartner extends ReactNode{
  - formFactory: FormFactory

  + EditPartner(factory: FormFactory)
}

together {
  interface FormFactory{
    + createIntegrationForm(): IntegrationForm
    + createInterfaceForm(): InterfaceForm
    + createConnectionForm(): ConnectionForm
  }
  class WMFormFactory implements FormFactory{
    + createIntegrationForm(): IntegrationForm
    + createInterfaceForm(): InterfaceForm
    + createConnectionForm(): ConnectionForm
  }
  class ATFormFactory implements FormFactory{
    + createIntegrationForm(): IntegrationForm
    + createInterfaceForm(): InterfaceForm
    + createConnectionForm(): ConnectionForm
  }
  class SAPFormFactory implements FormFactory{
    + createIntegrationForm(): IntegrationForm
    + createInterfaceForm(): InterfaceForm
    + createConnectionForm(): ConnectionForm
  }
}
 
abstract class DraftableForm extends ReactNode {
  + saveDraft()
  + readDraft()
  + {abstract} generateDraftKey()
}

together {
  abstract class IntegrationForm extends DraftableForm {}
  class WMIntegrationForm extends IntegrationForm{}
  class ATIntegrationForm extends IntegrationForm{}
  class SAPIntegrationForm extends IntegrationForm{}
}
together {
  abstract class InterfaceForm extends DraftableForm {}
  class WMInterfaceForm extends InterfaceForm{}
  class ATInterfaceForm extends InterfaceForm{}
  class SAPInterfaceForm extends InterfaceForm{}
}
together {
  abstract class ConnectionForm extends DraftableForm {}
  class WMConnectionForm extends ConnectionForm{}
  class ATConnectionForm extends ConnectionForm{}
  class SAPConnectionForm extends ConnectionForm{}
}

EditPartner .Right.> FormFactory: <<use>>

WMFormFactory .down.> WMIntegrationForm: <<use>>
WMFormFactory .down.> WMInterfaceForm: <<use>>
WMFormFactory .down.> WMConnectionForm: <<use>>

ATFormFactory .down.> ATIntegrationForm: <<use>>
ATFormFactory .down.> ATInterfaceForm: <<use>>
ATFormFactory .down.> ATConnectionForm: <<use>>

SAPFormFactory .down.> SAPIntegrationForm: <<use>>
SAPFormFactory .down.> SAPInterfaceForm: <<use>>
SAPFormFactory .down.> SAPConnectionForm: <<use>>
@enduml

PlantUML version 1.2022.7beta11(Unknown compile time)
(GPL source distribution)
Java Runtime: Java(TM) SE Runtime Environment
JVM: Java HotSpot(TM) 64-Bit Server VM
Default Encoding: UTF-8
Language: en
Country: US
--></g></svg>