<?xml version="1.0" encoding="UTF-8" standalone="no"?><svg xmlns="http://www.w3.org/2000/svg" xmlns:xlink="http://www.w3.org/1999/xlink" contentStyleType="text/css" height="523px" preserveAspectRatio="none" style="width:3365px;height:523px;background:#FFFFFF;" version="1.1" viewBox="0 0 3365 523" width="3365px" zoomAndPan="magnify"><defs/><g><!--MD5=[1c1cb281ad7b230c434146985ef98943]
class FormFactory--><g id="elem_FormFactory"><rect codeLine="12" fill="#F1F1F1" height="96.8906" id="FormFactory" rx="3.5" ry="3.5" style="stroke:#181818;stroke-width:0.5;" width="332" x="1058" y="134"/><ellipse cx="1174.75" cy="150" fill="#B4A7E5" rx="11" ry="11" style="stroke:#181818;stroke-width:1.0;"/><path d="M1175.7031,146.7813 L1177.4219,146.7813 C1177.8125,146.7813 1178,146.75 1178.125,146.6719 C1178.3906,146.5156 1178.5313,146.2344 1178.5313,145.9375 C1178.5313,145.6719 1178.4219,145.4063 1178.1875,145.2344 C1178.0156,145.125 1177.875,145.0938 1177.4219,145.0938 L1172.2813,145.0938 C1171.8438,145.0938 1171.7188,145.1094 1171.5625,145.2031 C1171.3125,145.3594 1171.1563,145.6563 1171.1563,145.9375 C1171.1563,146.2188 1171.2969,146.4688 1171.5156,146.6406 C1171.6719,146.75 1171.8594,146.7813 1172.2813,146.7813 L1174,146.7813 L1174,153.2969 L1172.2813,153.2969 C1171.8438,153.2969 1171.7188,153.3125 1171.5625,153.4219 C1171.3125,153.5781 1171.1563,153.8594 1171.1563,154.1563 C1171.1563,154.4063 1171.2969,154.6719 1171.5156,154.8281 C1171.6719,154.9531 1171.875,155 1172.2813,155 L1177.4219,155 C1178.1719,155 1178.5313,154.7188 1178.5313,154.1563 C1178.5313,153.875 1178.4219,153.625 1178.1875,153.4531 C1178.0156,153.3281 1177.875,153.2969 1177.4219,153.2969 L1175.7031,153.2969 L1175.7031,146.7813 Z " fill="#000000"/><text fill="#000000" font-family="sans-serif" font-size="14" font-style="italic" lengthAdjust="spacing" textLength="90" x="1195.25" y="154.8467">FormFactory</text><line style="stroke:#181818;stroke-width:0.5;" x1="1059" x2="1389" y1="166" y2="166"/><line style="stroke:#181818;stroke-width:0.5;" x1="1059" x2="1389" y1="174" y2="174"/><ellipse cx="1069" cy="187.6484" fill="#84BE84" rx="3" ry="3" style="stroke:#038048;stroke-width:1.0;"/><text fill="#000000" font-family="sans-serif" font-size="14" lengthAdjust="spacing" textLength="302" x="1078" y="190.9951">createIntegrationForm(): IntegrationForm</text><ellipse cx="1069" cy="203.9453" fill="#84BE84" rx="3" ry="3" style="stroke:#038048;stroke-width:1.0;"/><text fill="#000000" font-family="sans-serif" font-size="14" lengthAdjust="spacing" textLength="272" x="1078" y="207.292">createInterfaceForm(): InterfaceForm</text><ellipse cx="1069" cy="220.2422" fill="#84BE84" rx="3" ry="3" style="stroke:#038048;stroke-width:1.0;"/><text fill="#000000" font-family="sans-serif" font-size="14" lengthAdjust="spacing" textLength="306" x="1078" y="223.5889">createConnectionForm(): ConnectionForm</text></g><!--MD5=[7991c7323b9e54d622210544b264eec1]
class WMFormFactory--><g id="elem_WMFormFactory"><rect codeLine="17" fill="#F1F1F1" height="96.8906" id="WMFormFactory" rx="3.5" ry="3.5" style="stroke:#181818;stroke-width:0.5;" width="332" x="1220" y="292"/><ellipse cx="1323.25" cy="308" fill="#ADD1B2" rx="11" ry="11" style="stroke:#181818;stroke-width:1.0;"/><path d="M1325.5938,303.6719 C1324.6563,303.2344 1324.0625,303.0938 1323.1875,303.0938 C1320.5625,303.0938 1318.5625,305.1719 1318.5625,307.8906 L1318.5625,309.0156 C1318.5625,311.5938 1320.6719,313.4844 1323.5625,313.4844 C1324.7813,313.4844 1325.9375,313.1875 1326.6875,312.6406 C1327.2656,312.2344 1327.5938,311.7813 1327.5938,311.3906 C1327.5938,310.9375 1327.2031,310.5469 1326.7344,310.5469 C1326.5156,310.5469 1326.3125,310.625 1326.125,310.8125 C1325.6719,311.2969 1325.6719,311.2969 1325.4844,311.3906 C1325.0625,311.6563 1324.375,311.7813 1323.6094,311.7813 C1321.5625,311.7813 1320.2656,310.6875 1320.2656,308.9844 L1320.2656,307.8906 C1320.2656,306.1094 1321.5156,304.7969 1323.25,304.7969 C1323.8281,304.7969 1324.4375,304.9531 1324.9063,305.2031 C1325.3906,305.4844 1325.5625,305.7031 1325.6563,306.1094 C1325.7188,306.5156 1325.75,306.6406 1325.8906,306.7656 C1326.0313,306.9063 1326.2656,307.0156 1326.4844,307.0156 C1326.75,307.0156 1327.0156,306.875 1327.1875,306.6563 C1327.2969,306.5 1327.3281,306.3125 1327.3281,305.8906 L1327.3281,304.4688 C1327.3281,304.0313 1327.3125,303.9063 1327.2188,303.75 C1327.0625,303.4844 1326.7813,303.3438 1326.4844,303.3438 C1326.1875,303.3438 1325.9844,303.4375 1325.7656,303.75 L1325.5938,303.6719 Z " fill="#000000"/><text fill="#000000" font-family="sans-serif" font-size="14" lengthAdjust="spacing" textLength="117" x="1343.75" y="312.8467">WMFormFactory</text><line style="stroke:#181818;stroke-width:0.5;" x1="1221" x2="1551" y1="324" y2="324"/><line style="stroke:#181818;stroke-width:0.5;" x1="1221" x2="1551" y1="332" y2="332"/><ellipse cx="1231" cy="345.6484" fill="#84BE84" rx="3" ry="3" style="stroke:#038048;stroke-width:1.0;"/><text fill="#000000" font-family="sans-serif" font-size="14" lengthAdjust="spacing" textLength="302" x="1240" y="348.9951">createIntegrationForm(): IntegrationForm</text><ellipse cx="1231" cy="361.9453" fill="#84BE84" rx="3" ry="3" style="stroke:#038048;stroke-width:1.0;"/><text fill="#000000" font-family="sans-serif" font-size="14" lengthAdjust="spacing" textLength="272" x="1240" y="365.292">createInterfaceForm(): InterfaceForm</text><ellipse cx="1231" cy="378.2422" fill="#84BE84" rx="3" ry="3" style="stroke:#038048;stroke-width:1.0;"/><text fill="#000000" font-family="sans-serif" font-size="14" lengthAdjust="spacing" textLength="306" x="1240" y="381.5889">createConnectionForm(): ConnectionForm</text></g><!--MD5=[876cbfd441300657573ae4a6f63dd841]
class ATFormFactory--><g id="elem_ATFormFactory"><rect codeLine="22" fill="#F1F1F1" height="96.8906" id="ATFormFactory" rx="3.5" ry="3.5" style="stroke:#181818;stroke-width:0.5;" width="332" x="1587" y="292"/><ellipse cx="1693.75" cy="308" fill="#ADD1B2" rx="11" ry="11" style="stroke:#181818;stroke-width:1.0;"/><path d="M1696.0938,303.6719 C1695.1563,303.2344 1694.5625,303.0938 1693.6875,303.0938 C1691.0625,303.0938 1689.0625,305.1719 1689.0625,307.8906 L1689.0625,309.0156 C1689.0625,311.5938 1691.1719,313.4844 1694.0625,313.4844 C1695.2813,313.4844 1696.4375,313.1875 1697.1875,312.6406 C1697.7656,312.2344 1698.0938,311.7813 1698.0938,311.3906 C1698.0938,310.9375 1697.7031,310.5469 1697.2344,310.5469 C1697.0156,310.5469 1696.8125,310.625 1696.625,310.8125 C1696.1719,311.2969 1696.1719,311.2969 1695.9844,311.3906 C1695.5625,311.6563 1694.875,311.7813 1694.1094,311.7813 C1692.0625,311.7813 1690.7656,310.6875 1690.7656,308.9844 L1690.7656,307.8906 C1690.7656,306.1094 1692.0156,304.7969 1693.75,304.7969 C1694.3281,304.7969 1694.9375,304.9531 1695.4063,305.2031 C1695.8906,305.4844 1696.0625,305.7031 1696.1563,306.1094 C1696.2188,306.5156 1696.25,306.6406 1696.3906,306.7656 C1696.5313,306.9063 1696.7656,307.0156 1696.9844,307.0156 C1697.25,307.0156 1697.5156,306.875 1697.6875,306.6563 C1697.7969,306.5 1697.8281,306.3125 1697.8281,305.8906 L1697.8281,304.4688 C1697.8281,304.0313 1697.8125,303.9063 1697.7188,303.75 C1697.5625,303.4844 1697.2813,303.3438 1696.9844,303.3438 C1696.6875,303.3438 1696.4844,303.4375 1696.2656,303.75 L1696.0938,303.6719 Z " fill="#000000"/><text fill="#000000" font-family="sans-serif" font-size="14" lengthAdjust="spacing" textLength="110" x="1714.25" y="312.8467">ATFormFactory</text><line style="stroke:#181818;stroke-width:0.5;" x1="1588" x2="1918" y1="324" y2="324"/><line style="stroke:#181818;stroke-width:0.5;" x1="1588" x2="1918" y1="332" y2="332"/><ellipse cx="1598" cy="345.6484" fill="#84BE84" rx="3" ry="3" style="stroke:#038048;stroke-width:1.0;"/><text fill="#000000" font-family="sans-serif" font-size="14" lengthAdjust="spacing" textLength="302" x="1607" y="348.9951">createIntegrationForm(): IntegrationForm</text><ellipse cx="1598" cy="361.9453" fill="#84BE84" rx="3" ry="3" style="stroke:#038048;stroke-width:1.0;"/><text fill="#000000" font-family="sans-serif" font-size="14" lengthAdjust="spacing" textLength="272" x="1607" y="365.292">createInterfaceForm(): InterfaceForm</text><ellipse cx="1598" cy="378.2422" fill="#84BE84" rx="3" ry="3" style="stroke:#038048;stroke-width:1.0;"/><text fill="#000000" font-family="sans-serif" font-size="14" lengthAdjust="spacing" textLength="306" x="1607" y="381.5889">createConnectionForm(): ConnectionForm</text></g><!--MD5=[423682f5ce4d96d10f62568505dc23af]
class SAPFormFactory--><g id="elem_SAPFormFactory"><rect codeLine="27" fill="#F1F1F1" height="96.8906" id="SAPFormFactory" rx="3.5" ry="3.5" style="stroke:#181818;stroke-width:0.5;" width="332" x="853" y="292"/><ellipse cx="955.25" cy="308" fill="#ADD1B2" rx="11" ry="11" style="stroke:#181818;stroke-width:1.0;"/><path d="M957.5938,303.6719 C956.6563,303.2344 956.0625,303.0938 955.1875,303.0938 C952.5625,303.0938 950.5625,305.1719 950.5625,307.8906 L950.5625,309.0156 C950.5625,311.5938 952.6719,313.4844 955.5625,313.4844 C956.7813,313.4844 957.9375,313.1875 958.6875,312.6406 C959.2656,312.2344 959.5938,311.7813 959.5938,311.3906 C959.5938,310.9375 959.2031,310.5469 958.7344,310.5469 C958.5156,310.5469 958.3125,310.625 958.125,310.8125 C957.6719,311.2969 957.6719,311.2969 957.4844,311.3906 C957.0625,311.6563 956.375,311.7813 955.6094,311.7813 C953.5625,311.7813 952.2656,310.6875 952.2656,308.9844 L952.2656,307.8906 C952.2656,306.1094 953.5156,304.7969 955.25,304.7969 C955.8281,304.7969 956.4375,304.9531 956.9063,305.2031 C957.3906,305.4844 957.5625,305.7031 957.6563,306.1094 C957.7188,306.5156 957.75,306.6406 957.8906,306.7656 C958.0313,306.9063 958.2656,307.0156 958.4844,307.0156 C958.75,307.0156 959.0156,306.875 959.1875,306.6563 C959.2969,306.5 959.3281,306.3125 959.3281,305.8906 L959.3281,304.4688 C959.3281,304.0313 959.3125,303.9063 959.2188,303.75 C959.0625,303.4844 958.7813,303.3438 958.4844,303.3438 C958.1875,303.3438 957.9844,303.4375 957.7656,303.75 L957.5938,303.6719 Z " fill="#000000"/><text fill="#000000" font-family="sans-serif" font-size="14" lengthAdjust="spacing" textLength="119" x="975.75" y="312.8467">SAPFormFactory</text><line style="stroke:#181818;stroke-width:0.5;" x1="854" x2="1184" y1="324" y2="324"/><line style="stroke:#181818;stroke-width:0.5;" x1="854" x2="1184" y1="332" y2="332"/><ellipse cx="864" cy="345.6484" fill="#84BE84" rx="3" ry="3" style="stroke:#038048;stroke-width:1.0;"/><text fill="#000000" font-family="sans-serif" font-size="14" lengthAdjust="spacing" textLength="302" x="873" y="348.9951">createIntegrationForm(): IntegrationForm</text><ellipse cx="864" cy="361.9453" fill="#84BE84" rx="3" ry="3" style="stroke:#038048;stroke-width:1.0;"/><text fill="#000000" font-family="sans-serif" font-size="14" lengthAdjust="spacing" textLength="272" x="873" y="365.292">createInterfaceForm(): InterfaceForm</text><ellipse cx="864" cy="378.2422" fill="#84BE84" rx="3" ry="3" style="stroke:#038048;stroke-width:1.0;"/><text fill="#000000" font-family="sans-serif" font-size="14" lengthAdjust="spacing" textLength="306" x="873" y="381.5889">createConnectionForm(): ConnectionForm</text></g><!--MD5=[06f6369a25b2c6710208b955f315b1b3]
class IntegrationForm--><g id="elem_IntegrationForm"><rect codeLine="41" fill="#F1F1F1" height="80.5938" id="IntegrationForm" rx="3.5" ry="3.5" style="stroke:#181818;stroke-width:0.5;" width="790" x="7" y="300"/><ellipse cx="340.25" cy="316" fill="#A9DCDF" rx="11" ry="11" style="stroke:#181818;stroke-width:1.0;"/><path d="M342.3281,317.8125 L342.7188,318.7969 L342.3281,318.7969 C341.875,318.7969 341.7656,318.8125 341.6094,318.9219 C341.3594,319.0781 341.2031,319.3594 341.2031,319.6563 C341.2031,319.9219 341.3438,320.1719 341.5625,320.3281 C341.7031,320.4531 341.9063,320.5 342.3281,320.5 L344.6875,320.5 C345.0469,320.5 345.2656,320.4688 345.4063,320.375 C345.6563,320.2344 345.8125,319.9375 345.8125,319.6563 C345.8125,319.375 345.6719,319.125 345.4531,318.9688 C345.2813,318.8281 345.125,318.7969 344.6563,318.7969 L341.2656,310.5938 L337.5938,310.5938 C337.1406,310.5938 337.0156,310.6094 336.8594,310.7031 C336.6094,310.875 336.4531,311.1563 336.4531,311.4375 C336.4531,311.7188 336.5938,311.9688 336.8125,312.1406 C336.9844,312.25 337.1563,312.2813 337.5938,312.2813 L338.6719,312.2813 L336.0313,318.7969 C335.6094,318.7969 335.4531,318.8125 335.2969,318.9219 C335.0469,319.0781 334.8906,319.3594 334.8906,319.6563 C334.8906,320.2188 335.2656,320.5 336.0156,320.5 L338.2813,320.5 C338.6406,320.5 338.8594,320.4688 338.9844,320.375 C339.25,320.2344 339.3906,319.9375 339.3906,319.6563 C339.3906,319.375 339.2656,319.125 339.0469,318.9531 C338.875,318.8281 338.7344,318.7969 338.2813,318.7969 L337.8906,318.7969 L338.2813,317.8125 L342.3281,317.8125 Z M341.625,316.1094 L338.9531,316.1094 L340.2969,312.8438 L341.625,316.1094 Z " fill="#000000"/><text fill="#000000" font-family="sans-serif" font-size="14" font-style="italic" lengthAdjust="spacing" textLength="115" x="360.75" y="320.8467">IntegrationForm</text><line style="stroke:#181818;stroke-width:0.5;" x1="8" x2="796" y1="332" y2="332"/><line style="stroke:#181818;stroke-width:0.5;" x1="8" x2="796" y1="340" y2="340"/><ellipse cx="18" cy="353.6484" fill="#84BE84" rx="3" ry="3" style="stroke:#038048;stroke-width:1.0;"/><text fill="#000000" font-family="sans-serif" font-size="14" font-style="italic" lengthAdjust="spacing" textLength="764" x="27" y="356.9951">preprocessIntegrationInfoFormData(selectedIntegration: IntegrationDataType | null,): IIntegrationFormData</text><ellipse cx="18" cy="369.9453" fill="#84BE84" rx="3" ry="3" style="stroke:#038048;stroke-width:1.0;"/><text fill="#000000" font-family="sans-serif" font-size="14" font-style="italic" lengthAdjust="spacing" textLength="224" x="27" y="373.292">generateFormList(): FormItem[]</text></g><!--MD5=[e8bd804451361bdf2828103342a64f6e]
class WMIntegrationForm--><g id="elem_WMIntegrationForm"><rect codeLine="45" fill="#F1F1F1" height="48" id="WMIntegrationForm" rx="3.5" ry="3.5" style="stroke:#181818;stroke-width:0.5;" width="176" x="416" y="468"/><ellipse cx="431" cy="484" fill="#ADD1B2" rx="11" ry="11" style="stroke:#181818;stroke-width:1.0;"/><path d="M433.3438,479.6719 C432.4063,479.2344 431.8125,479.0938 430.9375,479.0938 C428.3125,479.0938 426.3125,481.1719 426.3125,483.8906 L426.3125,485.0156 C426.3125,487.5938 428.4219,489.4844 431.3125,489.4844 C432.5313,489.4844 433.6875,489.1875 434.4375,488.6406 C435.0156,488.2344 435.3438,487.7813 435.3438,487.3906 C435.3438,486.9375 434.9531,486.5469 434.4844,486.5469 C434.2656,486.5469 434.0625,486.625 433.875,486.8125 C433.4219,487.2969 433.4219,487.2969 433.2344,487.3906 C432.8125,487.6563 432.125,487.7813 431.3594,487.7813 C429.3125,487.7813 428.0156,486.6875 428.0156,484.9844 L428.0156,483.8906 C428.0156,482.1094 429.2656,480.7969 431,480.7969 C431.5781,480.7969 432.1875,480.9531 432.6563,481.2031 C433.1406,481.4844 433.3125,481.7031 433.4063,482.1094 C433.4688,482.5156 433.5,482.6406 433.6406,482.7656 C433.7813,482.9063 434.0156,483.0156 434.2344,483.0156 C434.5,483.0156 434.7656,482.875 434.9375,482.6563 C435.0469,482.5 435.0781,482.3125 435.0781,481.8906 L435.0781,480.4688 C435.0781,480.0313 435.0625,479.9063 434.9688,479.75 C434.8125,479.4844 434.5313,479.3438 434.2344,479.3438 C433.9375,479.3438 433.7344,479.4375 433.5156,479.75 L433.3438,479.6719 Z " fill="#000000"/><text fill="#000000" font-family="sans-serif" font-size="14" lengthAdjust="spacing" textLength="144" x="445" y="488.8467">WMIntegrationForm</text><line style="stroke:#181818;stroke-width:0.5;" x1="417" x2="591" y1="500" y2="500"/><line style="stroke:#181818;stroke-width:0.5;" x1="417" x2="591" y1="508" y2="508"/></g><!--MD5=[d9f1edd1f9f47598c5dc2c3be2fd2bed]
class ATIntegrationForm--><g id="elem_ATIntegrationForm"><rect codeLine="46" fill="#F1F1F1" height="48" id="ATIntegrationForm" rx="3.5" ry="3.5" style="stroke:#181818;stroke-width:0.5;" width="169" x="627.5" y="468"/><ellipse cx="642.5" cy="484" fill="#ADD1B2" rx="11" ry="11" style="stroke:#181818;stroke-width:1.0;"/><path d="M644.8438,479.6719 C643.9063,479.2344 643.3125,479.0938 642.4375,479.0938 C639.8125,479.0938 637.8125,481.1719 637.8125,483.8906 L637.8125,485.0156 C637.8125,487.5938 639.9219,489.4844 642.8125,489.4844 C644.0313,489.4844 645.1875,489.1875 645.9375,488.6406 C646.5156,488.2344 646.8438,487.7813 646.8438,487.3906 C646.8438,486.9375 646.4531,486.5469 645.9844,486.5469 C645.7656,486.5469 645.5625,486.625 645.375,486.8125 C644.9219,487.2969 644.9219,487.2969 644.7344,487.3906 C644.3125,487.6563 643.625,487.7813 642.8594,487.7813 C640.8125,487.7813 639.5156,486.6875 639.5156,484.9844 L639.5156,483.8906 C639.5156,482.1094 640.7656,480.7969 642.5,480.7969 C643.0781,480.7969 643.6875,480.9531 644.1563,481.2031 C644.6406,481.4844 644.8125,481.7031 644.9063,482.1094 C644.9688,482.5156 645,482.6406 645.1406,482.7656 C645.2813,482.9063 645.5156,483.0156 645.7344,483.0156 C646,483.0156 646.2656,482.875 646.4375,482.6563 C646.5469,482.5 646.5781,482.3125 646.5781,481.8906 L646.5781,480.4688 C646.5781,480.0313 646.5625,479.9063 646.4688,479.75 C646.3125,479.4844 646.0313,479.3438 645.7344,479.3438 C645.4375,479.3438 645.2344,479.4375 645.0156,479.75 L644.8438,479.6719 Z " fill="#000000"/><text fill="#000000" font-family="sans-serif" font-size="14" lengthAdjust="spacing" textLength="137" x="656.5" y="488.8467">ATIntegrationForm</text><line style="stroke:#181818;stroke-width:0.5;" x1="628.5" x2="795.5" y1="500" y2="500"/><line style="stroke:#181818;stroke-width:0.5;" x1="628.5" x2="795.5" y1="508" y2="508"/></g><!--MD5=[7ab41f4369bf0cae11db9c2512b021a1]
class SAPIntegrationForm--><g id="elem_SAPIntegrationForm"><rect codeLine="47" fill="#F1F1F1" height="48" id="SAPIntegrationForm" rx="3.5" ry="3.5" style="stroke:#181818;stroke-width:0.5;" width="178" x="203" y="468"/><ellipse cx="218" cy="484" fill="#ADD1B2" rx="11" ry="11" style="stroke:#181818;stroke-width:1.0;"/><path d="M220.3438,479.6719 C219.4063,479.2344 218.8125,479.0938 217.9375,479.0938 C215.3125,479.0938 213.3125,481.1719 213.3125,483.8906 L213.3125,485.0156 C213.3125,487.5938 215.4219,489.4844 218.3125,489.4844 C219.5313,489.4844 220.6875,489.1875 221.4375,488.6406 C222.0156,488.2344 222.3438,487.7813 222.3438,487.3906 C222.3438,486.9375 221.9531,486.5469 221.4844,486.5469 C221.2656,486.5469 221.0625,486.625 220.875,486.8125 C220.4219,487.2969 220.4219,487.2969 220.2344,487.3906 C219.8125,487.6563 219.125,487.7813 218.3594,487.7813 C216.3125,487.7813 215.0156,486.6875 215.0156,484.9844 L215.0156,483.8906 C215.0156,482.1094 216.2656,480.7969 218,480.7969 C218.5781,480.7969 219.1875,480.9531 219.6563,481.2031 C220.1406,481.4844 220.3125,481.7031 220.4063,482.1094 C220.4688,482.5156 220.5,482.6406 220.6406,482.7656 C220.7813,482.9063 221.0156,483.0156 221.2344,483.0156 C221.5,483.0156 221.7656,482.875 221.9375,482.6563 C222.0469,482.5 222.0781,482.3125 222.0781,481.8906 L222.0781,480.4688 C222.0781,480.0313 222.0625,479.9063 221.9688,479.75 C221.8125,479.4844 221.5313,479.3438 221.2344,479.3438 C220.9375,479.3438 220.7344,479.4375 220.5156,479.75 L220.3438,479.6719 Z " fill="#000000"/><text fill="#000000" font-family="sans-serif" font-size="14" lengthAdjust="spacing" textLength="146" x="232" y="488.8467">SAPIntegrationForm</text><line style="stroke:#181818;stroke-width:0.5;" x1="204" x2="380" y1="500" y2="500"/><line style="stroke:#181818;stroke-width:0.5;" x1="204" x2="380" y1="508" y2="508"/></g><!--MD5=[d1091201e13a12b11a3cb5535f23e99a]
class InterfaceForm--><g id="elem_InterfaceForm"><rect codeLine="50" fill="#F1F1F1" height="80.5938" id="InterfaceForm" rx="3.5" ry="3.5" style="stroke:#181818;stroke-width:0.5;" width="727" x="1975.5" y="300"/><ellipse cx="2284.25" cy="316" fill="#A9DCDF" rx="11" ry="11" style="stroke:#181818;stroke-width:1.0;"/><path d="M2286.3281,317.8125 L2286.7188,318.7969 L2286.3281,318.7969 C2285.875,318.7969 2285.7656,318.8125 2285.6094,318.9219 C2285.3594,319.0781 2285.2031,319.3594 2285.2031,319.6563 C2285.2031,319.9219 2285.3438,320.1719 2285.5625,320.3281 C2285.7031,320.4531 2285.9063,320.5 2286.3281,320.5 L2288.6875,320.5 C2289.0469,320.5 2289.2656,320.4688 2289.4063,320.375 C2289.6563,320.2344 2289.8125,319.9375 2289.8125,319.6563 C2289.8125,319.375 2289.6719,319.125 2289.4531,318.9688 C2289.2813,318.8281 2289.125,318.7969 2288.6563,318.7969 L2285.2656,310.5938 L2281.5938,310.5938 C2281.1406,310.5938 2281.0156,310.6094 2280.8594,310.7031 C2280.6094,310.875 2280.4531,311.1563 2280.4531,311.4375 C2280.4531,311.7188 2280.5938,311.9688 2280.8125,312.1406 C2280.9844,312.25 2281.1563,312.2813 2281.5938,312.2813 L2282.6719,312.2813 L2280.0313,318.7969 C2279.6094,318.7969 2279.4531,318.8125 2279.2969,318.9219 C2279.0469,319.0781 2278.8906,319.3594 2278.8906,319.6563 C2278.8906,320.2188 2279.2656,320.5 2280.0156,320.5 L2282.2813,320.5 C2282.6406,320.5 2282.8594,320.4688 2282.9844,320.375 C2283.25,320.2344 2283.3906,319.9375 2283.3906,319.6563 C2283.3906,319.375 2283.2656,319.125 2283.0469,318.9531 C2282.875,318.8281 2282.7344,318.7969 2282.2813,318.7969 L2281.8906,318.7969 L2282.2813,317.8125 L2286.3281,317.8125 Z M2285.625,316.1094 L2282.9531,316.1094 L2284.2969,312.8438 L2285.625,316.1094 Z " fill="#000000"/><text fill="#000000" font-family="sans-serif" font-size="14" font-style="italic" lengthAdjust="spacing" textLength="101" x="2304.75" y="320.8467">InterfaceForm</text><line style="stroke:#181818;stroke-width:0.5;" x1="1976.5" x2="2701.5" y1="332" y2="332"/><line style="stroke:#181818;stroke-width:0.5;" x1="1976.5" x2="2701.5" y1="340" y2="340"/><ellipse cx="1986.5" cy="353.6484" fill="#84BE84" rx="3" ry="3" style="stroke:#038048;stroke-width:1.0;"/><text fill="#000000" font-family="sans-serif" font-size="14" font-style="italic" lengthAdjust="spacing" textLength="701" x="1995.5" y="356.9951">preprocessInterfaceInfoFormData(selectedInterface: InterfaceDataType | null): InterfaceFormType</text><ellipse cx="1986.5" cy="369.9453" fill="#84BE84" rx="3" ry="3" style="stroke:#038048;stroke-width:1.0;"/><text fill="#000000" font-family="sans-serif" font-size="14" font-style="italic" lengthAdjust="spacing" textLength="224" x="1995.5" y="373.292">generateFormList(): FormItem[]</text></g><!--MD5=[896b2df051cac3ce100396bb8524dd85]
class WMInterfaceForm--><g id="elem_WMInterfaceForm"><rect codeLine="54" fill="#F1F1F1" height="48" id="WMInterfaceForm" rx="3.5" ry="3.5" style="stroke:#181818;stroke-width:0.5;" width="161" x="2173.5" y="468"/><ellipse cx="2188.5" cy="484" fill="#ADD1B2" rx="11" ry="11" style="stroke:#181818;stroke-width:1.0;"/><path d="M2190.8438,479.6719 C2189.9063,479.2344 2189.3125,479.0938 2188.4375,479.0938 C2185.8125,479.0938 2183.8125,481.1719 2183.8125,483.8906 L2183.8125,485.0156 C2183.8125,487.5938 2185.9219,489.4844 2188.8125,489.4844 C2190.0313,489.4844 2191.1875,489.1875 2191.9375,488.6406 C2192.5156,488.2344 2192.8438,487.7813 2192.8438,487.3906 C2192.8438,486.9375 2192.4531,486.5469 2191.9844,486.5469 C2191.7656,486.5469 2191.5625,486.625 2191.375,486.8125 C2190.9219,487.2969 2190.9219,487.2969 2190.7344,487.3906 C2190.3125,487.6563 2189.625,487.7813 2188.8594,487.7813 C2186.8125,487.7813 2185.5156,486.6875 2185.5156,484.9844 L2185.5156,483.8906 C2185.5156,482.1094 2186.7656,480.7969 2188.5,480.7969 C2189.0781,480.7969 2189.6875,480.9531 2190.1563,481.2031 C2190.6406,481.4844 2190.8125,481.7031 2190.9063,482.1094 C2190.9688,482.5156 2191,482.6406 2191.1406,482.7656 C2191.2813,482.9063 2191.5156,483.0156 2191.7344,483.0156 C2192,483.0156 2192.2656,482.875 2192.4375,482.6563 C2192.5469,482.5 2192.5781,482.3125 2192.5781,481.8906 L2192.5781,480.4688 C2192.5781,480.0313 2192.5625,479.9063 2192.4688,479.75 C2192.3125,479.4844 2192.0313,479.3438 2191.7344,479.3438 C2191.4375,479.3438 2191.2344,479.4375 2191.0156,479.75 L2190.8438,479.6719 Z " fill="#000000"/><text fill="#000000" font-family="sans-serif" font-size="14" lengthAdjust="spacing" textLength="129" x="2202.5" y="488.8467">WMInterfaceForm</text><line style="stroke:#181818;stroke-width:0.5;" x1="2174.5" x2="2333.5" y1="500" y2="500"/><line style="stroke:#181818;stroke-width:0.5;" x1="2174.5" x2="2333.5" y1="508" y2="508"/></g><!--MD5=[98b043734a15c6b4cd2db64aa333a0fb]
class ATInterfaceForm--><g id="elem_ATInterfaceForm"><rect codeLine="55" fill="#F1F1F1" height="48" id="ATInterfaceForm" rx="3.5" ry="3.5" style="stroke:#181818;stroke-width:0.5;" width="154" x="2370" y="468"/><ellipse cx="2385" cy="484" fill="#ADD1B2" rx="11" ry="11" style="stroke:#181818;stroke-width:1.0;"/><path d="M2387.3438,479.6719 C2386.4063,479.2344 2385.8125,479.0938 2384.9375,479.0938 C2382.3125,479.0938 2380.3125,481.1719 2380.3125,483.8906 L2380.3125,485.0156 C2380.3125,487.5938 2382.4219,489.4844 2385.3125,489.4844 C2386.5313,489.4844 2387.6875,489.1875 2388.4375,488.6406 C2389.0156,488.2344 2389.3438,487.7813 2389.3438,487.3906 C2389.3438,486.9375 2388.9531,486.5469 2388.4844,486.5469 C2388.2656,486.5469 2388.0625,486.625 2387.875,486.8125 C2387.4219,487.2969 2387.4219,487.2969 2387.2344,487.3906 C2386.8125,487.6563 2386.125,487.7813 2385.3594,487.7813 C2383.3125,487.7813 2382.0156,486.6875 2382.0156,484.9844 L2382.0156,483.8906 C2382.0156,482.1094 2383.2656,480.7969 2385,480.7969 C2385.5781,480.7969 2386.1875,480.9531 2386.6563,481.2031 C2387.1406,481.4844 2387.3125,481.7031 2387.4063,482.1094 C2387.4688,482.5156 2387.5,482.6406 2387.6406,482.7656 C2387.7813,482.9063 2388.0156,483.0156 2388.2344,483.0156 C2388.5,483.0156 2388.7656,482.875 2388.9375,482.6563 C2389.0469,482.5 2389.0781,482.3125 2389.0781,481.8906 L2389.0781,480.4688 C2389.0781,480.0313 2389.0625,479.9063 2388.9688,479.75 C2388.8125,479.4844 2388.5313,479.3438 2388.2344,479.3438 C2387.9375,479.3438 2387.7344,479.4375 2387.5156,479.75 L2387.3438,479.6719 Z " fill="#000000"/><text fill="#000000" font-family="sans-serif" font-size="14" lengthAdjust="spacing" textLength="122" x="2399" y="488.8467">ATInterfaceForm</text><line style="stroke:#181818;stroke-width:0.5;" x1="2371" x2="2523" y1="500" y2="500"/><line style="stroke:#181818;stroke-width:0.5;" x1="2371" x2="2523" y1="508" y2="508"/></g><!--MD5=[1d0f6a6be68758a725dd512697eed99d]
class SAPInterfaceForm--><g id="elem_SAPInterfaceForm"><rect codeLine="56" fill="#F1F1F1" height="48" id="SAPInterfaceForm" rx="3.5" ry="3.5" style="stroke:#181818;stroke-width:0.5;" width="163" x="1975.5" y="468"/><ellipse cx="1990.5" cy="484" fill="#ADD1B2" rx="11" ry="11" style="stroke:#181818;stroke-width:1.0;"/><path d="M1992.8438,479.6719 C1991.9063,479.2344 1991.3125,479.0938 1990.4375,479.0938 C1987.8125,479.0938 1985.8125,481.1719 1985.8125,483.8906 L1985.8125,485.0156 C1985.8125,487.5938 1987.9219,489.4844 1990.8125,489.4844 C1992.0313,489.4844 1993.1875,489.1875 1993.9375,488.6406 C1994.5156,488.2344 1994.8438,487.7813 1994.8438,487.3906 C1994.8438,486.9375 1994.4531,486.5469 1993.9844,486.5469 C1993.7656,486.5469 1993.5625,486.625 1993.375,486.8125 C1992.9219,487.2969 1992.9219,487.2969 1992.7344,487.3906 C1992.3125,487.6563 1991.625,487.7813 1990.8594,487.7813 C1988.8125,487.7813 1987.5156,486.6875 1987.5156,484.9844 L1987.5156,483.8906 C1987.5156,482.1094 1988.7656,480.7969 1990.5,480.7969 C1991.0781,480.7969 1991.6875,480.9531 1992.1563,481.2031 C1992.6406,481.4844 1992.8125,481.7031 1992.9063,482.1094 C1992.9688,482.5156 1993,482.6406 1993.1406,482.7656 C1993.2813,482.9063 1993.5156,483.0156 1993.7344,483.0156 C1994,483.0156 1994.2656,482.875 1994.4375,482.6563 C1994.5469,482.5 1994.5781,482.3125 1994.5781,481.8906 L1994.5781,480.4688 C1994.5781,480.0313 1994.5625,479.9063 1994.4688,479.75 C1994.3125,479.4844 1994.0313,479.3438 1993.7344,479.3438 C1993.4375,479.3438 1993.2344,479.4375 1993.0156,479.75 L1992.8438,479.6719 Z " fill="#000000"/><text fill="#000000" font-family="sans-serif" font-size="14" lengthAdjust="spacing" textLength="131" x="2004.5" y="488.8467">SAPInterfaceForm</text><line style="stroke:#181818;stroke-width:0.5;" x1="1976.5" x2="2137.5" y1="500" y2="500"/><line style="stroke:#181818;stroke-width:0.5;" x1="1976.5" x2="2137.5" y1="508" y2="508"/></g><!--MD5=[9af42464beca7ad465fc2bb030e8f363]
class ConnectionForm--><g id="elem_ConnectionForm"><rect codeLine="59" fill="#F1F1F1" height="64.2969" id="ConnectionForm" rx="3.5" ry="3.5" style="stroke:#181818;stroke-width:0.5;" width="250" x="2929" y="308.5"/><ellipse cx="2990.75" cy="324.5" fill="#A9DCDF" rx="11" ry="11" style="stroke:#181818;stroke-width:1.0;"/><path d="M2992.8281,326.3125 L2993.2188,327.2969 L2992.8281,327.2969 C2992.375,327.2969 2992.2656,327.3125 2992.1094,327.4219 C2991.8594,327.5781 2991.7031,327.8594 2991.7031,328.1563 C2991.7031,328.4219 2991.8438,328.6719 2992.0625,328.8281 C2992.2031,328.9531 2992.4063,329 2992.8281,329 L2995.1875,329 C2995.5469,329 2995.7656,328.9688 2995.9063,328.875 C2996.1563,328.7344 2996.3125,328.4375 2996.3125,328.1563 C2996.3125,327.875 2996.1719,327.625 2995.9531,327.4688 C2995.7813,327.3281 2995.625,327.2969 2995.1563,327.2969 L2991.7656,319.0938 L2988.0938,319.0938 C2987.6406,319.0938 2987.5156,319.1094 2987.3594,319.2031 C2987.1094,319.375 2986.9531,319.6563 2986.9531,319.9375 C2986.9531,320.2188 2987.0938,320.4688 2987.3125,320.6406 C2987.4844,320.75 2987.6563,320.7813 2988.0938,320.7813 L2989.1719,320.7813 L2986.5313,327.2969 C2986.1094,327.2969 2985.9531,327.3125 2985.7969,327.4219 C2985.5469,327.5781 2985.3906,327.8594 2985.3906,328.1563 C2985.3906,328.7188 2985.7656,329 2986.5156,329 L2988.7813,329 C2989.1406,329 2989.3594,328.9688 2989.4844,328.875 C2989.75,328.7344 2989.8906,328.4375 2989.8906,328.1563 C2989.8906,327.875 2989.7656,327.625 2989.5469,327.4531 C2989.375,327.3281 2989.2344,327.2969 2988.7813,327.2969 L2988.3906,327.2969 L2988.7813,326.3125 L2992.8281,326.3125 Z M2992.125,324.6094 L2989.4531,324.6094 L2990.7969,321.3438 L2992.125,324.6094 Z " fill="#000000"/><text fill="#000000" font-family="sans-serif" font-size="14" font-style="italic" lengthAdjust="spacing" textLength="118" x="3011.25" y="329.3467">ConnectionForm</text><line style="stroke:#181818;stroke-width:0.5;" x1="2930" x2="3178" y1="340.5" y2="340.5"/><line style="stroke:#181818;stroke-width:0.5;" x1="2930" x2="3178" y1="348.5" y2="348.5"/><ellipse cx="2940" cy="362.1484" fill="#84BE84" rx="3" ry="3" style="stroke:#038048;stroke-width:1.0;"/><text fill="#000000" font-family="sans-serif" font-size="14" font-style="italic" lengthAdjust="spacing" textLength="224" x="2949" y="365.4951">generateFormList(): FormItem[]</text></g><!--MD5=[d5d6cb2f266241dc71a59b834b468050]
class WMConnectionForm--><g id="elem_WMConnectionForm"><rect codeLine="62" fill="#F1F1F1" height="48" id="WMConnectionForm" rx="3.5" ry="3.5" style="stroke:#181818;stroke-width:0.5;" width="178" x="2974" y="468"/><ellipse cx="2989" cy="484" fill="#ADD1B2" rx="11" ry="11" style="stroke:#181818;stroke-width:1.0;"/><path d="M2991.3438,479.6719 C2990.4063,479.2344 2989.8125,479.0938 2988.9375,479.0938 C2986.3125,479.0938 2984.3125,481.1719 2984.3125,483.8906 L2984.3125,485.0156 C2984.3125,487.5938 2986.4219,489.4844 2989.3125,489.4844 C2990.5313,489.4844 2991.6875,489.1875 2992.4375,488.6406 C2993.0156,488.2344 2993.3438,487.7813 2993.3438,487.3906 C2993.3438,486.9375 2992.9531,486.5469 2992.4844,486.5469 C2992.2656,486.5469 2992.0625,486.625 2991.875,486.8125 C2991.4219,487.2969 2991.4219,487.2969 2991.2344,487.3906 C2990.8125,487.6563 2990.125,487.7813 2989.3594,487.7813 C2987.3125,487.7813 2986.0156,486.6875 2986.0156,484.9844 L2986.0156,483.8906 C2986.0156,482.1094 2987.2656,480.7969 2989,480.7969 C2989.5781,480.7969 2990.1875,480.9531 2990.6563,481.2031 C2991.1406,481.4844 2991.3125,481.7031 2991.4063,482.1094 C2991.4688,482.5156 2991.5,482.6406 2991.6406,482.7656 C2991.7813,482.9063 2992.0156,483.0156 2992.2344,483.0156 C2992.5,483.0156 2992.7656,482.875 2992.9375,482.6563 C2993.0469,482.5 2993.0781,482.3125 2993.0781,481.8906 L2993.0781,480.4688 C2993.0781,480.0313 2993.0625,479.9063 2992.9688,479.75 C2992.8125,479.4844 2992.5313,479.3438 2992.2344,479.3438 C2991.9375,479.3438 2991.7344,479.4375 2991.5156,479.75 L2991.3438,479.6719 Z " fill="#000000"/><text fill="#000000" font-family="sans-serif" font-size="14" lengthAdjust="spacing" textLength="146" x="3003" y="488.8467">WMConnectionForm</text><line style="stroke:#181818;stroke-width:0.5;" x1="2975" x2="3151" y1="500" y2="500"/><line style="stroke:#181818;stroke-width:0.5;" x1="2975" x2="3151" y1="508" y2="508"/></g><!--MD5=[838d21c9b22cd90913621a584972295b]
class ATConnectionForm--><g id="elem_ATConnectionForm"><rect codeLine="63" fill="#F1F1F1" height="48" id="ATConnectionForm" rx="3.5" ry="3.5" style="stroke:#181818;stroke-width:0.5;" width="171" x="3187.5" y="468"/><ellipse cx="3202.5" cy="484" fill="#ADD1B2" rx="11" ry="11" style="stroke:#181818;stroke-width:1.0;"/><path d="M3204.8438,479.6719 C3203.9063,479.2344 3203.3125,479.0938 3202.4375,479.0938 C3199.8125,479.0938 3197.8125,481.1719 3197.8125,483.8906 L3197.8125,485.0156 C3197.8125,487.5938 3199.9219,489.4844 3202.8125,489.4844 C3204.0313,489.4844 3205.1875,489.1875 3205.9375,488.6406 C3206.5156,488.2344 3206.8438,487.7813 3206.8438,487.3906 C3206.8438,486.9375 3206.4531,486.5469 3205.9844,486.5469 C3205.7656,486.5469 3205.5625,486.625 3205.375,486.8125 C3204.9219,487.2969 3204.9219,487.2969 3204.7344,487.3906 C3204.3125,487.6563 3203.625,487.7813 3202.8594,487.7813 C3200.8125,487.7813 3199.5156,486.6875 3199.5156,484.9844 L3199.5156,483.8906 C3199.5156,482.1094 3200.7656,480.7969 3202.5,480.7969 C3203.0781,480.7969 3203.6875,480.9531 3204.1563,481.2031 C3204.6406,481.4844 3204.8125,481.7031 3204.9063,482.1094 C3204.9688,482.5156 3205,482.6406 3205.1406,482.7656 C3205.2813,482.9063 3205.5156,483.0156 3205.7344,483.0156 C3206,483.0156 3206.2656,482.875 3206.4375,482.6563 C3206.5469,482.5 3206.5781,482.3125 3206.5781,481.8906 L3206.5781,480.4688 C3206.5781,480.0313 3206.5625,479.9063 3206.4688,479.75 C3206.3125,479.4844 3206.0313,479.3438 3205.7344,479.3438 C3205.4375,479.3438 3205.2344,479.4375 3205.0156,479.75 L3204.8438,479.6719 Z " fill="#000000"/><text fill="#000000" font-family="sans-serif" font-size="14" lengthAdjust="spacing" textLength="139" x="3216.5" y="488.8467">ATConnectionForm</text><line style="stroke:#181818;stroke-width:0.5;" x1="3188.5" x2="3357.5" y1="500" y2="500"/><line style="stroke:#181818;stroke-width:0.5;" x1="3188.5" x2="3357.5" y1="508" y2="508"/></g><!--MD5=[57d648688bcde94d34cc8eaf67789c90]
class SAPConnectionForm--><g id="elem_SAPConnectionForm"><rect codeLine="64" fill="#F1F1F1" height="48" id="SAPConnectionForm" rx="3.5" ry="3.5" style="stroke:#181818;stroke-width:0.5;" width="180" x="2759" y="468"/><ellipse cx="2774" cy="484" fill="#ADD1B2" rx="11" ry="11" style="stroke:#181818;stroke-width:1.0;"/><path d="M2776.3438,479.6719 C2775.4063,479.2344 2774.8125,479.0938 2773.9375,479.0938 C2771.3125,479.0938 2769.3125,481.1719 2769.3125,483.8906 L2769.3125,485.0156 C2769.3125,487.5938 2771.4219,489.4844 2774.3125,489.4844 C2775.5313,489.4844 2776.6875,489.1875 2777.4375,488.6406 C2778.0156,488.2344 2778.3438,487.7813 2778.3438,487.3906 C2778.3438,486.9375 2777.9531,486.5469 2777.4844,486.5469 C2777.2656,486.5469 2777.0625,486.625 2776.875,486.8125 C2776.4219,487.2969 2776.4219,487.2969 2776.2344,487.3906 C2775.8125,487.6563 2775.125,487.7813 2774.3594,487.7813 C2772.3125,487.7813 2771.0156,486.6875 2771.0156,484.9844 L2771.0156,483.8906 C2771.0156,482.1094 2772.2656,480.7969 2774,480.7969 C2774.5781,480.7969 2775.1875,480.9531 2775.6563,481.2031 C2776.1406,481.4844 2776.3125,481.7031 2776.4063,482.1094 C2776.4688,482.5156 2776.5,482.6406 2776.6406,482.7656 C2776.7813,482.9063 2777.0156,483.0156 2777.2344,483.0156 C2777.5,483.0156 2777.7656,482.875 2777.9375,482.6563 C2778.0469,482.5 2778.0781,482.3125 2778.0781,481.8906 L2778.0781,480.4688 C2778.0781,480.0313 2778.0625,479.9063 2777.9688,479.75 C2777.8125,479.4844 2777.5313,479.3438 2777.2344,479.3438 C2776.9375,479.3438 2776.7344,479.4375 2776.5156,479.75 L2776.3438,479.6719 Z " fill="#000000"/><text fill="#000000" font-family="sans-serif" font-size="14" lengthAdjust="spacing" textLength="148" x="2788" y="488.8467">SAPConnectionForm</text><line style="stroke:#181818;stroke-width:0.5;" x1="2760" x2="2938" y1="500" y2="500"/><line style="stroke:#181818;stroke-width:0.5;" x1="2760" x2="2938" y1="508" y2="508"/></g><!--MD5=[d70b4ba1fa94ecf19591ab9d321b9188]
class ReactNode--><g id="elem_ReactNode"><rect codeLine="2" fill="#F1F1F1" height="64.2969" id="ReactNode" rx="3.5" ry="3.5" style="stroke:#181818;stroke-width:0.5;" width="111" x="1556.5" y="7"/><ellipse cx="1571.5" cy="23" fill="#ADD1B2" rx="11" ry="11" style="stroke:#181818;stroke-width:1.0;"/><path d="M1573.8438,18.6719 C1572.9063,18.2344 1572.3125,18.0938 1571.4375,18.0938 C1568.8125,18.0938 1566.8125,20.1719 1566.8125,22.8906 L1566.8125,24.0156 C1566.8125,26.5938 1568.9219,28.4844 1571.8125,28.4844 C1573.0313,28.4844 1574.1875,28.1875 1574.9375,27.6406 C1575.5156,27.2344 1575.8438,26.7813 1575.8438,26.3906 C1575.8438,25.9375 1575.4531,25.5469 1574.9844,25.5469 C1574.7656,25.5469 1574.5625,25.625 1574.375,25.8125 C1573.9219,26.2969 1573.9219,26.2969 1573.7344,26.3906 C1573.3125,26.6563 1572.625,26.7813 1571.8594,26.7813 C1569.8125,26.7813 1568.5156,25.6875 1568.5156,23.9844 L1568.5156,22.8906 C1568.5156,21.1094 1569.7656,19.7969 1571.5,19.7969 C1572.0781,19.7969 1572.6875,19.9531 1573.1563,20.2031 C1573.6406,20.4844 1573.8125,20.7031 1573.9063,21.1094 C1573.9688,21.5156 1574,21.6406 1574.1406,21.7656 C1574.2813,21.9063 1574.5156,22.0156 1574.7344,22.0156 C1575,22.0156 1575.2656,21.875 1575.4375,21.6563 C1575.5469,21.5 1575.5781,21.3125 1575.5781,20.8906 L1575.5781,19.4688 C1575.5781,19.0313 1575.5625,18.9063 1575.4688,18.75 C1575.3125,18.4844 1575.0313,18.3438 1574.7344,18.3438 C1574.4375,18.3438 1574.2344,18.4375 1574.0156,18.75 L1573.8438,18.6719 Z " fill="#000000"/><text fill="#000000" font-family="sans-serif" font-size="14" lengthAdjust="spacing" textLength="79" x="1585.5" y="27.8467">ReactNode</text><line style="stroke:#181818;stroke-width:0.5;" x1="1557.5" x2="1666.5" y1="39" y2="39"/><line style="stroke:#181818;stroke-width:0.5;" x1="1557.5" x2="1666.5" y1="47" y2="47"/><ellipse cx="1567.5" cy="60.6484" fill="#84BE84" rx="3" ry="3" style="stroke:#038048;stroke-width:1.0;"/><text fill="#000000" font-family="sans-serif" font-size="14" lengthAdjust="spacing" textLength="58" x="1576.5" y="63.9951">render()</text></g><!--MD5=[633f779650690cc6896f3fd539e758a7]
class EditIntegration--><g id="elem_EditIntegration"><rect codeLine="5" fill="#F1F1F1" height="80.5938" id="EditIntegration" rx="3.5" ry="3.5" style="stroke:#181818;stroke-width:0.5;" width="298" x="523" y="142"/><ellipse cx="612.75" cy="158" fill="#ADD1B2" rx="11" ry="11" style="stroke:#181818;stroke-width:1.0;"/><path d="M615.0938,153.6719 C614.1563,153.2344 613.5625,153.0938 612.6875,153.0938 C610.0625,153.0938 608.0625,155.1719 608.0625,157.8906 L608.0625,159.0156 C608.0625,161.5938 610.1719,163.4844 613.0625,163.4844 C614.2813,163.4844 615.4375,163.1875 616.1875,162.6406 C616.7656,162.2344 617.0938,161.7813 617.0938,161.3906 C617.0938,160.9375 616.7031,160.5469 616.2344,160.5469 C616.0156,160.5469 615.8125,160.625 615.625,160.8125 C615.1719,161.2969 615.1719,161.2969 614.9844,161.3906 C614.5625,161.6563 613.875,161.7813 613.1094,161.7813 C611.0625,161.7813 609.7656,160.6875 609.7656,158.9844 L609.7656,157.8906 C609.7656,156.1094 611.0156,154.7969 612.75,154.7969 C613.3281,154.7969 613.9375,154.9531 614.4063,155.2031 C614.8906,155.4844 615.0625,155.7031 615.1563,156.1094 C615.2188,156.5156 615.25,156.6406 615.3906,156.7656 C615.5313,156.9063 615.7656,157.0156 615.9844,157.0156 C616.25,157.0156 616.5156,156.875 616.6875,156.6563 C616.7969,156.5 616.8281,156.3125 616.8281,155.8906 L616.8281,154.4688 C616.8281,154.0313 616.8125,153.9063 616.7188,153.75 C616.5625,153.4844 616.2813,153.3438 615.9844,153.3438 C615.6875,153.3438 615.4844,153.4375 615.2656,153.75 L615.0938,153.6719 Z " fill="#000000"/><text fill="#000000" font-family="sans-serif" font-size="14" lengthAdjust="spacing" textLength="110" x="633.25" y="162.8467">EditIntegration</text><line style="stroke:#181818;stroke-width:0.5;" x1="524" x2="820" y1="174" y2="174"/><rect fill="none" height="6" style="stroke:#C82930;stroke-width:1.0;" width="6" x="531" y="184.6484"/><text fill="#000000" font-family="sans-serif" font-size="14" lengthAdjust="spacing" textLength="189" x="543" y="190.9951">formFactory: FormFactory</text><line style="stroke:#181818;stroke-width:0.5;" x1="524" x2="820" y1="198.2969" y2="198.2969"/><ellipse cx="534" cy="211.9453" fill="#84BE84" rx="3" ry="3" style="stroke:#038048;stroke-width:1.0;"/><text fill="#000000" font-family="sans-serif" font-size="14" lengthAdjust="spacing" textLength="272" x="543" y="215.292">EditIntegration(factory: FormFactory)</text></g><!--MD5=[d94a8cd029bfc0194b29eb7ddbc6b65d]
class DraftableForm--><g id="elem_DraftableForm"><rect codeLine="34" fill="#F1F1F1" height="96.8906" id="DraftableForm" rx="3.5" ry="3.5" style="stroke:#181818;stroke-width:0.5;" width="163" x="2104.5" y="134"/><ellipse cx="2131.65" cy="150" fill="#A9DCDF" rx="11" ry="11" style="stroke:#181818;stroke-width:1.0;"/><path d="M2133.7281,151.8125 L2134.1188,152.7969 L2133.7281,152.7969 C2133.275,152.7969 2133.1656,152.8125 2133.0094,152.9219 C2132.7594,153.0781 2132.6031,153.3594 2132.6031,153.6563 C2132.6031,153.9219 2132.7438,154.1719 2132.9625,154.3281 C2133.1031,154.4531 2133.3063,154.5 2133.7281,154.5 L2136.0875,154.5 C2136.4469,154.5 2136.6656,154.4688 2136.8063,154.375 C2137.0563,154.2344 2137.2125,153.9375 2137.2125,153.6563 C2137.2125,153.375 2137.0719,153.125 2136.8531,152.9688 C2136.6813,152.8281 2136.525,152.7969 2136.0563,152.7969 L2132.6656,144.5938 L2128.9938,144.5938 C2128.5406,144.5938 2128.4156,144.6094 2128.2594,144.7031 C2128.0094,144.875 2127.8531,145.1563 2127.8531,145.4375 C2127.8531,145.7188 2127.9938,145.9688 2128.2125,146.1406 C2128.3844,146.25 2128.5563,146.2813 2128.9938,146.2813 L2130.0719,146.2813 L2127.4313,152.7969 C2127.0094,152.7969 2126.8531,152.8125 2126.6969,152.9219 C2126.4469,153.0781 2126.2906,153.3594 2126.2906,153.6563 C2126.2906,154.2188 2126.6656,154.5 2127.4156,154.5 L2129.6813,154.5 C2130.0406,154.5 2130.2594,154.4688 2130.3844,154.375 C2130.65,154.2344 2130.7906,153.9375 2130.7906,153.6563 C2130.7906,153.375 2130.6656,153.125 2130.4469,152.9531 C2130.275,152.8281 2130.1344,152.7969 2129.6813,152.7969 L2129.2906,152.7969 L2129.6813,151.8125 L2133.7281,151.8125 Z M2133.025,150.1094 L2130.3531,150.1094 L2131.6969,146.8438 L2133.025,150.1094 Z " fill="#000000"/><text fill="#000000" font-family="sans-serif" font-size="14" font-style="italic" lengthAdjust="spacing" textLength="104" x="2148.35" y="154.8467">DraftableForm</text><line style="stroke:#181818;stroke-width:0.5;" x1="2105.5" x2="2266.5" y1="166" y2="166"/><line style="stroke:#181818;stroke-width:0.5;" x1="2105.5" x2="2266.5" y1="174" y2="174"/><ellipse cx="2115.5" cy="187.6484" fill="#84BE84" rx="3" ry="3" style="stroke:#038048;stroke-width:1.0;"/><text fill="#000000" font-family="sans-serif" font-size="14" lengthAdjust="spacing" textLength="80" x="2124.5" y="190.9951">saveDraft()</text><ellipse cx="2115.5" cy="203.9453" fill="#84BE84" rx="3" ry="3" style="stroke:#038048;stroke-width:1.0;"/><text fill="#000000" font-family="sans-serif" font-size="14" lengthAdjust="spacing" textLength="80" x="2124.5" y="207.292">readDraft()</text><ellipse cx="2115.5" cy="220.2422" fill="#84BE84" rx="3" ry="3" style="stroke:#038048;stroke-width:1.0;"/><text fill="#000000" font-family="sans-serif" font-size="14" font-style="italic" lengthAdjust="spacing" textLength="137" x="2124.5" y="223.5889">generateDraftKey()</text></g><!--MD5=[0a9f542692bee3a1fb2a96f9beaebff3]
reverse link ReactNode to EditIntegration--><g id="link_ReactNode_EditIntegration"><path d="M1536.19,43.772 C1367.98,52.641 968.025,76.615 837,110 C807.503,117.516 776.541,129.678 749.508,141.857 " fill="none" id="ReactNode-backto-EditIntegration" style="stroke:#454645;stroke-width:1.0;"/><polygon fill="none" points="1535.89,36.778,1556.23,42.73,1536.62,50.759,1535.89,36.778" style="stroke:#454645;stroke-width:1.0;"/></g><!--MD5=[e9a17021c67393937e555b5d60cd66b1]
reverse link FormFactory to WMFormFactory--><g id="link_FormFactory_WMFormFactory"><path d="M1287.97,245.105 C1304.13,260.658 1321.22,277.123 1336.54,291.87 " fill="none" id="FormFactory-backto-WMFormFactory" style="stroke:#454645;stroke-width:1.0;stroke-dasharray:7.0,7.0;"/><polygon fill="none" points="1283.04,250.068,1273.49,231.153,1292.75,239.983,1283.04,250.068" style="stroke:#454645;stroke-width:1.0;"/></g><!--MD5=[de994ff78e39ebe60af8db9203346bc6]
reverse link FormFactory to ATFormFactory--><g id="link_FormFactory_ATFormFactory"><path d="M1409.68,230.715 C1461.46,244.579 1517.61,260.263 1569,276 C1585.16,280.947 1602.02,286.384 1618.7,291.931 " fill="none" id="FormFactory-backto-ATFormFactory" style="stroke:#454645;stroke-width:1.0;stroke-dasharray:7.0,7.0;"/><polygon fill="none" points="1407.59,237.404,1390.07,225.495,1411.2,223.875,1407.59,237.404" style="stroke:#454645;stroke-width:1.0;"/></g><!--MD5=[04499863f9686ca8872c256d32842920]
reverse link FormFactory to SAPFormFactory--><g id="link_FormFactory_SAPFormFactory"><path d="M1145.23,243.442 C1124.15,259.48 1101.66,276.596 1081.59,291.87 " fill="none" id="FormFactory-backto-SAPFormFactory" style="stroke:#454645;stroke-width:1.0;stroke-dasharray:7.0,7.0;"/><polygon fill="none" points="1141.22,237.694,1161.38,231.153,1149.7,248.835,1141.22,237.694" style="stroke:#454645;stroke-width:1.0;"/></g><!--MD5=[7141f2c3a3ba2c28bf4789619100ed05]
reverse link ReactNode to DraftableForm--><g id="link_ReactNode_DraftableForm"><path d="M1687.41,54.918 C1753.08,68.247 1850.69,88.88 1935,110 C1991.92,124.259 2055.48,142.388 2104.4,156.823 " fill="none" id="ReactNode-backto-DraftableForm" style="stroke:#454645;stroke-width:1.0;"/><polygon fill="none" points="1685.91,61.756,1667.69,50.94,1688.68,48.033,1685.91,61.756" style="stroke:#454645;stroke-width:1.0;"/></g><!--MD5=[3f8d1d183a92460b1ec84009a33e1124]
reverse link DraftableForm to IntegrationForm--><g id="link_DraftableForm_IntegrationForm"><path d="M2084.34,206.234 C2038.89,215.493 1984.5,225.333 1935,231 C1449.76,286.556 1323.3,230.664 837,276 C773.452,281.924 705.004,290.754 641.637,299.959 " fill="none" id="DraftableForm-backto-IntegrationForm" style="stroke:#454645;stroke-width:1.0;"/><polygon fill="none" points="2083.22,199.319,2104.22,202.107,2086.06,213.026,2083.22,199.319" style="stroke:#454645;stroke-width:1.0;"/></g><!--MD5=[2de62c6caf12cbf99b67d5f17feae6a4]
reverse link IntegrationForm to WMIntegrationForm--><g id="link_IntegrationForm_WMIntegrationForm"><path d="M440.432,397.83 C457.028,422.154 475.518,449.2541 488.258,467.9274 " fill="none" id="IntegrationForm-backto-WMIntegrationForm" style="stroke:#454645;stroke-width:1.0;"/><polygon fill="none" points="434.556,401.637,429.066,381.171,446.121,393.747,434.556,401.637" style="stroke:#454645;stroke-width:1.0;"/></g><!--MD5=[086080cfa5fdc2df017360dcb6943eea]
reverse link IntegrationForm to ATIntegrationForm--><g id="link_IntegrationForm_ATIntegrationForm"><path d="M502.59,390.01 C556.82,416.163 621.228,447.224 664.157,467.9274 " fill="none" id="IntegrationForm-backto-ATIntegrationForm" style="stroke:#454645;stroke-width:1.0;"/><polygon fill="none" points="499.234,396.164,484.26,381.171,505.316,383.553,499.234,396.164" style="stroke:#454645;stroke-width:1.0;"/></g><!--MD5=[9103075a747320b8544aa5a0f673abf3]
reverse link IntegrationForm to SAPIntegrationForm--><g id="link_IntegrationForm_SAPIntegrationForm"><path d="M360.813,397.477 C342.849,421.892 322.782,449.1638 308.976,467.9274 " fill="none" id="IntegrationForm-backto-SAPIntegrationForm" style="stroke:#454645;stroke-width:1.0;"/><polygon fill="none" points="355.32,393.131,372.811,381.171,366.596,401.429,355.32,393.131" style="stroke:#454645;stroke-width:1.0;"/></g><!--MD5=[d483caa2584cb053e8015b24e492f8b5]
reverse link DraftableForm to InterfaceForm--><g id="link_DraftableForm_InterfaceForm"><path d="M2246.78,245.471 C2264.71,263.753 2283.85,283.264 2300.01,299.747 " fill="none" id="DraftableForm-backto-InterfaceForm" style="stroke:#454645;stroke-width:1.0;"/><polygon fill="none" points="2241.74,250.333,2232.74,231.153,2251.74,240.53,2241.74,250.333" style="stroke:#454645;stroke-width:1.0;"/></g><!--MD5=[04c5c8729def7e26b06a056971ea3d42]
reverse link InterfaceForm to WMInterfaceForm--><g id="link_InterfaceForm_WMInterfaceForm"><path d="M2306.37,398.889 C2292.7,422.938 2277.58,449.5247 2267.12,467.9274 " fill="none" id="InterfaceForm-backto-WMInterfaceForm" style="stroke:#454645;stroke-width:1.0;"/><polygon fill="none" points="2300.47,395.097,2316.44,381.171,2312.64,402.017,2300.47,395.097" style="stroke:#454645;stroke-width:1.0;"/></g><!--MD5=[cea65c25dd0738bf13e53fcde15b0115]
reverse link InterfaceForm to ATInterfaceForm--><g id="link_InterfaceForm_ATInterfaceForm"><path d="M2379.44,397.477 C2397.08,421.892 2416.78,449.1638 2430.33,467.9274 " fill="none" id="InterfaceForm-backto-ATInterfaceForm" style="stroke:#454645;stroke-width:1.0;"/><polygon fill="none" points="2373.7,401.482,2367.66,381.171,2385.04,393.284,2373.7,401.482" style="stroke:#454645;stroke-width:1.0;"/></g><!--MD5=[2b7b16ddeeced83c76721e0f6cb1647d]
reverse link InterfaceForm to SAPInterfaceForm--><g id="link_InterfaceForm_SAPInterfaceForm"><path d="M2246.2,390.695 C2197.14,416.704 2139.23,447.405 2100.52,467.9274 " fill="none" id="InterfaceForm-backto-SAPInterfaceForm" style="stroke:#454645;stroke-width:1.0;"/><polygon fill="none" points="2243.22,384.354,2264.17,381.171,2249.78,396.723,2243.22,384.354" style="stroke:#454645;stroke-width:1.0;"/></g><!--MD5=[2d3407dd1f5aa43aab555654911369e0]
reverse link DraftableForm to ConnectionForm--><g id="link_DraftableForm_ConnectionForm"><path d="M2287.69,200.665 C2395,218.894 2569.03,248.775 2719,276 C2788.46,288.609 2865.89,303.249 2928.81,315.293 " fill="none" id="DraftableForm-backto-ConnectionForm" style="stroke:#454645;stroke-width:1.0;"/><polygon fill="none" points="2286.34,207.537,2267.79,197.29,2288.68,193.734,2286.34,207.537" style="stroke:#454645;stroke-width:1.0;"/></g><!--MD5=[bcdf36991a970fec7f81757641174000]
reverse link ConnectionForm to WMConnectionForm--><g id="link_ConnectionForm_WMConnectionForm"><path d="M3057.1,393.036 C3058.64,418.557 3060.42,448.0853 3061.62,467.9963 " fill="none" id="ConnectionForm-backto-WMConnectionForm" style="stroke:#454645;stroke-width:1.0;"/><polygon fill="none" points="3050.1,393.225,3055.89,372.84,3064.08,392.383,3050.1,393.225" style="stroke:#454645;stroke-width:1.0;"/></g><!--MD5=[8fab3aca146b105d76655c6f8b377b40]
reverse link ConnectionForm to ATConnectionForm--><g id="link_ConnectionForm_ATConnectionForm"><path d="M3116.32,384.044 C3156.26,411.307 3206.55,445.637 3239.22,467.9389 " fill="none" id="ConnectionForm-backto-ATConnectionForm" style="stroke:#454645;stroke-width:1.0;"/><polygon fill="none" points="3112.21,389.716,3099.64,372.658,3120.11,378.153,3112.21,389.716" style="stroke:#454645;stroke-width:1.0;"/></g><!--MD5=[4854dbc2e691bda94dacff51d7f76f72]
reverse link ConnectionForm to SAPConnectionForm--><g id="link_ConnectionForm_SAPConnectionForm"><path d="M3060.65,392.969 C3060.05,408.956 3056.33,425.614 3046,438 C3038.6,446.872 2987.55,460.4716 2939.28,471.6731 " fill="none" id="ConnectionForm-backto-SAPConnectionForm" style="stroke:#454645;stroke-width:1.0;"/><polygon fill="none" points="3053.64,392.985,3059.94,372.753,3067.63,392.497,3053.64,392.985" style="stroke:#454645;stroke-width:1.0;"/></g><!--MD5=[2ae1c26398f5527fa72f40df301c7e58]
link EditIntegration to FormFactory--><g id="link_EditIntegration_FormFactory"><path codeLine="67" d="M821.015,182.5 C892.423,182.5 978.33,182.5 1052.45,182.5 " fill="none" id="EditIntegration-to-FormFactory" style="stroke:#454645;stroke-width:1.0;stroke-dasharray:7.0,7.0;"/><polygon fill="#454645" points="1057.77,182.5,1048.77,178.5,1052.77,182.5,1048.77,186.5,1057.77,182.5" style="stroke:#454645;stroke-width:1.0;"/><text fill="#000000" font-family="sans-serif" font-size="13" lengthAdjust="spacing" textLength="39" x="920" y="175.5669">use</text></g><!--MD5=[4d985a2049a417464d06896a1c2c0b78]
link WMFormFactory to WMIntegrationForm--><g id="link_WMFormFactory_WMIntegrationForm"><path codeLine="69" d="M1278.13,389.152 C1253.52,398.405 1227.18,407.06 1202,413 C1185.93,416.791 626.322,465.4805 610,468 C605.786,468.6504 601.489,469.3657 597.156,470.1292 " fill="none" id="WMFormFactory-to-WMIntegrationForm" style="stroke:#454645;stroke-width:1.0;stroke-dasharray:7.0,7.0;"/><polygon fill="#454645" points="592.055,471.0468,601.6212,473.3893,596.9759,470.1611,600.2041,465.5158,592.055,471.0468" style="stroke:#454645;stroke-width:1.0;"/><text fill="#000000" font-family="sans-serif" font-size="13" lengthAdjust="spacing" textLength="39" x="1126" y="434.0669">use</text></g><!--MD5=[3cd21760ecab051752653d07acb9a7e0]
link WMFormFactory to WMInterfaceForm--><g id="link_WMFormFactory_WMInterfaceForm"><path codeLine="70" d="M1462.06,389.11 C1495.94,407.857 1537.15,427.407 1577,438 C1826.03,504.1936 1900.88,431.751 2156,468 C2160.1,468.5831 2164.29,469.2556 2168.5,469.9959 " fill="none" id="WMFormFactory-to-WMInterfaceForm" style="stroke:#454645;stroke-width:1.0;stroke-dasharray:7.0,7.0;"/><polygon fill="#454645" points="2173.46,470.8949,2165.3267,465.3407,2168.5416,469.9952,2163.8871,473.2101,2173.46,470.8949" style="stroke:#454645;stroke-width:1.0;"/><text fill="#000000" font-family="sans-serif" font-size="13" lengthAdjust="spacing" textLength="39" x="1578" y="434.0669">use</text></g><!--MD5=[883aa10a15235aa51f4ae2d615b87ff9]
link WMFormFactory to WMConnectionForm--><g id="link_WMFormFactory_WMConnectionForm"><path codeLine="71" d="M1488.55,389.134 C1514.28,398.956 1542.2,407.864 1569,413 C1639.28,426.468 2786.44,409.113 2857,421 C2858.78,421.3 2931.97,446.229 2990.6,466.2497 " fill="none" id="WMFormFactory-to-WMConnectionForm" style="stroke:#454645;stroke-width:1.0;stroke-dasharray:7.0,7.0;"/><polygon fill="#454645" points="2995.51,467.9259,2988.2836,461.2342,2990.7778,466.3115,2985.7005,468.8056,2995.51,467.9259" style="stroke:#454645;stroke-width:1.0;"/><text fill="#000000" font-family="sans-serif" font-size="13" lengthAdjust="spacing" textLength="39" x="2904" y="434.0669">use</text></g><!--MD5=[39f85ebd642e4efb50f61a46532e7d02]
link ATFormFactory to ATIntegrationForm--><g id="link_ATFormFactory_ATIntegrationForm"><path codeLine="73" d="M1702.91,389.056 C1680.04,407.794 1651.49,427.351 1622,438 C1546.31,465.3315 1016.44,482.6892 801.885,488.6684 " fill="none" id="ATFormFactory-to-ATIntegrationForm" style="stroke:#454645;stroke-width:1.0;stroke-dasharray:7.0,7.0;"/><polygon fill="#454645" points="796.876,488.8075,805.9845,492.5539,801.874,488.6675,805.7605,484.5571,796.876,488.8075" style="stroke:#454645;stroke-width:1.0;"/><text fill="#000000" font-family="sans-serif" font-size="13" lengthAdjust="spacing" textLength="39" x="1656" y="434.0669">use</text></g><!--MD5=[f97883b0fc7448f8bf564b1b17a096ca]
link ATFormFactory to ATInterfaceForm--><g id="link_ATFormFactory_ATInterfaceForm"><path codeLine="74" d="M1877.39,389.037 C1904.03,397.985 1932.23,406.545 1959,413 C2130.46,454.3341 2178.75,434.987 2352,468 C2356.19,468.7991 2360.48,469.6632 2364.8,470.5718 " fill="none" id="ATFormFactory-to-ATInterfaceForm" style="stroke:#454645;stroke-width:1.0;stroke-dasharray:7.0,7.0;"/><polygon fill="#454645" points="2369.89,471.6577,2361.9223,465.8684,2365,470.6148,2360.2536,473.6925,2369.89,471.6577" style="stroke:#454645;stroke-width:1.0;"/><text fill="#000000" font-family="sans-serif" font-size="13" lengthAdjust="spacing" textLength="39" x="2095" y="434.0669">use</text></g><!--MD5=[76bc18569c657d1853c2a69aacf6f97b]
link ATFormFactory to ATConnectionForm--><g id="link_ATFormFactory_ATConnectionForm"><path codeLine="75" d="M1868.63,389.015 C1897.65,398.874 1929.06,407.829 1959,413 C2068.27,431.875 2846.81,408.54 2957,421 C3035.63,429.891 3123.38,450.1845 3186.42,466.6437 " fill="none" id="ATFormFactory-to-ATConnectionForm" style="stroke:#454645;stroke-width:1.0;stroke-dasharray:7.0,7.0;"/><polygon fill="#454645" points="3191.3,467.9221,3183.6127,461.7654,3186.4643,466.6509,3181.5788,469.5025,3191.3,467.9221" style="stroke:#454645;stroke-width:1.0;"/><text fill="#000000" font-family="sans-serif" font-size="13" lengthAdjust="spacing" textLength="39" x="3063" y="434.0669">use</text></g><!--MD5=[b8aea1610e24db219efb55a67f3a944d]
link SAPFormFactory to SAPIntegrationForm--><g id="link_SAPFormFactory_SAPIntegrationForm"><path codeLine="77" d="M895.195,389.003 C868.388,398.008 839.981,406.599 813,413 C631.967,455.9457 581.289,436.025 398,468 C394.152,468.6713 390.232,469.3848 386.276,470.1292 " fill="none" id="SAPFormFactory-to-SAPIntegrationForm" style="stroke:#454645;stroke-width:1.0;stroke-dasharray:7.0,7.0;"/><polygon fill="#454645" points="381.25,471.0879,390.8402,473.3302,386.1614,470.1508,389.3408,465.4719,381.25,471.0879" style="stroke:#454645;stroke-width:1.0;"/><text fill="#000000" font-family="sans-serif" font-size="13" lengthAdjust="spacing" textLength="39" x="773" y="434.0669">use</text></g><!--MD5=[b1ad98a01bf884aac9af46e0e673fb5d]
link SAPFormFactory to SAPInterfaceForm--><g id="link_SAPFormFactory_SAPInterfaceForm"><path codeLine="78" d="M1125.77,389.007 C1150.39,398.326 1176.77,407.047 1202,413 C1477.36,477.9755 1814.43,489.479 1970.32,491.0841 " fill="none" id="SAPFormFactory-to-SAPInterfaceForm" style="stroke:#454645;stroke-width:1.0;stroke-dasharray:7.0,7.0;"/><polygon fill="#454645" points="1975.33,491.133,1966.3763,487.0304,1970.3303,491.0759,1966.2849,495.0299,1975.33,491.133" style="stroke:#454645;stroke-width:1.0;"/><text fill="#000000" font-family="sans-serif" font-size="13" lengthAdjust="spacing" textLength="39" x="1318" y="434.0669">use</text></g><!--MD5=[80be59bdb4be119dcd8f134c98e0514c]
link SAPFormFactory to SAPConnectionForm--><g id="link_SAPFormFactory_SAPConnectionForm"><path codeLine="79" d="M1121.55,389.152 C1147.28,398.973 1175.2,407.877 1202,413 C1284.78,428.824 2637.33,400.181 2719,421 C2752.93,429.649 2787.66,448.9983 2812.68,465.166 " fill="none" id="SAPFormFactory-to-SAPConnectionForm" style="stroke:#454645;stroke-width:1.0;stroke-dasharray:7.0,7.0;"/><polygon fill="#454645" points="2816.93,467.9373,2811.5942,459.659,2812.7478,465.197,2807.2098,466.3506,2816.93,467.9373" style="stroke:#454645;stroke-width:1.0;"/><text fill="#000000" font-family="sans-serif" font-size="13" lengthAdjust="spacing" textLength="39" x="2766" y="434.0669">use</text></g><!--MD5=[1c609164e42dc70ec7498c0974772d20]
@startuml
!theme vibrant
class ReactNode{
  + render()
}
class EditIntegration extends ReactNode{
  - formFactory: FormFactory

  + EditIntegration(factory: FormFactory)
}

together {
  interface FormFactory{
    + createIntegrationForm(): IntegrationForm
    + createInterfaceForm(): InterfaceForm
    + createConnectionForm(): ConnectionForm
  }
  class WMFormFactory implements FormFactory{
    + createIntegrationForm(): IntegrationForm
    + createInterfaceForm(): InterfaceForm
    + createConnectionForm(): ConnectionForm
  }
  class ATFormFactory implements FormFactory{
    + createIntegrationForm(): IntegrationForm
    + createInterfaceForm(): InterfaceForm
    + createConnectionForm(): ConnectionForm
  }
  class SAPFormFactory implements FormFactory{
    + createIntegrationForm(): IntegrationForm
    + createInterfaceForm(): InterfaceForm
    + createConnectionForm(): ConnectionForm
  }
}
 
abstract class DraftableForm extends ReactNode {
  + saveDraft()
  + readDraft()
  + {abstract} generateDraftKey()
}

together {
  abstract class IntegrationForm extends DraftableForm {
    + {abstract} preprocessIntegrationInfoFormData(selectedIntegration: IntegrationDataType | null,): IIntegrationFormData
	+ {abstract} generateFormList(): FormItem[]
  }
  class WMIntegrationForm extends IntegrationForm{}
  class ATIntegrationForm extends IntegrationForm{}
  class SAPIntegrationForm extends IntegrationForm{}
}
together {
  abstract class InterfaceForm extends DraftableForm {
	+ {abstract} preprocessInterfaceInfoFormData(selectedInterface: InterfaceDataType | null): InterfaceFormType
	+ {abstract} generateFormList(): FormItem[]
  }
  class WMInterfaceForm extends InterfaceForm{}
  class ATInterfaceForm extends InterfaceForm{}
  class SAPInterfaceForm extends InterfaceForm{}
}
together {
  abstract class ConnectionForm extends DraftableForm {
	+ {abstract} generateFormList(): FormItem[]
  }
  class WMConnectionForm extends ConnectionForm{}
  class ATConnectionForm extends ConnectionForm{}
  class SAPConnectionForm extends ConnectionForm{}
}

EditIntegration .Right.> FormFactory: <<use>>

WMFormFactory .down.> WMIntegrationForm: <<use>>
WMFormFactory .down.> WMInterfaceForm: <<use>>
WMFormFactory .down.> WMConnectionForm: <<use>>

ATFormFactory .down.> ATIntegrationForm: <<use>>
ATFormFactory .down.> ATInterfaceForm: <<use>>
ATFormFactory .down.> ATConnectionForm: <<use>>

SAPFormFactory .down.> SAPIntegrationForm: <<use>>
SAPFormFactory .down.> SAPInterfaceForm: <<use>>
SAPFormFactory .down.> SAPConnectionForm: <<use>>
@enduml

@startuml
skinparam BackgroundColor FFFFFF
skinparam shadowing false
skinparam RoundCorner 7
skinparam ArrowColor 454645
skinparam FontColor 454645
skinparam SequenceLifeLineBorderColor 696969
skinparam SequenceGroupHeaderFontColor 454645
skinparam SequenceGroupFontColor 696969
skinparam SequenceGroupBorderColor 696969
skinparam SequenceGroupBorderThickness 1

skinparam sequenceDivider {
    BorderColor 454645
    BorderThickness 1
    FontColor 454645
}

skinparam participant {
    BackgroundColor FF6347
    BorderColor 454645
    FontColor FFFFFF
    BorderThickness 1.5
}

skinparam database {
    BackgroundColor 00FFFF
    BorderColor 454645
    FontColor 454645
}

skinparam entity {
    BackgroundColor FFE552
    BorderColor 454645
    FontColor 454645
}

skinparam note {
    BackgroundColor 7FFFD4
    BorderColor 454645
    FontColor 454645
    BorderThickness 1.5
}

skinparam actor {
    BackgroundColor 454645
    BorderColor 454645
    FontColor 454645
}

skinparam boundary {
    BackgroundColor FFE552
    BorderColor 454645
    FontColor 454645
}

skinparam control {
    BackgroundColor FFE552
    BorderColor 454645
    FontColor 454645
}

skinparam collections {
    BackgroundColor FF5F42
    BorderColor 454645
    FontColor 454645
}

skinparam queue {
    BackgroundColor FF6347
    BorderColor 454645
    FontColor FFF
    BorderThickness 1.5
}
class ReactNode{
  + render()
}
class EditIntegration extends ReactNode{
  - formFactory: FormFactory

  + EditIntegration(factory: FormFactory)
}

together {
  interface FormFactory{
    + createIntegrationForm(): IntegrationForm
    + createInterfaceForm(): InterfaceForm
    + createConnectionForm(): ConnectionForm
  }
  class WMFormFactory implements FormFactory{
    + createIntegrationForm(): IntegrationForm
    + createInterfaceForm(): InterfaceForm
    + createConnectionForm(): ConnectionForm
  }
  class ATFormFactory implements FormFactory{
    + createIntegrationForm(): IntegrationForm
    + createInterfaceForm(): InterfaceForm
    + createConnectionForm(): ConnectionForm
  }
  class SAPFormFactory implements FormFactory{
    + createIntegrationForm(): IntegrationForm
    + createInterfaceForm(): InterfaceForm
    + createConnectionForm(): ConnectionForm
  }
}
 
abstract class DraftableForm extends ReactNode {
  + saveDraft()
  + readDraft()
  + {abstract} generateDraftKey()
}

together {
  abstract class IntegrationForm extends DraftableForm {
    + {abstract} preprocessIntegrationInfoFormData(selectedIntegration: IntegrationDataType | null,): IIntegrationFormData
	+ {abstract} generateFormList(): FormItem[]
  }
  class WMIntegrationForm extends IntegrationForm{}
  class ATIntegrationForm extends IntegrationForm{}
  class SAPIntegrationForm extends IntegrationForm{}
}
together {
  abstract class InterfaceForm extends DraftableForm {
	+ {abstract} preprocessInterfaceInfoFormData(selectedInterface: InterfaceDataType | null): InterfaceFormType
	+ {abstract} generateFormList(): FormItem[]
  }
  class WMInterfaceForm extends InterfaceForm{}
  class ATInterfaceForm extends InterfaceForm{}
  class SAPInterfaceForm extends InterfaceForm{}
}
together {
  abstract class ConnectionForm extends DraftableForm {
	+ {abstract} generateFormList(): FormItem[]
  }
  class WMConnectionForm extends ConnectionForm{}
  class ATConnectionForm extends ConnectionForm{}
  class SAPConnectionForm extends ConnectionForm{}
}

EditIntegration .Right.> FormFactory: <<use>>

WMFormFactory .down.> WMIntegrationForm: <<use>>
WMFormFactory .down.> WMInterfaceForm: <<use>>
WMFormFactory .down.> WMConnectionForm: <<use>>

ATFormFactory .down.> ATIntegrationForm: <<use>>
ATFormFactory .down.> ATInterfaceForm: <<use>>
ATFormFactory .down.> ATConnectionForm: <<use>>

SAPFormFactory .down.> SAPIntegrationForm: <<use>>
SAPFormFactory .down.> SAPInterfaceForm: <<use>>
SAPFormFactory .down.> SAPConnectionForm: <<use>>
@enduml

PlantUML version 1.2022.7beta11(Unknown compile time)
(GPL source distribution)
Java Runtime: Java(TM) SE Runtime Environment
JVM: Java HotSpot(TM) 64-Bit Server VM
Default Encoding: UTF-8
Language: en
Country: US
--></g></svg>